<?xml version="1.0" encoding="UTF-8"?>
<svg version="1.1" xmlns="http://www.w3.org/2000/svg" width="1080" height="370">
<path d="M0 0 C1.06488134 -0.00382555 2.12976268 -0.00765109 3.22691315 -0.01159257 C6.78334009 -0.02188395 10.33960441 -0.0179377 13.89604187 -0.01396179 C16.45077158 -0.01831042 19.00549998 -0.02349407 21.56022644 -0.02944946 C27.77254952 -0.04144558 33.98481298 -0.0439927 40.19714538 -0.0416492 C45.24930611 -0.03986338 50.30145374 -0.04162133 55.3536129 -0.04587364 C56.07372231 -0.04646883 56.79383172 -0.04706402 57.53576263 -0.04767724 C58.99886432 -0.04888905 60.461966 -0.05010318 61.92506769 -0.05131962 C75.63564106 -0.06218742 89.34618981 -0.06003641 103.05676457 -0.05393478 C115.58421735 -0.04876761 128.11159232 -0.06001712 140.63902972 -0.07903299 C153.51809479 -0.09843194 166.39712309 -0.10666371 179.27620286 -0.10290974 C186.50041813 -0.10100065 193.72456721 -0.10345664 200.94877052 -0.11762428 C207.74417134 -0.13081663 214.53939161 -0.12825016 221.33480072 -0.11521339 C223.82481374 -0.11284989 226.31483774 -0.11557414 228.80483818 -0.12383652 C232.21203115 -0.1343246 235.61870425 -0.12618618 239.02587891 -0.11352539 C240.0039182 -0.12089968 240.98195749 -0.12827396 241.98963434 -0.13587171 C251.74862495 -0.05993392 260.59648781 2.47080254 269.26591492 6.88569641 C269.94710388 7.23052063 270.62829285 7.57534485 271.3301239 7.93061829 C277.4854857 11.18003093 282.38962003 15.23175985 287.20341492 20.26069641 C287.82345398 20.84979797 288.44349304 21.43889954 289.08232117 22.04585266 C293.13260546 26.16862526 295.8165112 30.85513959 298.45341492 35.94819641 C298.94768982 36.88224304 298.94768982 36.88224304 299.45195007 37.8351593 C306.37510086 51.88508295 305.63898283 66.73709734 305.60746765 81.99848938 C305.61317697 84.49820764 305.62014339 86.9979233 305.62826538 89.49763489 C305.64429677 95.55757533 305.64631004 101.61736642 305.64105248 107.67731343 C305.63699461 112.60775843 305.63847341 117.53817292 305.64380074 122.46861649 C305.64454916 123.17301675 305.64529758 123.87741702 305.64606868 124.60316274 C305.64760032 126.03460884 305.64913866 127.46605493 305.65068365 128.89750101 C305.66437993 142.29109606 305.65899127 155.68463254 305.64749844 169.07822622 C305.63756917 181.30199259 305.6505065 193.52560752 305.67443263 205.74935053 C305.69887903 218.33479834 305.70841792 230.92017577 305.7017799 243.50564682 C305.69829994 250.5577886 305.70043836 257.60981403 305.71803093 264.66193771 C305.7343763 271.29574433 305.72948548 277.9293102 305.71072578 284.56312561 C305.70705459 286.9885719 305.71010514 289.41403978 305.72061157 291.83946609 C305.8124941 314.81636705 302.72940008 333.90059212 286.20341492 351.26069641 C267.69757418 368.87736762 247.49965902 370.8676368 223.20683289 370.7624054 C220.7035746 370.76619437 218.20031841 370.77169916 215.69706726 370.77877808 C209.63667926 370.79123445 203.57657432 370.78522097 197.516214 370.77010249 C190.44283207 370.75313661 183.36950094 370.75646582 176.29610492 370.76019657 C163.66767261 370.76605872 151.03934038 370.75196734 138.41093445 370.72724915 C126.1856359 370.70332303 113.96047096 370.69625098 101.7351532 370.70674133 C88.38639697 370.71817535 75.03770236 370.72005078 61.68894684 370.70564324 C60.26307623 370.70411757 58.83720561 370.70259721 57.41133499 370.70108223 C56.70997684 370.70032442 56.00861868 370.6995666 55.28600725 370.69878582 C50.36718977 370.69406296 45.44840001 370.6958801 40.52958298 370.70014763 C33.89905622 370.70561609 27.2686863 370.69473661 20.63818359 370.67319298 C18.21190129 370.66765139 15.78560124 370.6671355 13.35931778 370.67214584 C-15.395157 370.72405776 -15.395157 370.72405776 -28.85908508 363.76069641 C-29.52609436 363.42030334 -30.19310364 363.07991028 -30.88032532 362.72920227 C-43.67961831 355.84810886 -53.38460379 344.76861838 -59.60908508 331.76069641 C-59.89952698 331.15580383 -60.18996887 330.55091125 -60.48921204 329.9276886 C-64.2702502 321.59087341 -65.09314467 313.4542698 -65.07073975 304.37750244 C-65.07597642 303.3152945 -65.0812131 302.25308657 -65.08660847 301.15869051 C-65.10155045 297.61705162 -65.10231236 294.07555795 -65.10298157 290.53388977 C-65.11060703 287.98712421 -65.11903519 285.44036094 -65.12820435 282.89360046 C-65.1501201 275.98624796 -65.15896697 269.07894543 -65.16403079 262.17156291 C-65.16729686 257.85114193 -65.17382483 253.53072977 -65.18103218 249.2103138 C-65.20058904 237.22687411 -65.21699836 225.24344259 -65.21990871 213.25998592 C-65.22009628 212.49428047 -65.22028385 211.72857501 -65.22047711 210.93966636 C-65.22084334 209.38767787 -65.22120704 207.83568937 -65.22156822 206.28370088 C-65.22175103 205.51338723 -65.22193384 204.74307359 -65.22212219 203.94941711 C-65.22239302 202.79252115 -65.22239302 202.79252115 -65.22266931 201.61225355 C-65.22620775 189.12699483 -65.2532135 176.64190892 -65.29062008 164.15671008 C-65.3287978 151.31035772 -65.34806688 138.4640909 -65.34836823 125.61768061 C-65.3489507 118.41617582 -65.35730638 111.21487719 -65.38636589 104.01342583 C-65.41359711 97.2343301 -65.41470463 90.45570935 -65.39871025 83.67655563 C-65.39690235 81.19830879 -65.40352629 78.72003811 -65.41952896 76.24184227 C-65.55452013 53.96621562 -62.33000233 35.49685605 -46.37080383 18.64350891 C-33.28443044 6.53017391 -17.82339402 -0.06840482 0 0 Z " fill="#35C5F0" transform="translate(64.79658508300781,-0.2606964111328125)"/>
<path d="M0 0 C4.48148343 2.10136544 8.40549746 4.92938321 12.37890625 7.859375 C18.90162094 12.63307618 25.52872465 17.24633501 32.18603516 21.82983398 C37.14715776 25.25366816 42.05947713 28.71602183 46.8828125 32.33203125 C47.76912354 32.9854248 48.65543457 33.63881836 49.56860352 34.31201172 C51.23627169 35.54512542 52.89016813 36.79716745 54.52709961 38.07080078 C58.3510228 40.86911164 60.92344444 42.59805349 65.75 42.03515625 C67.25442059 41.74221249 68.75832748 41.44661875 70.26171875 41.1484375 C88.32864732 39.93564687 103.94669374 42.65609612 118.51171875 54.2734375 C128.11260329 63.28318478 135.93357606 76.41403093 136.59765625 89.71484375 C136.92792409 107.82001859 133.33160246 122.97367755 120.44921875 136.5234375 C109.24155746 147.1484375 109.24155746 147.1484375 102.26171875 147.1484375 C102.27837334 148.2614473 102.27837334 148.2614473 102.29536438 149.39694214 C102.39601628 156.42805701 102.47190989 163.45891766 102.52077961 170.4905529 C102.54675009 174.10469451 102.58191284 177.71823532 102.63891602 181.33203125 C102.69369175 184.82693412 102.72323337 188.32126328 102.73610497 191.81656265 C102.74968774 193.78292029 102.78864715 195.74905068 102.82820129 197.71505737 C102.83083554 206.22845169 101.60833449 213.18393228 95.85395813 219.75631714 C90.09506582 224.97505689 83.92571322 226.60078773 76.37452698 226.53611755 C75.22858587 226.54419586 75.22858587 226.54419586 74.05949444 226.55243737 C71.51548895 226.56667381 68.97200697 226.55962408 66.42797852 226.55249023 C64.59758081 226.55819606 62.76718666 226.56516114 60.9367981 226.57328796 C55.97603843 226.59121079 51.01545574 226.59005265 46.05467343 226.58434558 C41.90953582 226.58125254 37.76443214 226.58734745 33.61929935 226.59338433 C23.83886284 226.607425 14.05851369 226.60587199 4.27807617 226.59448242 C-5.80410388 226.58300076 -15.88601795 226.59707878 -25.96816295 226.6238789 C-34.63249534 226.64604592 -43.29674429 226.65267103 -51.96110302 226.64680248 C-57.13238684 226.64343423 -62.30350014 226.6458394 -67.47476006 226.66305351 C-72.33811092 226.67853656 -77.20106814 226.67455194 -82.06440353 226.65574837 C-83.84614932 226.6520663 -85.62792437 226.65515979 -87.40964317 226.66563416 C-89.84824832 226.67887245 -92.2855556 226.66727265 -94.72410583 226.64964294 C-95.4236356 226.65924795 -96.12316536 226.66885296 -96.84389299 226.67874902 C-103.52135435 226.57990452 -108.47497669 224.05167088 -113.48828125 219.8359375 C-119.8195633 212.27357283 -120.32387391 206.8905628 -120.27172852 197.17993164 C-120.28034409 195.88478134 -120.28895966 194.58963104 -120.2978363 193.25523376 C-120.32025868 189.71789883 -120.31740756 186.18101284 -120.30851483 182.64363408 C-120.30338932 179.68398037 -120.31071016 176.72440986 -120.31798691 173.76476473 C-120.33496332 166.77938118 -120.33144317 159.7942162 -120.31469727 152.80883789 C-120.29777801 145.61670717 -120.31361234 138.4251835 -120.34592015 131.23311907 C-120.37266172 125.04432358 -120.3798798 118.85571654 -120.37140507 112.6668691 C-120.36648906 108.9766339 -120.36861877 105.28676378 -120.38919258 101.59657478 C-120.41104977 97.47944685 -120.39209986 93.36346118 -120.36938477 89.24633789 C-120.38107697 88.03309845 -120.39276917 86.81985901 -120.40481567 85.56985474 C-120.31255583 77.34286821 -118.75888123 72.33005593 -113.04641056 66.38881016 C-107.72523878 61.29011047 -101.34223618 57.33614319 -95.2578125 53.21875 C-90.52774114 50.01707842 -85.8498002 46.74369792 -81.17578125 43.4609375 C-72.98032578 37.71358833 -64.77051941 31.98725454 -56.55029297 26.27539062 C-51.51213812 22.77457334 -46.47743177 19.26899241 -41.44921875 15.75390625 C-40.41966064 15.03509277 -39.39010254 14.3162793 -38.3293457 13.57568359 C-36.3684644 12.20646523 -34.40859866 10.83579081 -32.44995117 9.46337891 C-29.88927171 7.67683687 -27.31648072 5.90956527 -24.73828125 4.1484375 C-24.01479492 3.63925781 -23.29130859 3.13007812 -22.54589844 2.60546875 C-15.51652493 -2.13691644 -8.1437071 -2.53256512 0 0 Z " fill="#FDFEFE" transform="translate(193.73828125,69.8515625)"/>
<path d="M0 0 C6.25997819 3.29767529 12.00401078 6.98121446 17.6875 11.1875 C19.25104834 12.33107618 20.81485388 13.47430077 22.37890625 14.6171875 C23.14992676 15.18276367 23.92094727 15.74833984 24.71533203 16.33105469 C28.16606093 18.85180515 31.64391432 21.33392341 35.125 23.8125 C35.72272217 24.23877686 36.32044434 24.66505371 36.9362793 25.10424805 C38.29050284 26.06998971 39.64519103 27.03507978 41 28 C40.80664062 28.70125 40.61328125 29.4025 40.4140625 30.125 C39.86958323 32.10884527 39.33225744 34.09466294 38.80078125 36.08203125 C38.19225138 38.29945474 37.51734057 40.49878455 36.8125 42.6875 C33.42599069 56.99258241 36.72905827 70.85526389 43.875 83.4375 C51.2147157 94.66076148 59.66214374 100.71234732 72 106 C72 118.54 72 131.08 72 144 C25.14 144 -21.72 144 -70 144 C-70.350625 128.5725 -70.70125 113.145 -71.0625 97.25 C-71.21726807 92.39958008 -71.37203613 87.54916016 -71.53149414 82.55175781 C-71.60827637 76.57568359 -71.60827637 76.57568359 -71.62254333 73.76776123 C-71.64845906 71.82844508 -71.7078724 69.88938424 -71.79478455 67.95184326 C-72.4720437 52.04230515 -72.4720437 52.04230515 -68.34677696 46.96540451 C-64.32120312 43.3129945 -59.84649489 40.62750862 -55.05072308 38.10892773 C-52.19053653 36.56228294 -49.64014097 34.7317988 -47.01171875 32.8203125 C-45.23734965 31.58800805 -43.46261204 30.35623403 -41.6875 29.125 C-31.88582508 22.31642914 -22.10265654 15.48187924 -12.32958984 8.63232422 C-8.22080955 5.75333605 -4.11034335 2.87675595 0 0 Z " fill="#35C5F0" transform="translate(184,112)"/>
<path d="M0 0 C1.39836594 -0.01062721 1.39836594 -0.01062721 2.82498169 -0.02146912 C3.84067734 -0.0189917 4.85637299 -0.01651428 5.90284729 -0.01396179 C6.97804626 -0.01907272 8.05324524 -0.02418365 9.161026 -0.02944946 C12.71898447 -0.04336166 16.2767496 -0.04238748 19.83473206 -0.04008484 C22.30568514 -0.04397078 24.77663756 -0.04830524 27.24758911 -0.05307007 C32.42843287 -0.06053573 37.60920848 -0.0602384 42.79005432 -0.05497742 C49.43261832 -0.04918147 56.07490362 -0.06611543 62.71742153 -0.08932209 C67.82089878 -0.10404601 72.9243087 -0.10493296 78.02780342 -0.10181236 C80.47704178 -0.10232622 82.92628384 -0.10757595 85.37550163 -0.11762428 C88.79886421 -0.12994543 92.2216811 -0.12322258 95.64503479 -0.11161804 C96.65870621 -0.11926178 97.67237762 -0.12690552 98.71676636 -0.13478088 C107.58188238 -0.06827986 107.58188238 -0.06827986 111.33863831 3.26069641 C114.00919347 6.76938396 114.71730558 9.32012619 114.74269104 13.69013977 C114.7617173 15.28220497 114.7617173 15.28220497 114.78112793 16.90643311 C114.77819229 18.04298843 114.77525665 19.17954376 114.77223206 20.35054016 C114.77747391 21.52782181 114.78271576 22.70510345 114.78811646 23.9180603 C114.79453361 26.40522982 114.79320366 28.8924297 114.78468323 31.3795929 C114.77617677 35.18100647 114.80493619 38.98091573 114.83668518 42.78218079 C114.8382974 45.20080013 114.83771927 47.61942213 114.83473206 50.03804016 C114.84596603 51.17257126 114.85720001 52.30710236 114.86877441 53.47601318 C114.8142455 59.66383023 114.66661609 63.65558329 110.33863831 68.26069641 C107.57134042 69.92072456 105.53960096 70.5098882 102.32698059 70.50120544 C101.53896561 70.50395477 100.75095062 70.5067041 99.9390564 70.50953674 C99.08381882 70.50234619 98.22858124 70.49515564 97.34742737 70.48774719 C96.4397612 70.48803925 95.53209503 70.4883313 94.59692383 70.4886322 C91.5992728 70.48723979 88.60187087 70.47168266 85.60426331 70.45600891 C83.52489864 70.45227847 81.44553221 70.44943164 79.36616516 70.44743347 C73.89496502 70.43979949 68.42387117 70.42015295 62.95271301 70.39802551 C57.36912982 70.37756207 51.78552944 70.36843068 46.20191956 70.35835266 C35.24744579 70.3369069 24.29305089 70.30277372 13.33863831 70.26069641 C13.46476009 72.3536413 13.60076591 74.44599226 13.74098206 76.53804016 C13.81566711 77.70327209 13.89035217 78.86850403 13.96730042 80.06904602 C14.4484871 84.20484718 15.38765527 86.30971338 18.33863831 89.26069641 C27.56779262 95.3793597 37.60066047 95.64932069 48.33863831 95.63569641 C48.99592926 95.63581726 49.65322021 95.63593811 50.33042908 95.63606262 C67.90327692 95.59036987 84.73414303 92.4732663 101.68238831 87.99507141 C107.086107 86.90970911 111.60053638 86.37524826 116.65113831 88.94819641 C120.01231936 91.84037546 122.02832958 93.89459235 122.61988831 98.40522766 C122.80848353 103.14368274 122.52559151 106.52426851 119.33863831 110.26069641 C115.92237678 112.57566069 112.87446433 113.83303388 108.86598206 114.76069641 C107.28369812 115.12965027 107.28369812 115.12965027 105.66944885 115.50605774 C104.54965637 115.7550885 103.42986389 116.00411926 102.27613831 116.26069641 C101.11960754 116.52197327 99.96307678 116.78325012 98.77149963 117.05244446 C67.97859456 123.85451633 31.22861788 129.68896437 2.99879456 112.17085266 C-6.51355752 105.3403972 -11.34813612 95.7087913 -13.27098083 84.35762024 C-13.95762859 78.91038651 -13.98969231 73.49442105 -13.97386169 68.01069641 C-13.98997498 66.87889954 -14.00608826 65.74710266 -14.02268982 64.58100891 C-14.02920902 53.446221 -14.02920902 53.446221 -10.66136169 48.26069641 C-5.13979438 44.34745502 -1.0886509 43.69177899 5.57862854 43.80659485 C6.47697922 43.80601074 7.3753299 43.80542664 8.30090332 43.80482483 C11.25008201 43.80759638 14.19823142 43.83864427 17.14723206 43.87007141 C19.19988452 43.87753711 21.25254414 43.88322849 23.3052063 43.88722229 C28.69267147 43.90245267 34.07970136 43.94171231 39.46699524 43.98603821 C44.97037366 44.02704684 50.47382282 44.04524525 55.97731018 44.06538391 C66.76464101 44.10820904 77.55153526 44.17853785 88.33863831 44.26069641 C88.33863831 38.32069641 88.33863831 32.38069641 88.33863831 26.26069641 C85.55281311 26.28164368 82.76698792 26.30259094 79.89674377 26.32417297 C70.68870073 26.39047488 61.4806471 26.43464463 52.27242851 26.4679451 C46.68987773 26.48881285 41.10757168 26.5171161 35.52516174 26.56245422 C30.13702618 26.60594029 24.74912591 26.62983963 19.3608284 26.64020538 C17.30592775 26.64759174 15.25103986 26.6620156 13.19623947 26.68361664 C10.31617737 26.71268697 7.43708542 26.71665085 4.55690002 26.71479797 C3.28482948 26.73636963 3.28482948 26.73636963 1.98706055 26.75837708 C-3.35991725 26.72119634 -6.4488411 25.86043071 -10.66136169 22.26069641 C-13.9132037 16.8059937 -14.10909812 13.24467362 -12.66136169 7.26069641 C-9.3831708 2.0608074 -6.1059151 0.01550606 0 0 Z " fill="#000000" transform="translate(613.6613616943359,191.7393035888672)"/>
<path d="M0 0 C3.58396526 2.21138282 5.39106714 4.15804561 7 8 C7.25299966 9.97106874 7.25299966 9.97106874 7.25726891 12.08304405 C7.2637178 12.89197243 7.27016669 13.70090081 7.276811 14.53434217 C7.2721652 15.85893963 7.2721652 15.85893963 7.26742554 17.21029663 C7.27195665 18.15278153 7.27648776 19.09526643 7.28115618 20.06631148 C7.29384151 23.23224542 7.29217714 26.39800826 7.29052734 29.56396484 C7.29650999 31.83065513 7.30331492 34.09734338 7.31088257 36.36402893 C7.32857612 42.52723238 7.33323935 48.69038032 7.33451414 54.8536067 C7.33641146 59.99539199 7.34376704 65.13716431 7.35085833 70.27894461 C7.36622138 81.71488889 7.3721951 93.15079695 7.37084763 104.58674888 C7.37076772 105.27290691 7.3706878 105.95906493 7.37060547 106.66601562 C7.37052371 107.35301177 7.37044195 108.04000791 7.37035771 108.74782212 C7.36954476 119.88216438 7.38868452 131.01637137 7.4168822 142.15067451 C7.4456094 153.58431268 7.45905631 165.01785748 7.45769465 176.45153773 C7.45718419 182.87029422 7.46291377 189.28889765 7.48405075 195.70762253 C7.50338472 201.74377615 7.5035906 207.77962993 7.48901749 213.81579399 C7.48692231 216.03216043 7.49167222 218.2485454 7.5037384 220.46487999 C7.51913623 223.48885332 7.50991844 226.51178574 7.49447632 229.53573608 C7.50476344 230.41433961 7.51505057 231.29294314 7.52564943 232.19817102 C7.46443502 237.61669146 6.59606451 240.69493825 3 245 C-0.5618282 247.96819017 -3.57367107 248.47095651 -8.07421875 248.29296875 C-12.21890818 247.6624379 -15.36978814 245.15625423 -18 242 C-18.94337376 239.16987873 -19.12172829 237.45700082 -19.11352539 234.52856445 C-19.11341209 233.17750359 -19.11341209 233.17750359 -19.11329651 231.79914856 C-19.10813522 230.83031235 -19.10297394 229.86147614 -19.09765625 228.86328125 C-19.0962413 227.86870407 -19.09482635 226.87412689 -19.09336853 225.84941101 C-19.08776761 222.67041018 -19.07521496 219.49147957 -19.0625 216.3125 C-19.05748512 214.15820414 -19.05292219 212.00390718 -19.04882812 209.84960938 C-19.03779788 204.56638226 -19.02105886 199.28319615 -19 194 C-19.56349152 194.11233475 -20.12698303 194.22466949 -20.70755005 194.34040833 C-31.73843125 196.52627475 -42.67945781 198.56103495 -53.875 199.6875 C-54.94234375 199.80416016 -56.0096875 199.92082031 -57.109375 200.04101562 C-72.91621086 201.71835972 -88.64952205 202.29311647 -104.53662109 202.4050293 C-106.86001259 202.42681212 -109.18331784 202.46114658 -111.50634766 202.50756836 C-114.90042752 202.57444092 -118.29285548 202.60197905 -121.6875 202.62109375 C-123.23606689 202.66283974 -123.23606689 202.66283974 -124.81591797 202.70542908 C-130.91785208 202.68801358 -134.32416785 201.86621708 -138.76879883 197.58363342 C-141.6321095 193.90069795 -141.47100274 189.44835919 -141 185 C-139.11098666 180.38241183 -136.33512282 178.35214767 -132 176 C-128.76344399 175.43174369 -125.58072467 175.44198076 -122.30078125 175.4609375 C-120.89143311 175.44453972 -120.89143311 175.44453972 -119.45361328 175.42781067 C-117.44624982 175.40578362 -115.43878018 175.39211151 -113.43130493 175.38607788 C-108.19321362 175.36747237 -102.95619684 175.27948839 -97.71875 175.19921875 C-96.6910701 175.18496353 -95.6633902 175.17070831 -94.60456848 175.15602112 C-71.64281922 174.81322896 -48.10906475 173.08102147 -25.78672791 167.45774841 C-24.70376906 167.18541099 -23.62081022 166.91307356 -22.50503445 166.63248348 C-21.67837308 166.42376393 -20.85171171 166.21504438 -20 166 C-19.99853344 165.19124105 -19.99706688 164.38248211 -19.99555588 163.54921532 C-19.95850193 143.86902194 -19.89950596 124.18900097 -19.81609726 104.50894737 C-19.77629032 94.99180189 -19.74390624 85.47473929 -19.72900391 75.95751953 C-19.71599597 67.66216402 -19.68905327 59.36699076 -19.64538693 51.07173789 C-19.62275277 46.67955016 -19.60709049 42.28758738 -19.60811615 37.89533615 C-19.60886161 33.76004003 -19.59095691 29.62524153 -19.55883217 25.49007416 C-19.55032298 23.97358851 -19.54859019 22.4570471 -19.55419731 20.94054794 C-19.560844 18.86639155 -19.5429046 16.79381542 -19.51898193 14.71981812 C-19.51345118 12.98039475 -19.51345118 12.98039475 -19.50780869 11.20583153 C-18.88460296 7.27149048 -17.4538535 5.10373015 -15 2 C-10.08715913 -1.54181551 -5.672626 -1.54898275 0 0 Z " fill="#000000" transform="translate(896,60)"/>
<path d="M0 0 C2.25 1.8125 2.25 1.8125 6.25 6.8125 C6.25 14.7325 6.25 22.6525 6.25 30.8125 C30.67 30.8125 55.09 30.8125 80.25 30.8125 C80.25 23.5525 80.25 16.2925 80.25 8.8125 C83.98170732 1.34908537 83.98170732 1.34908537 89.25 -1.1875 C94.0441994 -2.02949201 97.33321646 -1.65422616 101.6875 0.5625 C105.17808691 3.62740558 106.1359176 5.41849591 106.51742554 10.08024597 C106.52504913 11.37658463 106.53267273 12.67292328 106.54052734 14.00854492 C106.54724457 14.72619019 106.55396179 15.44383545 106.56088257 16.18322754 C106.5798613 18.55321201 106.58378729 20.92291303 106.5859375 23.29296875 C106.59236776 24.94721084 106.5990963 26.6014518 106.60610962 28.25569153 C106.61808366 31.72493116 106.62179054 35.19407124 106.62060547 38.66333008 C106.62040278 43.09055581 106.64765146 47.51713597 106.68214989 51.9442091 C106.70448773 55.36307148 106.70844084 58.78178053 106.70738602 62.20070839 C106.70973368 63.83166023 106.71850983 65.46261684 106.73405075 67.09349632 C106.87456422 83.36899273 106.87456422 83.36899273 102.25 90.8125 C101.87169037 91.46175949 101.49338074 92.11101898 101.10360718 92.779953 C96.92085764 99.69040942 89.85784828 103.66168129 82.25 105.8125 C79.66418654 106.01414389 77.18359592 106.12637852 74.59912109 106.13476562 C73.85674194 106.14469543 73.11436279 106.15462524 72.3494873 106.16485596 C69.90743207 106.19392467 67.46563692 106.20767583 65.0234375 106.21875 C64.18337788 106.22440475 63.34331825 106.23005951 62.47780228 106.23588562 C58.02897142 106.2658058 53.58026911 106.28430271 49.13134766 106.29296875 C44.56521086 106.30390706 40.00027626 106.35191105 35.434515 106.40891266 C31.89800738 106.44640917 28.36178181 106.4565895 24.82509232 106.4596405 C23.14354532 106.46564368 21.46200028 106.48152997 19.78065109 106.50801086 C8.20276667 106.67729267 -1.10084608 105.67921135 -10.21084595 97.64123535 C-17.99710215 89.94249136 -20.15327381 80.58393276 -20.27619267 69.90699863 C-20.2802403 67.65908628 -20.2641635 65.41189783 -20.24609375 63.1640625 C-20.24624906 61.5775038 -20.24774331 59.99094473 -20.25050354 58.40438843 C-20.25187898 55.10128738 -20.23946602 51.79862512 -20.21655273 48.49560547 C-20.18802977 44.26889045 -20.19095453 40.04289539 -20.20364285 35.81612587 C-20.21060194 32.54924388 -20.2028105 29.28252776 -20.19038582 26.01566696 C-20.18588338 24.4567974 -20.18552393 22.89790997 -20.18945122 21.33903885 C-20.19236942 19.16396819 -20.17583415 16.98988679 -20.15405273 14.81494141 C-20.14864975 13.58015045 -20.14324677 12.3453595 -20.13768005 11.07315063 C-19.5713678 6.31008279 -17.42077077 2.87147564 -13.75 -0.1875 C-8.97635638 -1.77871454 -4.59983145 -1.98629085 0 0 Z M6.25 56.8125 C4.37591486 73.53708094 4.37591486 73.53708094 10.25 79.8125 C13.27435305 80.56101714 13.27435305 80.56101714 16.69921875 80.44360352 C18.00737549 80.45613663 19.31553223 80.46866974 20.66333008 80.48158264 C22.08806351 80.46931436 23.51278742 80.45589434 24.9375 80.44140625 C26.40193864 80.44223514 27.86637719 80.44469527 29.33081055 80.44871521 C32.3975836 80.45157193 35.4636258 80.43688592 38.53027344 80.40942383 C42.45817328 80.37533984 46.38476648 80.38135963 50.31272888 80.4000864 C53.33600728 80.41066322 56.35898245 80.40171267 59.38223267 80.38670158 C60.83028258 80.38152422 62.27836423 80.3819962 63.72640991 80.38824654 C65.75124209 80.39370583 67.77609007 80.37045785 69.80078125 80.34594727 C70.95231689 80.33974869 72.10385254 80.33355011 73.2902832 80.3271637 C76.82483002 80.00501943 76.82483002 80.00501943 80.25 75.8125 C80.25 69.5425 80.25 63.2725 80.25 56.8125 C55.83 56.8125 31.41 56.8125 6.25 56.8125 Z " fill="#000000" transform="translate(973.75,205.1875)"/>
<path d="M0 0 C15.31064719 12.08383928 21.72840054 30.17547158 24 49 C24.29141833 54.08676186 24.33404085 59.15574431 24.3125 64.25 C24.31067719 64.93253845 24.30885437 65.6150769 24.30697632 66.31829834 C24.20898505 88.11066359 20.07832082 108.2768279 4.8125 124.8125 C-4.75515432 133.84682223 -17.49035279 137.79572072 -30.5 138.375 C-45.2381164 137.71875734 -58.55686012 132.74971752 -68.6796875 121.89453125 C-82.01854951 105.25463773 -85.40064272 85.59511517 -85.3125 64.75 C-85.31067719 64.06746155 -85.30885437 63.3849231 -85.30697632 62.68170166 C-85.20898505 40.88933641 -81.07832082 20.7231721 -65.8125 4.1875 C-48.1339371 -12.50560247 -19.86720994 -12.9964665 0 0 Z M-47.6875 24.25 C-60.05633578 38.9588858 -59.8898972 57.63749748 -59 76 C-58.0527225 86.2844244 -55.31181025 95.91427509 -48.5625 103.875 C-40.48859764 110.57043123 -34.34987611 111.88188293 -24 111 C-16.25763657 108.73514329 -11.19000931 103.05782995 -7.1328125 96.30859375 C0.98051339 79.77419513 0.33619129 55.28415743 -5 38 C-8.35566201 29.27066618 -12.96366863 23.89167996 -21 19 C-30.8669332 15.71102227 -39.93696629 17.76118108 -47.6875 24.25 Z " fill="#000000" transform="translate(542,72)"/>
<path d="M0 0 C13.16107299 11.13780356 19.36776627 27.33745077 21.26074219 44.25048828 C23.34488085 69.81856069 22.85289275 97.51844366 6.59375 118.6796875 C0.666212 125.47762606 -7.57598307 130.40912316 -16.5078125 132.08984375 C-31.61945261 133.01432056 -41.93036299 130.52804019 -53.4453125 120.3828125 C-66.39360328 107.11659493 -69.97267714 85.86564452 -70.5078125 68.08984375 C-70.54777344 67.166875 -70.58773437 66.24390625 -70.62890625 65.29296875 C-71.13209795 43.86292244 -67.94679662 19.90216486 -52.7578125 3.71484375 C-38.26768801 -9.97148074 -16.14886458 -12.30030339 0 0 Z M-35.87890625 25.0078125 C-46.06568263 42.08653255 -46.33490684 66.90226676 -41.8203125 85.77734375 C-39.94048941 92.90316498 -37.24151066 98.20837812 -32.1953125 103.52734375 C-28.6275956 105.60159776 -25.62381939 106.26032924 -21.5078125 106.08984375 C-16.04316806 104.55974331 -13.68598668 101.17916141 -10.82421875 96.5390625 C-8.82329936 92.81628369 -7.51432321 89.18920858 -6.5078125 85.08984375 C-6.30285156 84.26613281 -6.09789062 83.44242187 -5.88671875 82.59375 C-2.3807569 65.54752171 -2.26329938 41.45039146 -11.5078125 26.08984375 C-14.38646513 22.47190078 -17.23537832 19.64737836 -21.81640625 18.5234375 C-27.86926103 18.20701507 -32.25522319 19.93878577 -35.87890625 25.0078125 Z " fill="#000000" transform="translate(836.5078125,70.91015625)"/>
<path d="M0 0 C0.83965302 -0.00686325 1.67930603 -0.0137265 2.54440308 -0.02079773 C5.31305979 -0.03906153 8.08114962 -0.03522883 10.84985352 -0.02954102 C12.77889693 -0.03410307 14.70793872 -0.03940871 16.63697815 -0.04542542 C20.67781176 -0.05435573 24.71844772 -0.05193433 28.75927734 -0.04199219 C33.93222838 -0.03050352 39.1044967 -0.05071289 44.27735806 -0.07990932 C48.26056741 -0.09827407 52.24361325 -0.09797829 56.22685432 -0.0922718 C58.13379944 -0.09211862 60.04075566 -0.09816068 61.94766045 -0.11056328 C64.61658161 -0.12547642 67.28424269 -0.11479416 69.953125 -0.09765625 C70.73721237 -0.10732422 71.52129974 -0.11699219 72.32914734 -0.12695312 C77.50792201 -0.05747829 80.40893042 1.02624595 84.54125977 4.40405273 C87.4199224 7.8584479 87.89956256 10.77028359 88.03735352 15.24389648 C86.74038857 20.89131076 82.10179932 25.18008587 78.22875977 29.27905273 C77.2423851 30.33829941 76.25670673 31.3981949 75.27172852 32.45874023 C74.79912598 32.96630859 74.32652344 33.47387695 73.83959961 33.99682617 C71.65082826 36.36916127 69.54788132 38.81299425 67.44750977 41.26342773 C65.87807927 43.025821 64.27656076 44.72564748 62.63500977 46.41967773 C62.12518555 46.95334961 61.61536133 47.48702148 61.09008789 48.03686523 C60.0729885 49.09885552 59.04585881 50.15134694 58.00805664 51.19311523 C55.26422007 53.95186816 55.26422007 53.95186816 54.54907227 57.61499023 C55.94636234 60.13451329 58.12086446 61.53642826 60.31860352 63.34155273 C67.77098546 70.25694407 73.57484166 78.75780383 78.16625977 87.77905273 C78.66210571 88.74077393 78.66210571 88.74077393 79.16796875 89.72192383 C81.81646346 95.21735546 83.48122585 100.68859514 81.41625977 106.65405273 C78.52473105 110.89496152 76.15151032 112.95676092 71.16625977 114.34155273 C66.77983306 114.41718078 64.34945876 113.55963707 60.54125977 111.40405273 C57.56034497 108.09192519 55.6705692 104.8273188 53.85375977 100.77905273 C49.53671081 91.91544083 43.46817018 84.29842202 35.54125977 78.40405273 C31.1086411 82.02251695 27.26035054 85.7140406 23.55688477 90.06811523 C20.64901927 93.43808338 17.62656424 96.70165494 14.59350586 99.95874023 C11.88223207 102.88359562 9.3710298 105.8892306 6.91625977 109.02905273 C3.93874844 112.432938 1.29575934 113.78482242 -3.18530273 114.41186523 C-7.11414988 114.39836404 -10.19427335 113.62212166 -13.45874023 111.40405273 C-16.42170322 108.15731301 -17.36434189 105.17272498 -17.89624023 100.84155273 C-16.93117678 93.25891133 -12.31854679 88.77885399 -7.20874023 83.52905273 C-5.91051136 82.17879063 -4.61363244 80.82722928 -3.31811523 79.47436523 C-2.67616211 78.804375 -2.03420898 78.13438477 -1.37280273 77.4440918 C1.12609812 74.78072247 3.52045558 72.0348156 5.91137695 69.2746582 C8.23857546 66.60374824 10.63721186 64.00608105 13.04125977 61.40405273 C16.08094972 58.10452497 19.10284036 54.79453666 22.04125977 51.40405273 C25.83423201 47.0275463 29.76782824 42.7823551 33.69750977 38.52905273 C35.90792134 36.12015117 38.06862335 33.67136358 40.21899414 31.20874023 C40.84302124 30.49443848 41.46704834 29.78013672 42.10998535 29.04418945 C42.58230591 28.50294434 43.05462646 27.96169922 43.54125977 27.40405273 C42.90312347 27.4004071 42.26498718 27.39676147 41.60751343 27.39300537 C34.95599155 27.35114259 28.30515725 27.28176998 21.65405273 27.1965332 C19.17300295 27.16833577 16.69186354 27.14711519 14.21069336 27.13305664 C10.64072829 27.11161112 7.07183949 27.06494931 3.50219727 27.01342773 C2.39572845 27.0121991 1.28925964 27.01097046 0.14926147 27.00970459 C-6.01464221 26.89290592 -9.7809346 26.55460519 -14.45874023 22.40405273 C-17.34390365 18.94185663 -17.99791889 15.91608389 -17.81030273 11.39624023 C-17.05680248 7.12640545 -14.68415255 4.35544071 -11.34288025 1.76133728 C-7.55110795 -0.02308161 -4.10576287 -0.02351155 0 0 Z " fill="#000000" transform="translate(946.458740234375,65.595947265625)"/>
<path d="M0 0 C3.17290685 1.66800009 4.27430782 4.08619515 5.61764526 7.33680725 C6.78363244 11.21023568 6.61516121 15.07690574 6.54296875 19.08984375 C6.53872391 19.98997696 6.53447906 20.89011017 6.53010559 21.81752014 C6.51341816 24.67032786 6.47578497 27.52240863 6.4375 30.375 C6.4224403 32.31834912 6.40875415 34.26170939 6.39648438 36.20507812 C6.36354726 40.94949549 6.3118344 45.69337483 6.25 50.4375 C6.8232753 50.42417633 7.3965506 50.41085266 7.98719788 50.39712524 C13.97325115 50.26401377 19.95888172 50.17373692 25.94604492 50.10791016 C28.17798957 50.07780343 30.40981655 50.03690802 32.64135742 49.98486328 C35.85625279 49.91178119 39.06957956 49.87798172 42.28515625 49.8515625 C43.27709488 49.82059479 44.26903351 49.78962708 45.29103088 49.75772095 C51.31680647 49.75481722 54.61449968 50.64272459 59.00657654 54.85263062 C61.49108869 58.01939348 61.59211903 61.45969431 61.52734375 65.375 C61.0583752 68.86254073 59.54403799 70.8416149 57.25 73.4375 C51.70300964 77.17338816 46.36726549 76.86249225 39.92382812 76.82568359 C38.79142197 76.83094055 37.65901581 76.83619751 36.49229431 76.84161377 C32.75513857 76.85479999 29.01840996 76.84608015 25.28125 76.8359375 C22.68102944 76.83795862 20.08080944 76.84087038 17.48059082 76.84463501 C12.03338699 76.84905652 6.58634322 76.84291972 1.13916016 76.82861328 C-5.14911745 76.81228801 -11.43710321 76.81757703 -17.72537374 76.8340925 C-23.78664763 76.84937167 -29.84777929 76.84772293 -35.90907288 76.8389473 C-38.48307842 76.83694655 -41.05709142 76.83940013 -43.63108826 76.84638596 C-47.2288687 76.85400754 -50.82608935 76.84238534 -54.42382812 76.82568359 C-56.01838585 76.83479263 -56.01838585 76.83479263 -57.64515686 76.84408569 C-63.08513292 76.79731965 -67.089886 76.57607851 -71.75 73.4375 C-74.61985359 70.1900341 -76.00126393 67.66652681 -76.1875 63.375 C-75.62008903 58.2683013 -74.21310124 56.03334265 -70.80981445 52.32128906 C-66.27400177 49.5287948 -62.20333269 49.9392915 -56.98046875 50.046875 C-55.94432938 50.05253479 -54.90819 50.05819458 -53.84065247 50.06402588 C-50.53912692 50.08637334 -47.23869619 50.13656822 -43.9375 50.1875 C-41.69597924 50.20756704 -39.45444143 50.22581745 -37.21289062 50.2421875 C-31.7248884 50.28623267 -26.23752243 50.35312882 -20.75 50.4375 C-20.77094727 49.23738281 -20.79189453 48.03726563 -20.81347656 46.80078125 C-20.88623187 42.32059807 -20.93192832 37.84046645 -20.96972656 33.35986328 C-20.98976141 31.42585448 -21.01699729 29.49190565 -21.05175781 27.55810547 C-21.10063571 24.76775257 -21.12305019 21.97820499 -21.140625 19.1875 C-21.17159271 17.904198 -21.17159271 17.904198 -21.20318604 16.5949707 C-21.20532274 10.79395114 -20.14849831 6.23202859 -16.75 1.4375 C-11.42218809 -2.35116624 -5.88940443 -2.87650911 0 0 Z " fill="#000000" transform="translate(518.75,223.5625)"/>
<path d="M0 0 C4.47157338 2.27797134 6.86299894 4.48838159 9 9 C9.25164884 11.72556438 9.35155913 14.20926454 9.29296875 16.92578125 C9.28872391 17.67337204 9.28447906 18.42096283 9.28010559 19.19120789 C9.26339056 21.56534732 9.22575347 23.93861967 9.1875 26.3125 C9.17244381 27.92772206 9.15875703 29.54295751 9.14648438 31.15820312 C9.1135108 35.10579988 9.06177969 39.05275322 9 43 C10.06409088 42.98889694 11.12818176 42.97779388 12.22451782 42.96635437 C22.25896438 42.8649385 32.29330677 42.79001542 42.3281498 42.74093914 C47.48705044 42.71486002 52.64553693 42.67949245 57.80419922 42.62280273 C62.78386879 42.56842329 67.76314034 42.53856678 72.74308395 42.52561378 C74.6417098 42.51638458 76.54031418 42.49836178 78.43877029 42.47134972 C81.10109551 42.43498005 83.76178221 42.43005788 86.42431641 42.43237305 C87.20690826 42.41439667 87.98950012 42.39642029 88.79580688 42.37789917 C94.52743803 42.43172786 96.97101153 43.9270122 101 48 C103.30551518 51.03908819 103.42194607 54.1943307 103.31640625 57.97265625 C102.65043386 62.23981268 100.23647602 64.99932119 96.97019958 67.64271545 C92.69324889 69.59714273 88.8152954 69.42665391 84.16430664 69.40405273 C82.68537178 69.41434761 82.68537178 69.41434761 81.17655945 69.42485046 C77.92094477 69.44313528 74.66581121 69.43927845 71.41015625 69.43359375 C69.1448094 69.43815474 66.87946393 69.44346007 64.61412048 69.44947815 C59.86712013 69.45841258 55.12028799 69.45598225 50.37329102 69.44604492 C44.29236607 69.43455517 38.2120218 69.45476565 32.13117313 69.48396206 C27.45312313 69.50231487 22.77521251 69.50203338 18.09713554 69.49632454 C15.85526146 69.49617121 13.613378 69.50222494 11.37153816 69.51461601 C8.235685 69.52950627 5.10090757 69.51886261 1.96508789 69.50170898 C0.57856522 69.51621094 0.57856522 69.51621094 -0.83596802 69.53100586 C-6.38249726 69.46752687 -9.6458665 68.76665357 -14 65 C-16.89333383 61.98653171 -17.38391499 59.92691353 -17.43579102 55.79174805 C-17.45493057 54.75354416 -17.47407013 53.71534027 -17.49378967 52.64567566 C-17.49712814 51.52896988 -17.50046661 50.4122641 -17.50390625 49.26171875 C-17.51389145 48.10758987 -17.52387665 46.953461 -17.53416443 45.76435852 C-17.54935088 43.32251572 -17.55639006 40.88061068 -17.5559082 38.4387207 C-17.56245809 34.71135173 -17.61690825 30.98666191 -17.67382812 27.25976562 C-17.68263262 24.88542576 -17.68858521 22.51107326 -17.69140625 20.13671875 C-17.7129628 19.02608566 -17.73451935 17.91545258 -17.75672913 16.77116394 C-17.70127842 10.47710087 -17.04730584 6.77867008 -12.5811615 2.20222473 C-8.90221503 -0.59503566 -4.4182913 -0.60249427 0 0 Z " fill="#000000" transform="translate(624,55)"/>
<path d="M0 0 C1.20984055 -0.00990463 2.41968109 -0.01980927 3.66618347 -0.03001404 C5.64483902 -0.02326157 5.64483902 -0.02326157 7.66346741 -0.01637268 C9.07317648 -0.02207782 10.48288094 -0.02904265 11.89257812 -0.03717041 C15.71494377 -0.05510141 19.53707984 -0.05393358 23.3594749 -0.04822803 C26.55282382 -0.04513601 29.74612866 -0.05122878 32.9394713 -0.05726677 C40.47413497 -0.07131025 48.00868524 -0.06975227 55.54335022 -0.05836487 C63.31137456 -0.04688406 71.07905364 -0.0609589 78.84703249 -0.08776134 C85.52150652 -0.10992686 92.19587224 -0.11655381 98.87038046 -0.11068493 C102.85451721 -0.10731613 106.83843265 -0.10972513 110.82253838 -0.12693596 C114.56964202 -0.14241673 118.31623471 -0.13843755 122.06331825 -0.11963081 C124.08985312 -0.11419496 126.11641099 -0.12845046 128.14289856 -0.14332581 C139.25314689 -0.05322663 139.25314689 -0.05322663 143.9723053 4.38768005 C146.9109406 8.59661881 146.48456445 13.45718571 145.9723053 18.38768005 C144.23415177 22.68732299 142.05532189 24.32607926 137.9723053 26.38768005 C135.12492466 26.76799679 135.12492466 26.76799679 131.9446106 26.77536011 C130.12984978 26.79021706 130.12984978 26.79021706 128.27842712 26.80537415 C126.95932343 26.8008725 125.64021973 26.79637085 124.28114319 26.79173279 C122.87143411 26.79743793 121.46172966 26.80440275 120.05203247 26.81253052 C116.22966683 26.83046152 112.40753076 26.82929369 108.5851357 26.82358813 C105.39178678 26.82049612 102.19848194 26.82658889 99.00513929 26.83262688 C91.47047563 26.84667035 83.93592535 26.84511238 76.40126038 26.83372498 C68.63323603 26.82224417 60.86555695 26.836319 53.09757811 26.86312145 C46.42310408 26.88528697 39.74873836 26.89191392 33.07423013 26.88604504 C29.09009339 26.88267623 25.10617795 26.88508524 21.12207222 26.90229607 C17.37496857 26.91777684 13.62837589 26.91379766 9.88129234 26.89499092 C7.85475747 26.88955506 5.8281996 26.90381056 3.80171204 26.91868591 C-7.2831032 26.82879299 -7.2831032 26.82879299 -12.0276947 22.38768005 C-14.91285812 18.92548395 -15.56687335 15.89971121 -15.3792572 11.37986755 C-14.6152509 7.05049854 -12.23342106 4.26161022 -8.75989437 1.74394131 C-5.5905684 0.17069098 -3.52582638 0.00816328 0 0 Z " fill="#000000" transform="translate(600.0276947021484,144.61231994628906)"/>
<path d="M0 0 C3.92493769 2.11342799 6.63517959 4.23082301 9 8 C9.38031673 10.24298763 9.38031673 10.24298763 9.38768005 12.73728943 C9.39758469 13.68636169 9.40748932 14.63543396 9.41769409 15.61326599 C9.41094162 17.16486168 9.41094162 17.16486168 9.40405273 18.74780273 C9.41091599 19.84250885 9.41777924 20.93721497 9.42485046 22.06509399 C9.44316964 25.68805874 9.4392735 29.31059257 9.43359375 32.93359375 C9.43815309 35.44938804 9.44345792 37.96518107 9.44947815 40.48097229 C9.45841933 45.75599093 9.45620795 51.03089744 9.44604492 56.3059082 C9.4345653 62.39882562 9.44863668 68.49130278 9.4754414 74.58416218 C9.50028343 80.4510849 9.50277414 86.31783646 9.49632454 92.1848011 C9.49617101 94.67869868 9.50224163 97.1726046 9.51461601 99.66647148 C9.52947443 103.15224943 9.51888559 106.63705544 9.50170898 110.12280273 C9.51137695 111.15517563 9.52104492 112.18754852 9.53100586 113.25120544 C9.48519122 117.68581882 9.45544417 120.26013043 7.09217834 124.09925842 C2.97340159 127.84116228 -0.30125654 128.45588799 -5.75 128.3125 C-9.33869577 127.81407003 -11.34389601 126.4031417 -14 124 C-17.54365065 118.60891694 -17.43274296 113.74453656 -17.40405273 107.51586914 C-17.41091599 106.47285141 -17.41777924 105.42983368 -17.42485046 104.35520935 C-17.44311841 100.9150523 -17.43928084 97.47535129 -17.43359375 94.03515625 C-17.4381555 91.63911287 -17.44346106 89.2430708 -17.44947815 86.84703064 C-17.45840925 81.8277352 -17.45598597 76.80859887 -17.44604492 71.78930664 C-17.43455493 65.36213088 -17.45476786 58.93550451 -17.48396206 52.50840092 C-17.50232161 47.56095398 -17.50203204 42.61363876 -17.49632454 37.66616631 C-17.4961713 35.2967292 -17.50221785 32.92728317 -17.51461601 30.55787849 C-17.52951906 27.24274505 -17.5188529 23.92862739 -17.50170898 20.61352539 C-17.51137695 19.63823883 -17.52104492 18.66295227 -17.53100586 17.65811157 C-17.46534554 11.58438055 -16.59087802 7.95280391 -13 3 C-8.68266618 0.0258367 -5.18923924 -0.6486549 0 0 Z " fill="#000000" transform="translate(1071,59)"/>
<path d="M0 0 C6.26920958 3.47976352 10.40062524 8.15167537 12.73828125 14.96484375 C13.80136658 23.24888601 13.16710551 30.07714304 8.296875 37.01953125 C3.57963328 42.99543376 -1.36946707 46.21274064 -8.9296875 47.375 C-16.80439216 47.80816429 -23.15273297 45.53636726 -29.11328125 40.35546875 C-33.86203239 35.25582467 -36.31962994 29.54489039 -36.69921875 22.58984375 C-36.34739199 14.72786887 -33.60159327 8.78965726 -27.82421875 3.46484375 C-19.94501302 -3.2222039 -9.46858151 -4.25400039 0 0 Z " fill="#36C5F0" transform="translate(286.26171875,144.03515625)"/>
</svg>
