<?xml version="1.0" encoding="UTF-8"?>
<svg version="1.1" xmlns="http://www.w3.org/2000/svg" width="4500" height="1542">
<path d="M0 0 C0.75571157 -0.00189924 1.51142314 -0.00379848 2.29003507 -0.00575527 C4.81773634 -0.0108959 7.34538147 -0.00896783 9.87308651 -0.00706255 C11.71329685 -0.00932004 13.5535067 -0.01201188 15.39371583 -0.01509839 C20.46600466 -0.02232745 25.53827869 -0.02332767 30.61057198 -0.02332116 C36.12329596 -0.0243911 41.63601338 -0.03118246 47.14873374 -0.03722787 C58.08978685 -0.04830034 69.03083676 -0.05395133 79.9718945 -0.05793675 C92.40225513 -0.06268961 104.83261011 -0.07256285 117.26296723 -0.08276606 C149.60884915 -0.10926184 181.95473348 -0.12483264 214.30062321 -0.13792895 C224.79230588 -0.14218017 235.28398838 -0.14674784 245.77567083 -0.15151227 C300.76181534 -0.17642378 355.74796039 -0.19848137 410.73410933 -0.21070265 C414.75879421 -0.21160001 418.78347909 -0.21251471 422.80816397 -0.21343038 C423.6065215 -0.213612 424.40487902 -0.21379361 425.2274292 -0.21398072 C433.31570509 -0.21582336 441.40398098 -0.21768923 449.49225686 -0.21957881 C451.1139607 -0.21995686 452.73566454 -0.22033316 454.35736838 -0.2207077 C506.41611216 -0.23273205 558.47482247 -0.26241048 610.53355049 -0.30412281 C647.94123303 -0.33408695 685.34890869 -0.36170836 722.75660282 -0.37140048 C723.52650397 -0.37160103 724.29640511 -0.37180159 725.0896366 -0.37200822 C741.99410971 -0.37635961 758.89858278 -0.37930485 775.80305636 -0.38093473 C782.60549923 -0.38161105 789.40794207 -0.38246656 796.21038491 -0.3833729 C796.95484596 -0.383467 797.69930702 -0.38356109 798.46632751 -0.38365804 C822.41339803 -0.38676587 846.36042588 -0.40524853 870.30748104 -0.43172287 C894.44317464 -0.45831769 918.57882072 -0.46899238 942.71452802 -0.45798689 C957.67925517 -0.45117492 972.64382572 -0.45765294 987.60852871 -0.48689909 C997.16681743 -0.50419385 1006.72499328 -0.50316584 1016.28328451 -0.4875314 C1021.72199188 -0.47914805 1027.16038298 -0.4784363 1032.59906059 -0.50014286 C1074.54450938 -0.65741341 1074.54450938 -0.65741341 1095.12301117 5.12995183 C1095.89798828 5.34374937 1096.67296539 5.55754691 1097.47142666 5.77782317 C1101.84946616 7.00167881 1106.14526545 8.37791232 1110.43551117 9.87995183 C1111.70747143 10.31553492 1112.97944437 10.75108096 1114.25142914 11.18659246 C1124.02068443 14.57277094 1133.48880292 18.45438096 1142.77974945 22.98688543 C1145.21700005 24.17580055 1147.66738515 25.33448838 1150.11910492 26.49323308 C1170.54315156 36.28221497 1189.00488224 48.49357093 1205.64644867 63.86432683 C1207.63032081 65.67922563 1209.64187407 67.43420416 1211.68160492 69.18463933 C1231.66145241 86.64022637 1249.1664991 105.89450164 1262.12301117 129.12995183 C1262.58562348 129.95124578 1263.04823578 130.77253973 1263.52486664 131.61872137 C1267.15066398 138.0738913 1270.67656416 144.57731591 1274.12301117 151.12995183 C1274.54115082 151.9238532 1274.95929047 152.71775457 1275.39010102 153.53571355 C1297.11698381 195.40102055 1302.31112517 243.0927238 1302.25443894 289.62736356 C1302.25609386 291.31729514 1302.25818251 293.00722633 1302.26065904 294.69715691 C1302.26616749 299.3056479 1302.26556411 303.91412011 1302.26388145 308.52261333 C1302.26314491 313.55011566 1302.26818595 318.57761292 1302.27245647 323.60511303 C1302.28000634 333.56083793 1302.28222799 343.51655746 1302.28278552 353.47228493 C1302.28370216 365.4043293 1302.29037859 377.33636876 1302.29713235 389.26841101 C1302.31278403 417.41896709 1302.31887741 445.56952294 1302.32353938 473.72008236 C1302.32592666 488.05552084 1302.32963096 502.39095887 1302.33357647 516.726397 C1302.3462388 562.760992 1302.35702207 608.79558698 1302.36041693 654.83018369 C1302.36057917 657.02851527 1302.36074473 659.22684685 1302.36091132 661.42517843 C1302.3612451 665.83361166 1302.36157558 670.24204489 1302.36190587 674.65047812 C1302.36229276 679.81115139 1302.36268237 684.97182466 1302.36307694 690.13249793 C1302.36318936 691.60949724 1302.36330078 693.08649654 1302.36341119 694.56349584 C1302.36695822 741.9678675 1302.382028 789.37222399 1302.40534893 836.77658986 C1302.42210864 870.85775375 1302.43757314 904.93891477 1302.4420839 939.02008283 C1302.44222412 940.07317168 1302.44222412 940.07317168 1302.44236719 941.14753506 C1302.444387 956.56552947 1302.44554241 971.98352383 1302.44589577 987.40151836 C1302.44603193 992.91960758 1302.44624091 998.4376968 1302.44648902 1003.95578602 C1302.44655058 1005.32839382 1302.44660891 1006.70100162 1302.44666397 1008.07360942 C1302.44758084 1029.87503819 1302.45751336 1051.67645103 1302.47212146 1073.47787457 C1302.48720273 1096.07604951 1302.49129256 1118.67420504 1302.4830285 1141.27238415 C1302.47859221 1154.27570399 1302.4823522 1167.27895864 1302.49826701 1180.28226983 C1302.50808965 1188.99522794 1302.50677007 1197.7081409 1302.49683078 1206.4210987 C1302.4914907 1211.36773506 1302.49055713 1216.31424721 1302.5033395 1221.26087277 C1302.6473856 1280.80665367 1296.99662766 1341.03542168 1270.12301117 1395.12995183 C1269.76916352 1395.85392156 1269.41531586 1396.57789129 1269.05074555 1397.32379949 C1258.64272886 1418.4585427 1244.75273838 1438.40039418 1228.57613617 1455.52448308 C1226.49273962 1457.73726254 1224.51553516 1459.99243499 1222.56051117 1462.31745183 C1197.2937699 1491.27885811 1157.8787586 1512.86116845 1122.12301117 1525.12995183 C1121.35102387 1525.40001043 1120.57903656 1525.67006902 1119.7836557 1525.94831121 C1097.58888034 1533.64262666 1074.40390878 1538.24360311 1051.12301117 1541.12995183 C1050.50755443 1541.21300544 1049.89209769 1541.29605904 1049.25799074 1541.38162942 C1040.63160652 1542.40933628 1031.98487444 1542.2722827 1023.31310612 1542.26417291 C1021.49091968 1542.26612784 1019.66873366 1542.26851744 1017.84654829 1542.27130088 C1012.83366777 1542.27768639 1007.82080331 1542.27786367 1002.80791951 1542.27702347 C997.35620865 1542.27719326 991.9045035 1542.28310258 986.45279551 1542.28826433 C975.63748798 1542.29758456 964.82218455 1542.3015114 954.00687352 1542.3037833 C941.05327287 1542.30674683 928.09967765 1542.31544506 915.14607985 1542.32419758 C883.83852243 1542.34518481 852.53096369 1542.35551387 821.22340088 1542.36432719 C810.85451522 1542.36726229 800.48562977 1542.37063233 790.11674434 1542.3742944 C789.38497704 1542.37455269 788.65320974 1542.37481098 787.89926768 1542.3750771 C784.93861529 1542.37612336 781.97796291 1542.37717179 779.01731053 1542.37822292 C728.37583767 1542.39618616 677.73436447 1542.4115644 627.09288888 1542.41898195 C623.11634803 1542.41956592 619.13980718 1542.42016318 615.16326633 1542.42075957 C614.37445949 1542.42087769 613.58565264 1542.42099581 612.77294257 1542.42111751 C604.78142841 1542.42231487 596.78991426 1542.42352364 588.79840011 1542.42475004 C587.19609767 1542.42499528 585.59379523 1542.42523913 583.99149279 1542.42548161 C532.53532766 1542.43327072 481.07918533 1542.45565377 429.62303017 1542.48815804 C392.64379672 1542.51150954 355.66456781 1542.53305807 318.68532711 1542.54016435 C317.92454613 1542.54031137 317.16376515 1542.54045839 316.37993021 1542.54060987 C299.67738006 1542.54379496 282.97482996 1542.54584567 266.27227954 1542.54683742 C259.5515633 1542.54725214 252.83084707 1542.54780704 246.11013085 1542.54839933 C245.00684982 1542.54849033 245.00684982 1542.54849033 243.88128028 1542.54858317 C220.20743946 1542.55059758 196.53362562 1542.56482421 172.8597942 1542.58534433 C148.34437945 1542.60651855 123.82900023 1542.613272 99.31357772 1542.60347054 C85.18470665 1542.59825346 71.05594261 1542.60414303 56.92708694 1542.62600521 C47.48528456 1542.63951072 38.04355588 1542.63843843 28.60175278 1542.62560326 C23.224725 1542.61870518 17.84790189 1542.61804224 12.47089238 1542.63516334 C7.56970812 1542.65064181 2.66889179 1542.64736754 -2.23228199 1542.62975306 C-3.98512122 1542.62662871 -5.73798912 1542.63006241 -7.49079546 1542.64124481 C-30.4121629 1542.77783484 -51.1718334 1536.83543332 -71.68948883 1526.69245183 C-72.94027164 1526.08008384 -74.19108613 1525.46778055 -75.44193023 1524.85553777 C-93.45807377 1515.9922432 -111.64073544 1507.0280121 -127.87698883 1495.12995183 C-128.42564605 1494.72857 -128.97430328 1494.32718816 -129.53958648 1493.91364324 C-133.3886461 1491.0710356 -137.14436369 1488.12307256 -140.87698883 1485.12995183 C-141.8540982 1484.35909246 -142.83120758 1483.58823308 -143.83792633 1482.79401433 C-151.1735581 1476.81613446 -157.9153049 1470.29763434 -164.62698883 1463.62995183 C-165.50226227 1462.76394353 -166.3775357 1461.89793523 -167.27933258 1461.00568426 C-173.23292901 1455.02337816 -178.65468918 1448.75732601 -183.87698883 1442.12995183 C-184.41630035 1441.44997137 -184.95561188 1440.7699909 -185.51126617 1440.06940496 C-214.85152472 1402.66428614 -242.1435463 1353.16659021 -242.00694066 1304.43421108 C-242.0088399 1303.68595416 -242.01073914 1302.93769725 -242.01269594 1302.16676588 C-242.01784564 1299.65843636 -242.01590682 1297.15016321 -242.01400322 1294.64182985 C-242.01626022 1292.81794154 -242.0189519 1290.99405373 -242.02203906 1289.17016664 C-242.02927418 1284.13850018 -242.03026833 1279.10684864 -242.03026183 1274.07517769 C-242.03133111 1268.6081534 -242.03812166 1263.14113575 -242.04416853 1257.67411512 C-242.05524502 1246.82158484 -242.06089301 1235.9690578 -242.06487741 1225.11652286 C-242.069886 1212.12025768 -242.08061361 1199.12399877 -242.09135914 1186.12773729 C-242.11715125 1154.70825914 -242.13204757 1123.28877805 -242.14486961 1091.86929233 C-242.14912075 1081.46031041 -242.15368843 1071.05132867 -242.15845293 1060.64234698 C-242.18336687 1006.08515362 -242.20542368 951.52795974 -242.21764331 896.97076193 C-242.21854067 892.97695287 -242.21945537 888.98314382 -242.22037105 884.98933477 C-242.22055266 884.19710343 -242.22073427 883.4048721 -242.22092139 882.58863375 C-242.22276401 874.56245346 -242.22462988 866.53627317 -242.22651948 858.51009289 C-242.22689753 856.9008418 -242.22727382 855.29159071 -242.22764836 853.68233961 C-242.23966896 802.03942021 -242.26933968 750.39653457 -242.31106347 698.75363106 C-242.34103393 661.64710656 -242.36865247 624.54058901 -242.37834114 587.43405282 C-242.37854169 586.67007971 -242.37874225 585.90610659 -242.37894888 585.11898277 C-242.38330064 568.34319311 -242.38624565 551.5674035 -242.38787539 534.79161337 C-242.3885517 528.04055782 -242.38940721 521.2895023 -242.39031357 514.53844678 C-242.39040766 513.79961512 -242.39050176 513.06078345 -242.3905987 512.29956294 C-242.39370477 488.54709486 -242.41217706 464.79466986 -242.43866353 441.04221727 C-242.46527889 417.09505351 -242.47592364 393.14793769 -242.46492755 369.2007601 C-242.4581234 354.35730122 -242.46455346 339.51401354 -242.49383975 324.67058059 C-242.51116687 315.18358944 -242.51007947 305.69671187 -242.49447206 296.20971814 C-242.48610895 290.81581531 -242.48530365 285.42223103 -242.50708352 280.02835851 C-242.59500151 256.8313165 -241.8318235 234.8718643 -236.87698883 212.12995183 C-236.63329612 210.98598127 -236.38960341 209.8420107 -236.13852607 208.66337436 C-221.35885475 139.76080681 -181.81274263 80.47790846 -122.59573883 42.10260808 C-87.21003759 19.60804843 -42.84884437 -0.11952686 0 0 Z " fill="#35C5F0" transform="translate(241.87698882818222,-0.1299518346786499)"/>
<path d="M0 0 C0.76707275 0.20278564 1.53414551 0.40557129 2.32446289 0.61450195 C8.34811223 2.29429073 13.69472537 4.59175829 19.1875 7.5625 C20.42004517 8.22221802 20.42004517 8.22221802 21.67749023 8.89526367 C35.12497151 16.21425062 47.35211524 25.32260042 59.70166016 34.32666016 C63.45947811 37.06259433 67.23017163 39.78065173 71 42.5 C75.5279254 45.76729582 80.05368022 49.03741674 84.5703125 52.3203125 C92.25780192 57.90201243 99.98138301 63.41359744 107.82739258 68.77050781 C113.18565204 72.42993529 118.50272171 76.14564056 123.8125 79.875 C130.40693896 84.50406233 137.02957968 89.08774049 143.6875 93.625 C164.31565114 107.6950439 184.50313318 122.37716234 204.58251953 137.21630859 C207.04034285 139.0297662 209.50201569 140.83787751 211.96484375 142.64453125 C213.60169005 143.84618044 215.23841018 145.04800152 216.875 146.25 C218.06826904 147.12615967 218.06826904 147.12615967 219.28564453 148.02001953 C223.31157056 150.98556412 227.29923797 153.98799549 231.2331543 157.07446289 C247.99254087 170.21201882 263.02545299 179.48954382 285 177 C287.26093201 176.50431194 289.51983591 175.99933755 291.77734375 175.48828125 C303.92631878 172.94038791 316.45871347 173.59369207 328.80487061 173.6774292 C332.13098304 173.69411386 335.45706488 173.68325375 338.78320312 173.67773438 C352.64305492 173.69308042 366.26658549 174.07747493 380 176 C380.80394699 176.10931351 381.60789398 176.21862701 382.436203 176.33125305 C434.38532781 183.44274042 487.76405036 207.28871157 522 248 C522.4444043 248.51997559 522.88880859 249.03995117 523.34667969 249.57568359 C557.98338785 290.24258587 578.97405414 337.1814512 578.5 390.875 C578.49512573 392.08111938 578.49025146 393.28723877 578.48522949 394.52990723 C578.39615709 413.33788795 577.41922102 431.48511824 574 450 C573.7189707 451.70815577 573.43894027 453.41647634 573.16015625 455.125 C564.47553131 504.61455299 535.92618279 552.70362978 497.8984375 585.3203125 C496.02029247 586.98204576 494.25694484 588.71125525 492.5 590.5 C481.87236395 601.24677995 467.8849007 615.25168303 451.89355469 616.11352539 C451.16040039 616.10828857 450.42724609 616.10305176 449.671875 616.09765625 C448.87265625 616.09443359 448.0734375 616.09121094 447.25 616.08789062 C446.425 616.07951172 445.6 616.07113281 444.75 616.0625 C443.90953125 616.05798828 443.0690625 616.05347656 442.203125 616.04882812 C440.13538599 616.03707961 438.06768376 616.01914522 436 616 C436.01030746 616.85028275 436.02061493 617.70056549 436.03123474 618.57661438 C436.28546125 639.56770378 436.53584849 660.55883618 436.78230286 681.55001831 C436.90158772 691.70247583 437.02205962 701.8549164 437.14550781 712.00732422 C437.43462034 735.83310831 437.69849873 759.65896151 437.92522621 783.48542404 C437.97850935 789.00714907 438.04019348 794.52872153 438.10742188 800.05029297 C438.18701202 806.60378795 438.24527385 813.15718773 438.28610229 819.71105957 C438.30321062 821.9641373 438.32713666 824.21717769 438.35916138 826.47009277 C438.8345073 860.86469386 431.82321609 895.12803297 407.5625 920.8125 C382.04236683 944.87932263 349.5142686 947.46289174 316.28029324 947.43274301 C311.9326962 947.43210659 307.58515828 947.44880647 303.23758984 947.4632225 C295.64831215 947.48601942 288.05908016 947.49786266 280.46977043 947.50231743 C269.24171879 947.50892255 258.01374673 947.53240608 246.7857274 947.55920608 C226.87203447 947.60615528 206.95834381 947.63611732 187.04460975 947.65854562 C169.7096091 947.67808878 152.37462735 947.70310305 135.03964233 947.73352051 C132.72011274 947.73757018 130.40058315 947.7416192 128.08105356 947.74566758 C124.59207669 947.75176459 121.10309984 947.75786616 117.61412301 947.76398201 C73.74736732 947.84069305 29.88060451 947.89797656 -13.98619258 947.94459558 C-46.7897925 947.97947628 -79.59336242 948.02335858 -112.39693657 948.07725732 C-149.76632465 948.13862972 -187.13570199 948.18912528 -224.50512886 948.21979427 C-227.3409925 948.22213416 -230.17685613 948.22447667 -233.01271977 948.22682502 C-234.88969389 948.22837688 -236.76666803 948.2299179 -238.64364217 948.23144797 C-252.59345426 948.24296266 -266.54324362 948.26180439 -280.49304199 948.28427124 C-296.25109372 948.30959018 -312.00911372 948.32409288 -327.7671867 948.32403928 C-336.49823209 948.32428986 -345.22917749 948.3325677 -353.96019974 948.35290632 C-359.76322385 948.36557801 -365.56618433 948.36720668 -371.36921755 948.35994836 C-374.66029882 948.35612602 -377.95115357 948.35853549 -381.24221849 948.37108648 C-412.40802185 948.48320266 -442.03197186 941.69391223 -465 919 C-468.8376995 914.6722159 -471.95560742 909.90321554 -475 905 C-475.36319336 904.43410156 -475.72638672 903.86820313 -476.10058594 903.28515625 C-490.27833331 881.06265992 -492.47414641 856.89321174 -492.38095093 831.06889343 C-492.38441714 828.94202254 -492.38918811 826.81515345 -492.39513266 824.68828803 C-492.40753946 818.90616526 -492.40151987 813.12419296 -492.39217401 807.34206998 C-492.38534132 801.08235098 -492.39588537 794.82265651 -492.40411377 788.5629425 C-492.41664121 777.03142957 -492.41561495 765.49998294 -492.40737936 753.96847042 C-492.3998091 743.3153228 -492.39787357 732.6621925 -492.4014473 722.00904274 C-492.40167645 721.30022602 -492.40190561 720.59140931 -492.40214171 719.8611133 C-492.40307583 716.98327984 -492.40403105 714.10544639 -492.405021 711.22761295 C-492.41417997 684.28046254 -492.40590539 657.33334225 -492.38973031 630.3861965 C-492.37548775 606.47676787 -492.37677593 582.56738719 -492.39111328 558.65795898 C-492.40719503 531.7500578 -492.41353791 504.84218316 -492.40427649 477.93427783 C-492.40331443 475.06347804 -492.40237591 472.19267824 -492.4014473 469.32187843 C-492.40121006 468.61509436 -492.40097283 467.90831029 -492.40072841 467.18010852 C-492.39732412 456.53356995 -492.40129145 445.88705065 -492.40888596 435.24051476 C-492.41748068 423.13197691 -492.41499535 411.02350797 -492.39904372 398.91497221 C-492.39117828 392.74182419 -492.3880401 386.5687733 -492.39799118 380.39562607 C-492.40697383 374.73758249 -492.40194661 369.07972548 -492.38605852 363.42169867 C-492.3827259 361.38235315 -492.38437028 359.34299166 -492.39168589 357.30365654 C-492.48172645 330.10299534 -486.13390055 306.85743314 -468 286 C-467.30132812 285.16855469 -466.60265625 284.33710937 -465.8828125 283.48046875 C-460.46796292 277.20810741 -454.49609432 272.11510643 -448 267 C-446.31146272 265.58456984 -444.62397897 264.16788201 -442.9375 262.75 C-428.15065963 250.72801205 -412.16838008 240.34997235 -396.29516602 229.84155273 C-386.45900493 223.32810857 -376.6959785 216.72037052 -367 210 C-365.98212402 209.29520508 -364.96424805 208.59041016 -363.91552734 207.86425781 C-361.19159185 205.97499265 -358.47019042 204.08215261 -355.75 202.1875 C-354.77893311 201.51154785 -353.80786621 200.8355957 -352.80737305 200.13916016 C-344.0116154 194.01370946 -335.22938638 187.86902431 -326.45166016 181.71777344 C-322.30213572 178.8103791 -318.15097694 175.90531999 -314 173 C-312.33332569 171.83334425 -310.66665902 170.66667759 -309 169.5 C-305.66666667 167.16666667 -302.33333333 164.83333333 -299 162.5 C-298.1752417 161.92266113 -297.3504834 161.34532227 -296.50073242 160.75048828 C-294.83165493 159.58215033 -293.16254678 158.41385616 -291.4934082 157.24560547 C-287.36337662 154.35486511 -283.23385554 151.46340146 -279.10546875 148.5703125 C-267.39554059 140.36578543 -255.66385637 132.19291199 -243.92333984 124.03222656 C-239.11469838 120.68938945 -234.30741108 117.34460619 -229.5 114 C-227.58333997 112.66665713 -225.6666733 111.3333238 -223.75 110 C-222.80125 109.34 -221.8525 108.68 -220.875 108 C-212.25 102 -212.25 102 -209.37426758 99.99951172 C-207.46001577 98.66784415 -205.54579046 97.3361385 -203.6315918 96.00439453 C-198.80319568 92.64526025 -193.97432293 89.28681497 -189.14453125 85.9296875 C-177.56541326 77.88011604 -166.00038619 69.81088427 -154.45166016 61.71777344 C-149.46749305 58.22558067 -144.48142412 54.73610211 -139.49487305 51.24731445 C-135.35047882 48.34733008 -131.20817113 45.44445987 -127.0703125 42.53515625 C-114.79147714 33.90793342 -102.44045176 25.39262573 -90 17 C-89.31147949 16.53158691 -88.62295898 16.06317383 -87.91357422 15.58056641 C-61.36315973 -2.4335771 -31.55607326 -8.57732193 0 0 Z " fill="#FCFDFD" transform="translate(798,288)"/>
<path d="M0 0 C4.09907517 1.4532032 7.78863801 3.48450391 11.578125 5.60546875 C12.44759766 6.08910889 13.31707031 6.57274902 14.21289062 7.07104492 C38.4693994 20.72927903 61.08387432 36.64915134 83.40234375 53.22607422 C99.92083851 65.48866754 116.53174462 77.61587488 133.35839844 89.45263672 C140.15779367 94.24189955 146.90390834 99.10302421 153.62890625 103.99609375 C156.16424285 105.83722412 158.71560077 107.64342398 161.30859375 109.40234375 C162.30503906 110.088125 163.30148437 110.77390625 164.328125 111.48046875 C165.59849609 112.33125 165.59849609 112.33125 166.89453125 113.19921875 C169.293411 115.48291221 169.421317 116.70696049 169.765625 119.98046875 C169.23999023 122.98461914 169.23999023 122.98461914 168.32421875 126.328125 C167.99075439 127.56328857 167.65729004 128.79845215 167.3137207 130.07104492 C166.9439013 131.39512549 166.57369452 132.71909792 166.203125 134.04296875 C165.83028041 135.40516536 165.45813353 136.76755311 165.08666992 138.13012695 C163.01897825 145.67303247 160.85304478 153.18486025 158.578125 160.66796875 C148.05158015 195.34698732 142.8713 235.45411833 152.94506836 271.03881836 C153.73869758 273.88393544 154.44545582 276.73788101 155.13671875 279.609375 C159.49085574 297.08630392 165.86961483 313.81636787 173.765625 329.98046875 C174.14944336 330.77791504 174.53326172 331.57536133 174.92871094 332.39697266 C196.17909437 376.16285393 232.98008883 407.23476993 275.328125 429.66796875 C276.1540918 430.10761963 276.98005859 430.54727051 277.83105469 431.00024414 C285.02952703 434.75477731 292.23583092 437.75341415 299.765625 440.98046875 C299.765625 493.45046875 299.765625 545.92046875 299.765625 599.98046875 C104.405625 599.98046875 -90.954375 599.98046875 -292.234375 599.98046875 C-292.83621204 586.74005376 -293.40758236 573.53605815 -293.68334961 560.29125977 C-293.71942914 558.6531321 -293.7557481 557.01500969 -293.7922821 555.37689209 C-293.8695335 551.89336095 -293.94526295 548.40980156 -294.01975822 544.9262104 C-294.13910061 539.35185493 -294.26280489 533.77760082 -294.38710022 528.20335388 C-294.71767634 513.34897209 -295.04270357 498.49446973 -295.36533457 483.63991338 C-295.63895098 471.0463027 -295.91642559 458.45278308 -296.19921875 445.859375 C-296.22035697 444.91571319 -296.24149518 443.97205139 -296.26327395 442.99979377 C-296.84533718 417.07270615 -297.57397442 391.16072323 -298.58517456 365.24645996 C-299.21788985 349.01098207 -299.60899947 332.79011781 -299.796875 316.54296875 C-299.8563768 311.79420483 -299.920038 307.04552139 -299.98828125 302.296875 C-300.00442978 301.16813461 -300.02057831 300.03939423 -300.03721619 298.87644958 C-300.15774438 291.43832685 -300.40716261 284.01339697 -300.7421875 276.58203125 C-301.19610815 266.50954226 -301.48250969 256.44988367 -301.52954102 246.36694336 C-301.54123018 244.63118448 -301.5619374 242.89546595 -301.59106445 241.15991211 C-301.90894505 221.99650706 -297.9484242 208.16597277 -284.671875 193.91796875 C-270.08414331 180.22218909 -252.4041458 170.32747182 -234.98925781 160.74511719 C-221.96613417 153.55155345 -209.67660679 145.79206576 -197.87109375 136.734375 C-193.96111671 133.74403588 -189.90000795 131.03373409 -185.78125 128.33984375 C-180.93282668 125.14416068 -176.18489287 121.80139233 -171.421875 118.48046875 C-170.4333252 117.79130371 -169.44477539 117.10213867 -168.42626953 116.39208984 C-166.38392294 114.96772267 -164.34177045 113.54307714 -162.29980469 112.11816406 C-158.34706381 109.3616971 -154.39000851 106.61146388 -150.43286133 103.86132812 C-141.54065634 97.680941 -132.66045063 91.48379677 -123.79223633 85.26904297 C-117.44913208 80.82579051 -111.09358613 76.40063132 -104.734375 71.98046875 C-95.03747625 65.23979362 -85.35728297 58.47565471 -75.68603516 51.69824219 C-71.53651072 48.79084785 -67.38535194 45.88578874 -63.234375 42.98046875 C-61.56770069 41.813813 -59.90103402 40.64714634 -58.234375 39.48046875 C-48.234375 32.48046875 -48.234375 32.48046875 -45.73217773 30.72900391 C-44.07274344 29.56735124 -42.41340034 28.4055683 -40.75415039 27.24365234 C-36.47758342 24.249173 -32.19924764 21.25727075 -27.91796875 18.26953125 C-27.045354 17.65988525 -26.17273926 17.05023926 -25.27368164 16.42211914 C-23.56183707 15.22686387 -21.84881434 14.0332939 -20.13452148 12.84155273 C-16.61038544 10.38407542 -13.10908648 7.918891 -9.7109375 5.2890625 C-8.74929688 4.54785156 -7.78765625 3.80664062 -6.796875 3.04296875 C-6.01441406 2.41519531 -5.23195313 1.78742188 -4.42578125 1.140625 C-2.234375 -0.01953125 -2.234375 -0.01953125 0 0 Z " fill="#35C5F0" transform="translate(767.234375,467.01953125)"/>
<path d="M0 0 C1.28390625 1.13501953 1.28390625 1.13501953 2.59375 2.29296875 C3.90859375 3.44345703 3.90859375 3.44345703 5.25 4.6171875 C13.88425097 12.6922927 20.7630329 22.4440056 21.78148147 34.51870887 C21.85969775 36.98358436 21.87653549 39.44142241 21.87054062 41.90753746 C21.8761565 42.85087203 21.88177237 43.7942066 21.88755843 44.76612706 C21.90396609 47.93130999 21.90626749 51.09634387 21.90863037 54.26156616 C21.9175448 56.55879274 21.92731353 58.85601613 21.9378612 61.15323579 C21.9643441 67.48471626 21.97834589 73.81617255 21.99024355 80.147695 C22.0027037 86.30002538 22.02617514 92.45231927 22.04827029 98.60462099 C22.09623147 112.08145717 22.13227323 125.55830669 22.16337988 139.03519116 C22.19110732 151.0428155 22.22293293 163.050421 22.25826263 175.05802536 C22.51282897 261.9515609 22.66022866 348.84534909 22.83116913 600.42580032 C22.83139964 602.23111945 22.83163091 604.03643857 22.83186296 605.8417577 C22.8319778 606.73596594 22.83209265 607.63017417 22.83221098 608.55147963 C22.832678 612.16836717 22.83315177 615.78525472 22.83362945 619.40214226 C22.83386606 621.21212831 22.83409743 623.02211436 22.83432356 624.83210042 C22.83807046 654.56402853 22.85438675 684.29593355 22.87717474 714.02785275 C22.90175419 746.15816394 22.91548597 778.28846174 22.91668582 810.41878259 C22.91685713 813.92713126 22.91707248 817.43547992 22.91732025 820.94382858 C22.91737602 821.8064422 22.91743179 822.66905581 22.91748925 823.55780923 C22.91862867 837.29399632 22.92953383 851.03015808 22.94420731 864.76633663 C22.95852989 878.40122518 22.9618293 892.03608133 22.95376733 905.67097534 C22.94932321 913.72553326 22.95312857 921.77998611 22.96900584 929.83453016 C22.97992542 935.8449252 22.97510089 941.85520058 22.96423396 947.86560015 C22.96227721 950.28722761 22.96535437 952.70886569 22.97407833 955.13047822 C23.07976219 986.44237271 23.07976219 986.44237271 15.84375 999.66796875 C15.49449463 1000.33296387 15.14523926 1000.99795898 14.78540039 1001.68310547 C7.27129584 1015.62256045 -2.76950516 1024.59036812 -18.015625 1029.44140625 C-23.52926562 1030.72038741 -29.08493574 1030.66121762 -34.71875 1030.66796875 C-35.78287109 1030.69246094 -36.84699219 1030.71695312 -37.94335938 1030.7421875 C-53.60303147 1030.79951394 -66.78925587 1023.3096795 -77.90625 1012.66796875 C-88.29499791 1002.26808606 -89.50353184 989.66761752 -89.54177856 975.52848816 C-89.53874222 973.84968315 -89.53874222 973.84968315 -89.53564453 972.13696289 C-89.53827301 970.33669647 -89.53827301 970.33669647 -89.54095459 968.50006104 C-89.54459413 965.21427794 -89.54374605 961.92853535 -89.5405755 958.64275289 C-89.53801323 955.14631021 -89.54040222 951.64986993 -89.54196167 948.15342712 C-89.54378205 942.23956837 -89.54139076 936.32572209 -89.53662109 930.41186523 C-89.53186419 924.44766414 -89.53172447 918.4834881 -89.53662109 912.51928711 C-89.5655711 876.43183421 -89.35426832 840.37097699 -88.40625 804.29296875 C-89.16001923 804.48655472 -89.91378845 804.68014069 -90.69039917 804.8795929 C-97.13444417 806.51572457 -103.57433694 808.01223386 -110.1015625 809.2734375 C-110.99085953 809.44721924 -111.88015656 809.62100098 -112.79640198 809.80004883 C-115.70697792 810.36575319 -118.61881162 810.92443487 -121.53125 811.48046875 C-123.06055649 811.77251694 -123.06055649 811.77251694 -124.62075806 812.07046509 C-166.00992185 819.93863951 -207.49776684 825.98275153 -249.40625 830.29296875 C-250.37113342 830.39244812 -251.33601685 830.49192749 -252.33013916 830.59442139 C-324.66135611 838.00533685 -397.32765177 839.67392351 -469.98773193 840.27287292 C-472.46594817 840.29346479 -474.94415545 840.31496948 -477.42236328 840.33654785 C-487.63242574 840.42384447 -497.84233022 840.4872073 -508.05270386 840.52313232 C-511.29717879 840.53483009 -514.54151233 840.55299062 -517.78591919 840.57696533 C-521.59597555 840.60447193 -525.40578969 840.61651417 -529.21594238 840.61716843 C-530.60470499 840.61972568 -531.99347019 840.62727053 -533.38217163 840.64055252 C-551.96928232 840.80868326 -566.81906995 836.78317826 -581.40625 825.29296875 C-582.41558594 824.55046875 -582.41558594 824.55046875 -583.4453125 823.79296875 C-592.45490222 816.80755998 -596.03774447 806.50872516 -598.09375 795.66796875 C-598.76660522 788.91195305 -598.53542585 782.07130158 -598.40625 775.29296875 C-598.41269531 774.36871094 -598.41914063 773.44445313 -598.42578125 772.4921875 C-598.00870759 760.35732998 -589.57555394 749.76045496 -581.04833984 741.72167969 C-566.44435211 729.01538527 -553.03548402 726.21241975 -533.99780273 726.02758789 C-532.66190612 726.01137931 -531.32601443 725.99476073 -529.99012756 725.97776794 C-527.11752525 725.94201247 -524.24490923 725.90895922 -521.37225151 725.87797737 C-516.75420765 725.82795938 -512.13627078 725.77062344 -507.51832581 725.71226501 C-495.99771036 725.56774914 -484.47699661 725.43170193 -472.95623779 725.2991333 C-437.34573077 724.88933129 -401.7447917 724.43078942 -366.1484375 723.30859375 C-364.85066816 723.26816011 -363.55289883 723.22772648 -362.21580315 723.18606758 C-279.46517156 720.56589337 -196.89614292 711.9913568 -116.44140625 691.9921875 C-114.18764387 691.4355765 -111.93377866 690.87938174 -109.67980957 690.3236084 C-104.25410193 688.98482892 -98.82965907 687.6410279 -93.40625 686.29296875 C-93.40466973 685.74916982 -93.40308946 685.2053709 -93.40146131 684.64509322 C-93.22930478 625.41440848 -93.05597815 566.18372723 -92.87657166 506.95306396 C-92.87389024 506.06769045 -92.87120882 505.18231694 -92.86844615 504.27011393 C-92.81015865 485.026557 -92.75166226 465.7830007 -92.69295079 446.53944506 C-92.66415816 437.10181766 -92.63541168 427.66419012 -92.60668945 418.2265625 C-92.60383053 417.28742678 -92.6009716 416.34829107 -92.59802604 415.3806967 C-92.50545394 384.9643596 -92.4159262 354.54801447 -92.32798452 324.13166367 C-92.23756421 292.86360704 -92.14405795 261.59556111 -92.04669279 230.32752531 C-92.0329284 225.90674294 -92.01919913 221.48596046 -92.00549126 217.06517792 C-92.00144294 215.7601234 -92.00144294 215.7601234 -91.99731284 214.42870415 C-91.95403438 200.44797056 -91.91398961 186.4672295 -91.87516735 172.4864829 C-91.8360273 158.4163197 -91.79344898 144.34617018 -91.74741179 130.27602783 C-91.72019488 121.92632724 -91.69556342 113.57662859 -91.6747237 105.2269096 C-91.65883025 98.97581109 -91.63798311 92.72473797 -91.6152845 86.47366068 C-91.60689982 83.95650274 -91.60007933 81.43933896 -91.59504283 78.9221721 C-91.57166219 67.6259 -91.50609581 56.34043833 -90.99555111 45.05407333 C-90.96230263 44.25531312 -90.92905415 43.45655292 -90.89479813 42.63358785 C-90.1026224 27.48708123 -81.97243287 12.99290077 -71.40625 2.29296875 C-68.2408547 -0.118761 -64.98157838 -1.97122297 -61.40625 -3.70703125 C-60.61347656 -4.09632813 -59.82070312 -4.485625 -59.00390625 -4.88671875 C-41.6625675 -12.58773466 -15.11151012 -12.20032214 0 0 Z " fill="#000000" transform="translate(3742.40625,254.70703125)"/>
<path d="M0 0 C7.55239961 7.0025461 14.20100469 15.67491116 15.16821283 26.26255041 C15.17016375 27.22530919 15.17211468 28.18806797 15.17412472 29.18000126 C15.18119031 30.29861705 15.1882559 31.41723284 15.1955356 32.56974608 C15.19312052 33.78850493 15.19070543 35.00726378 15.18821716 36.26295471 C15.19345384 37.56564566 15.19869052 38.86833661 15.20408589 40.21050304 C15.21824557 43.82037335 15.21992956 47.43015748 15.21948898 51.04005158 C15.22113902 54.93595474 15.2342092 58.83182259 15.24568176 62.72770691 C15.26851814 71.24448129 15.27645117 79.76123074 15.28150821 88.27803159 C15.28476736 93.59928269 15.29129123 98.92052658 15.2985096 104.24177361 C15.31807515 118.98389865 15.33447916 133.72601699 15.33738613 148.46815586 C15.3375737 149.41131043 15.33776127 150.354465 15.33795452 151.3262 C15.33832077 153.23809779 15.33868447 155.14999557 15.33904564 157.06189335 C15.33922845 158.01092411 15.33941126 158.95995487 15.33959961 159.93774414 C15.33987043 161.36303466 15.33987043 161.36303466 15.34014673 162.81711894 C15.34368642 178.20481752 15.3706962 193.592376 15.4080975 208.98002601 C15.44621738 224.79028973 15.46554389 240.600484 15.46584564 256.41079468 C15.46642945 265.2828246 15.47487153 274.15468745 15.50384331 283.02667427 C15.52840668 290.58330353 15.53560689 298.13970479 15.52059578 305.69636322 C15.51344657 309.54821413 15.51419735 313.39961531 15.53700638 317.25141525 C15.56155692 321.43763657 15.5469049 325.62284318 15.52879333 329.80909729 C15.5419933 331.01224109 15.55519327 332.21538489 15.56879324 333.45498759 C15.46084084 344.42395646 11.84364114 353.8083814 6.2890625 363.16796875 C5.79200806 364.00871948 5.79200806 364.00871948 5.28491211 364.86645508 C4.56146193 366.08441968 3.83304701 367.29944684 3.10009766 368.51171875 C1.80679526 370.65852619 0.53839779 372.81913708 -0.73046875 374.98046875 C-5.92084832 383.74152199 -11.21399555 391.92382244 -18.0859375 399.48046875 C-18.75625 400.23199219 -19.4265625 400.98351563 -20.1171875 401.7578125 C-35.93700965 418.55161623 -56.55914901 428.22197409 -78.0859375 435.48046875 C-78.97702713 435.81293106 -79.86811676 436.14539337 -80.78620911 436.4879303 C-84.29462327 437.54324017 -87.38281367 437.88178642 -91.03710938 438.08789062 C-91.69078239 438.12527092 -92.34445541 438.16265121 -93.01793671 438.20116425 C-99.96395077 438.57376564 -106.91227807 438.68997688 -113.8671875 438.76171875 C-115.36053248 438.77984813 -116.85387446 438.7982255 -118.34721375 438.81681824 C-122.53186443 438.86727694 -126.71655972 438.91131981 -130.90130234 438.95339584 C-133.61207685 438.98073235 -136.32283833 439.00915658 -139.03359985 439.03775024 C-153.88272656 439.19266288 -168.73206483 439.32078454 -183.58148956 439.44324493 C-186.71132849 439.46905909 -189.84116522 439.49512275 -192.97100067 439.52135468 C-215.77965991 439.71239024 -238.58837727 439.88975648 -261.39731407 440.04442406 C-263.38629538 440.05792743 -265.37527663 440.07143972 -267.36425781 440.08496094 C-268.34823787 440.09164752 -269.33221793 440.0983341 -270.34601557 440.1052233 C-277.26245355 440.15276284 -284.17883579 440.20582913 -291.09521484 440.26123047 C-299.68261293 440.3298911 -308.27002613 440.39027839 -316.85754901 440.44108564 C-321.31029057 440.46763161 -325.76293584 440.49754042 -330.21558189 440.53716087 C-382.71440169 440.99632385 -434.06811074 438.81973774 -474.24609375 400.515625 C-494.48585146 379.55729601 -505.69046538 352.30672716 -510.3359375 323.91796875 C-510.49916504 322.92627686 -510.66239258 321.93458496 -510.83056641 320.9128418 C-512.88487618 307.47669324 -513.24034208 293.96014128 -513.21875 280.390625 C-513.21995017 278.88145418 -513.22148016 277.3722836 -513.22329712 275.8631134 C-513.22714216 270.75638182 -513.21924806 265.64969256 -513.2109375 260.54296875 C-513.20864977 258.72487392 -513.20641264 256.90677903 -513.20422363 255.08868408 C-513.18835174 243.08582755 -513.1563902 231.08304174 -513.12039185 219.08023071 C-513.09854946 211.59127223 -513.08049112 204.10232069 -513.0670166 196.61334229 C-513.0654714 195.75617491 -513.0639262 194.89900753 -513.06233418 194.01586539 C-513.06076813 193.14518579 -513.05920208 192.27450619 -513.05758858 191.37744236 C-513.02362494 172.50157237 -512.97273515 153.62584324 -512.89882088 134.75008488 C-512.86133037 125.09145358 -512.83024887 115.43289566 -512.81549072 105.77420044 C-512.8025947 97.41024793 -512.77560747 89.04647829 -512.73152506 80.68262988 C-512.70904968 76.33963956 -512.69299349 71.99687186 -512.69401932 67.65381813 C-512.69476736 63.61333983 -512.67670952 59.57336406 -512.6447618 55.53301609 C-512.63635605 54.07090452 -512.63446025 52.60873604 -512.64013696 51.14661133 C-512.707994 30.97774669 -506.64031107 15.49823486 -493.0859375 0.48046875 C-492.53292969 -0.14085937 -491.97992187 -0.7621875 -491.41015625 -1.40234375 C-482.02898835 -10.66711999 -466.45675892 -10.81895782 -454.10302734 -10.83642578 C-440.24142536 -10.66019132 -428.49373309 -7.81902573 -418.4140625 2.11328125 C-383.43328464 38.65462915 -401.0859375 50.62750935 -401.0859375 123.48046875 C-299.7759375 123.48046875 -198.4659375 123.48046875 -94.0859375 123.48046875 C-94.0859375 93.12046875 -94.0859375 62.76046875 -94.0859375 31.48046875 C-82.27437971 7.85735317 -82.27437971 7.85735317 -77.0859375 2.48046875 C-76.60511719 1.949375 -76.12429688 1.41828125 -75.62890625 0.87109375 C-71.83508424 -2.85549597 -67.33547613 -5.06278147 -62.5859375 -7.33203125 C-61.956875 -7.63447754 -61.3278125 -7.93692383 -60.6796875 -8.24853516 C-42.67821154 -16.43826914 -15.07422688 -12.3074384 0 0 Z M-401.0859375 232.48046875 C-402.52393209 241.10843629 -403.71463618 249.55441472 -404.51855469 258.23364258 C-404.70981953 260.28100166 -404.91313961 262.32692723 -405.1171875 264.37304688 C-407.0004981 283.94589394 -407.57301794 301.15089813 -394.6484375 317.23046875 C-393.13814502 318.98957382 -391.61827931 320.74053697 -390.0859375 322.48046875 C-389.55871094 323.12628906 -389.03148438 323.77210938 -388.48828125 324.4375 C-384.15484361 329.39862221 -379.05128811 330.17916075 -372.73690212 330.6589607 C-370.22416149 330.73337608 -367.71946525 330.74247245 -365.20567322 330.72770691 C-363.77396132 330.73132853 -363.77396132 330.73132853 -362.31332594 330.73502332 C-359.13581489 330.74062933 -355.95850767 330.73202018 -352.78100586 330.72338867 C-350.49352464 330.72446243 -348.20604368 330.72640251 -345.91856384 330.72914124 C-339.71517689 330.73398179 -333.51186208 330.72634027 -327.30848384 330.71618819 C-320.79343043 330.70737769 -314.27837908 330.70916583 -307.76332092 330.70954895 C-296.80728944 330.70861256 -285.85128618 330.69999268 -274.89526367 330.6862793 C-263.67422991 330.67224181 -252.45322041 330.66510653 -241.23217773 330.66577148 C-240.54318097 330.66581144 -239.8541842 330.6658514 -239.14430874 330.66589256 C-238.11244769 330.6659531 -238.11244769 330.6659531 -237.05974096 330.66601485 C-223.57926301 330.66674482 -210.09879836 330.65972308 -196.61832356 330.65056825 C-192.76375168 330.64845149 -188.9091817 330.64772903 -185.0546093 330.64732933 C-178.95193589 330.6463122 -172.84928727 330.64010606 -166.74662209 330.63016319 C-164.52653023 330.62728261 -162.30643551 330.62600359 -160.08634186 330.62659073 C-148.74422552 330.62845245 -137.40755655 330.51602478 -126.0705719 330.15888977 C-125.08624331 330.13697168 -124.10191473 330.11505358 -123.087758 330.0924713 C-116.41763514 329.84345318 -110.51703029 328.99957963 -104.984375 324.9375 C-104.48164063 324.39480469 -103.97890625 323.85210938 -103.4609375 323.29296875 C-102.95304687 322.76316406 -102.44515625 322.23335937 -101.921875 321.6875 C-78.56693484 293.61188044 -94.0859375 297.63652667 -94.0859375 232.48046875 C-195.3959375 232.48046875 -296.7059375 232.48046875 -401.0859375 232.48046875 Z " fill="#000000" transform="translate(4485.0859375,859.51953125)"/>
<path d="M0 0 C1.30337059 -0.0146228 1.30337059 -0.0146228 2.6330719 -0.02954102 C22.33343136 -0.20496817 41.30899193 0.13531645 60.6640625 4.23828125 C61.54916504 4.4202002 62.43426758 4.60211914 63.34619141 4.78955078 C109.62421439 14.56216971 150.75072686 37.47908243 179.6640625 75.23828125 C180.08365234 75.78145996 180.50324219 76.32463867 180.93554688 76.88427734 C188.61558778 86.87673932 195.35205546 97.33550478 201.6640625 108.23828125 C202.05303711 108.9048877 202.44201172 109.57149414 202.84277344 110.25830078 C222.55016791 144.43430707 232.39210905 183.23805565 238.9765625 221.80078125 C239.10589172 222.54542633 239.23522095 223.29007141 239.36846924 224.05728149 C239.74464081 226.24227228 240.10680918 228.42915847 240.46484375 230.6171875 C240.77675659 232.49772827 240.77675659 232.49772827 241.0949707 234.41625977 C242.91105647 247.99778186 242.82616145 261.79777738 242.83203125 275.47265625 C242.83526098 277.28460717 242.83862619 279.09655786 242.84211731 280.9085083 C242.84805608 284.68689577 242.8499629 288.46526055 242.84936523 292.24365234 C242.84928437 296.0519693 242.85617268 299.86016495 242.86987305 303.66845703 C242.94872383 325.94436732 242.77945843 348.04226214 240.6640625 370.23828125 C240.58836029 371.03488159 240.51265808 371.83148193 240.43466187 372.65222168 C240.01823363 376.86168118 239.50248228 381.04967386 238.9140625 385.23828125 C238.66136597 387.07072388 238.66136597 387.07072388 238.40356445 388.94018555 C230.86910313 441.31224298 214.05264364 492.78883771 181.6640625 535.23828125 C181.23416016 535.80949707 180.80425781 536.38071289 180.36132812 536.96923828 C146.18019918 582.26547157 96.58461866 605.6360917 40.91796875 613.6953125 C-12.33487959 620.73034629 -71.41933642 606.72813824 -114.8359375 574.61328125 C-116.67984109 573.168336 -118.51367007 571.71041869 -120.3359375 570.23828125 C-121.23183594 569.53316406 -122.12773438 568.82804688 -123.05078125 568.1015625 C-125.85529082 565.86036906 -128.60252995 563.5656255 -131.3359375 561.23828125 C-131.84237793 560.81240723 -132.34881836 560.3865332 -132.87060547 559.94775391 C-187.29233831 513.7671699 -207.75149253 431.09260628 -213.44726562 363.19604492 C-214.44434949 350.8858664 -215.12910378 338.58797795 -215.3359375 326.23828125 C-215.34689453 325.59131287 -215.35785156 324.94434448 -215.36914062 324.277771 C-216.28228892 267.47625445 -213.05650569 210.32194807 -194.3359375 156.23828125 C-193.86269043 154.86591309 -193.86269043 154.86591309 -193.37988281 153.46582031 C-182.46565987 122.32918222 -166.43932354 93.60002912 -145.3359375 68.23828125 C-144.88992188 67.69671387 -144.44390625 67.15514648 -143.984375 66.59716797 C-111.3785241 27.11488261 -62.00824065 5.89735336 -11.7462616 0.45092773 C-7.83196254 0.10559578 -3.92774321 0.03679362 0 0 Z M-42.3359375 128.23828125 C-42.99335938 128.64755859 -43.65078125 129.05683594 -44.328125 129.47851562 C-56.20323174 137.08813862 -63.82764312 146.41789312 -71.3359375 158.23828125 C-71.79194336 158.94114258 -72.24794922 159.64400391 -72.71777344 160.36816406 C-96.8249432 197.83081215 -105.48145883 244.09255658 -105.50390625 288.0625 C-105.50713415 289.57729623 -105.51049925 291.09209217 -105.51399231 292.60688782 C-105.51994374 295.77284463 -105.5218367 298.93877433 -105.52124023 302.10473633 C-105.52115953 305.2955499 -105.52801806 308.4862182 -105.54174805 311.67700195 C-105.77743579 367.32957222 -100.10144638 428.09108779 -60.8359375 471.36328125 C-39.37994831 491.48096931 -10.46792841 501.64627487 18.58203125 501.55395508 C20.66198744 501.55078441 22.74052954 501.57439543 24.8203125 501.59960938 C36.31614502 501.65630125 46.50775437 499.92189946 56.7265625 494.55078125 C57.40428711 494.20120361 58.08201172 493.85162598 58.78027344 493.49145508 C86.63387173 478.76232967 107.55238195 451.26275718 118.6640625 422.23828125 C118.93412109 421.53300293 119.20417969 420.82772461 119.48242188 420.10107422 C145.246448 351.15844875 145.71134546 253.01048735 115.18676758 185.14233398 C102.21504507 157.45456181 82.9658533 137.07098576 57.6640625 120.23828125 C56.49423828 119.40876953 56.49423828 119.40876953 55.30078125 118.5625 C51.21621056 116.51113783 46.91583074 115.62689852 42.4765625 114.61328125 C41.58130859 114.39671875 40.68605469 114.18015625 39.76367188 113.95703125 C11.63646875 107.37709348 -17.928882 112.9712123 -42.3359375 128.23828125 Z " fill="#000000" transform="translate(2117.3359375,261.76171875)"/>
<path d="M0 0 C0.63244629 0.30663574 1.26489258 0.61327148 1.91650391 0.92919922 C16.11420952 7.91043147 28.13950456 16.44008088 39 28 C41.29908736 30.32751502 43.60391526 32.63176497 46 34.859375 C95.25858911 81.42413502 113.40432681 156.77769671 117.625 221.9375 C117.69036957 222.94268677 117.75573914 223.94787354 117.8230896 224.98352051 C118.97739097 243.38016518 119.30243574 261.75594173 119.31096649 280.18227005 C119.31247213 282.21241756 119.3173643 284.24253425 119.32281494 286.27267456 C119.35734059 309.74448062 118.35900785 333.15393294 115.25 356.4375 C115.08153564 357.71061035 114.91307129 358.9837207 114.73950195 360.29541016 C107.72256576 410.97362996 91.67143035 460.92051696 62 503 C61.35160156 503.94617188 60.70320313 504.89234375 60.03515625 505.8671875 C37.10670181 538.0609578 0.88138928 558.78809659 -37 568 C-37.72485596 568.18409424 -38.44971191 568.36818848 -39.1965332 568.55786133 C-43.23310748 569.19447511 -47.22379781 569.18235451 -51.3046875 569.203125 C-52.21248459 569.21013931 -53.12028168 569.21715363 -54.05558777 569.22438049 C-56.99544197 569.24191572 -59.93509531 569.2482391 -62.875 569.25 C-63.87352997 569.25067474 -64.87205994 569.25134949 -65.90084839 569.25204468 C-112.53745064 569.20179427 -154.00691689 556.28040956 -190 526 C-190.7727124 525.35708008 -190.7727124 525.35708008 -191.56103516 524.70117188 C-244.47498289 480.19570059 -260.34500425 401.64991104 -266.34326172 336.2578125 C-268.36497098 312.29113594 -269.50124766 288.05502116 -269 264 C-268.98211426 263.01402832 -268.96422852 262.02805664 -268.94580078 261.01220703 C-267.28516721 178.57447779 -251.08800557 90.86034561 -191.609375 29.53515625 C-179.69296876 18.3280599 -165.47738554 9.49045741 -151 2 C-150.38979004 1.68192383 -149.77958008 1.36384766 -149.15087891 1.03613281 C-103.29088265 -22.52790285 -46.08487805 -22.4789817 0 0 Z M-119.66992188 117.32519531 C-123.9318978 122.69178027 -126.95073668 128.89553227 -130 135 C-130.3088916 135.60295898 -130.6177832 136.20591797 -130.93603516 136.82714844 C-152.28282981 178.72968487 -159.25085481 227.67835133 -159.1875 274.25 C-159.18689575 275.07804138 -159.1862915 275.90608276 -159.18566895 276.75921631 C-159.13776619 301.11776537 -156.96754029 324.96198664 -153 349 C-152.82629883 350.06460449 -152.65259766 351.12920898 -152.47363281 352.22607422 C-148.69077548 374.74491349 -142.38430495 397.08312454 -131 417 C-130.6714502 417.57878906 -130.34290039 418.15757812 -130.00439453 418.75390625 C-125.62911951 426.38981815 -120.67908152 433.2924234 -115 440 C-114.38640625 440.7940625 -113.7728125 441.588125 -113.140625 442.40625 C-104.16180192 453.53702241 -90.52359199 457.48012616 -76.78613281 459.29199219 C-63.09238296 460.70243057 -52.90593662 456.99438296 -42.02734375 448.74609375 C-39.55041232 446.59792546 -37.26189206 444.37181579 -35 442 C-34.10474609 441.11634766 -34.10474609 441.11634766 -33.19140625 440.21484375 C4.68110246 400.41809672 9.45991197 330.87982807 11 279 C11.02336426 278.27522461 11.04672852 277.55044922 11.07080078 276.80371094 C12.42184524 228.87001591 7.82698395 158.57755973 -25.8515625 121.1875 C-26.91503906 120.1046875 -26.91503906 120.1046875 -28 119 C-28.92527193 118.00073347 -29.84968922 117.00067519 -30.7734375 116 C-40.66181242 105.49924202 -52.67782311 96.3478782 -67.4453125 94.58984375 C-88.0968673 94.05853977 -106.08672207 101.81948003 -119.66992188 117.32519531 Z " fill="#000000" transform="translate(3459,278)"/>
<path d="M0 0 C13.47527891 -0.0467067 26.9505257 -0.08273759 40.4258728 -0.10443115 C44.91289158 -0.1117021 49.39987123 -0.12295686 53.88687134 -0.13775635 C58.9823384 -0.15406655 64.07771625 -0.16053238 69.17320824 -0.15852165 C70.94143328 -0.15926184 72.70966124 -0.16320841 74.47786903 -0.17105293 C97.12789381 -0.26593875 118.46045153 2.48348374 135.77490234 18.56298828 C145.98424872 29.61594001 149.68501297 41.27928172 151.09130859 56.07080078 C151.18798828 57.02083984 151.28466797 57.97087891 151.38427734 58.94970703 C152.32576549 76.43085187 139.67064516 92.35800654 128.64697266 104.68603516 C123.2597506 110.65950353 117.74963251 116.48159191 112.01147461 122.11987305 C110.21017301 123.95003212 108.5252945 125.82999657 106.85302734 127.77783203 C103.08711603 132.11090167 99.16885605 136.28337091 95.21630859 140.44580078 C87.84660539 148.24861864 80.52007643 156.02268925 73.77880859 164.38330078 C68.96101765 170.33222526 63.78931136 175.90183473 58.56152344 181.48730469 C56.35493025 183.86391767 54.19770306 186.28479716 52.02880859 188.69580078 C46.1972379 195.08073219 40.06364144 201.1547596 33.90356445 207.22167969 C29.59774608 211.48071022 25.45696913 215.80692752 21.51708984 220.40795898 C20.32227464 221.80143267 19.08634568 223.1595106 17.84130859 224.50830078 C14.18064159 229.86856318 11.94039437 236.62568112 13.09130859 243.07080078 C16.78766561 249.68276614 22.42077308 254.21513366 28.28271484 258.84423828 C41.87946549 269.62330346 54.51692978 282.32590975 65.09130859 296.07080078 C66.09475236 297.34590445 67.09869549 298.62061524 68.10302734 299.89501953 C97.70902129 337.74313765 131.51731381 386.79018107 126.73193359 436.82861328 C125.1724284 445.57448698 120.87537816 451.48158873 115.09130859 458.07080078 C114.39908203 458.88548828 113.70685547 459.70017578 112.99365234 460.53955078 C104.76774195 469.51886231 91.8408263 477.796865 79.42724609 478.50439453 C77.77376914 478.52806292 76.11982998 478.52862965 74.46630859 478.50830078 C73.58894043 478.50000244 72.71157227 478.4917041 71.80761719 478.4831543 C58.38425576 478.13817857 43.9427552 473.74513716 33.56396484 464.92236328 C23.37799717 454.14564529 16.15775091 440.88300043 9.81448364 427.60678101 C0.66936286 408.52509588 -9.4774795 390.49680993 -22.90869141 374.07080078 C-23.60994141 373.17876953 -24.31119141 372.28673828 -25.03369141 371.36767578 C-37.57451574 355.59943343 -51.6237531 341.90676109 -67.90869141 330.07080078 C-73.99147996 334.39893879 -79.46569792 339.22048549 -84.91650391 344.30126953 C-87.44743192 346.65967075 -90.04475986 348.92951333 -92.65869141 351.19580078 C-102.78966112 360.29567019 -112.0415677 370.5312316 -120.49853516 381.18798828 C-124.28251133 385.71404082 -128.3527353 389.96661617 -132.41870117 394.23901367 C-136.09919985 398.11078313 -139.66197122 402.05573138 -143.16259766 406.09057617 C-146.05605948 409.37201757 -149.08242682 412.52528065 -152.09619141 415.69580078 C-162.19757781 426.40863615 -171.61914053 437.63070365 -180.92651367 449.03540039 C-193.92288181 464.92920651 -206.62608314 476.41927406 -227.90869141 479.07080078 C-243.98319068 479.76900603 -261.21189925 476.25920305 -273.72119141 465.69580078 C-274.44306641 464.82955078 -275.16494141 463.96330078 -275.90869141 463.07080078 C-276.60865234 462.26255859 -276.60865234 462.26255859 -277.32275391 461.43798828 C-287.0869252 449.47061937 -291.69774236 434.06997388 -291.32275391 418.74658203 C-288.38734252 392.6878828 -270.03183715 371.67236459 -251.94335938 354.09106445 C-248.98968046 351.21099077 -246.17983608 348.2796932 -243.48681641 345.15283203 C-239.2069814 340.19319555 -234.54343068 335.65506612 -229.86962891 331.07080078 C-225.92186771 327.16876655 -222.17437151 323.16984228 -218.55224609 318.96386719 C-216.11830079 316.16041919 -213.57343794 313.46551252 -211.03369141 310.75830078 C-207.36594239 306.82144287 -203.83683679 302.83570882 -200.47119141 298.63330078 C-195.88607245 292.92069355 -190.91325664 287.61969511 -185.90478516 282.28173828 C-183.66954407 279.89720593 -181.48168861 277.48318018 -179.34619141 275.00830078 C-174.8594879 269.81433366 -170.15991173 264.81277811 -165.49365234 259.78076172 C-160.95641738 254.88569183 -156.4325956 249.97818824 -151.90869141 245.07080078 C-151.17489258 244.27512695 -151.17489258 244.27512695 -150.42626953 243.46337891 C-143.89418778 236.37611358 -137.44814054 229.23260275 -131.20166016 221.89111328 C-125.80483248 215.55517064 -120.35209553 209.29712025 -114.70043945 203.18676758 C-112.24894607 200.53613203 -109.83209994 197.86488336 -107.47119141 195.13330078 C-102.91894195 189.88571966 -98.16277122 184.82427478 -93.44189453 179.72900391 C-91.08887788 177.18414896 -88.74846199 174.62782972 -86.40869141 172.07080078 C-83.0574429 168.40927393 -79.69688942 164.75667081 -76.32592773 161.11328125 C-65.69265205 149.67091259 -65.69265205 149.67091259 -55.59619141 137.75830078 C-51.54178794 132.73514604 -47.23376567 128.00206189 -42.8059082 123.30981445 C-40.03464897 120.42652361 -40.03464897 120.42652361 -37.90869141 117.07080078 C-46.74193373 116.91934291 -55.57528356 116.77473325 -64.40869141 116.63330078 C-65.10398453 116.62213226 -65.79927765 116.61096375 -66.51564026 116.59945679 C-86.77629156 116.27504429 -107.03704012 116.01603337 -127.29931641 115.81689453 C-128.34464539 115.80653231 -129.38997437 115.79617008 -130.46697998 115.78549385 C-139.90755737 115.69202565 -149.34813938 115.59929934 -158.78881836 115.51663208 C-172.16258975 115.39935687 -185.53568457 115.25628315 -198.90869141 115.07080078 C-200.24179855 115.05321716 -200.24179855 115.05321716 -201.60183716 115.03527832 C-206.73382546 114.96649105 -211.86511705 114.8820914 -216.99643707 114.77415466 C-218.53577627 114.74350045 -220.07521035 114.71719874 -221.61470795 114.69593811 C-242.38514067 114.3973702 -262.9764298 110.18682455 -278.10791016 94.84033203 C-282.26740413 89.74247065 -285.37908052 84.13074773 -287.90869141 78.07080078 C-288.39015625 76.92998047 -288.39015625 76.92998047 -288.88134766 75.76611328 C-293.18381837 63.23891949 -292.97942659 46.7826474 -287.38525391 34.75048828 C-279.73024977 20.85807336 -269.80986569 8.94146898 -254.42431641 3.93017578 C-242.66119304 1.05474562 -231.33088971 0.76505572 -219.29614258 0.75195312 C-217.32474937 0.7426408 -215.35336002 0.73247768 -213.38197517 0.72153759 C-208.02737756 0.69428607 -202.67280611 0.67910546 -197.31815743 0.66612172 C-191.62281661 0.65024709 -185.9275274 0.62324107 -180.23222351 0.59764099 C-169.28785623 0.55026886 -158.3434791 0.51337906 -147.39905924 0.48062855 C-138.62338627 0.45421052 -129.84773377 0.42403716 -121.07208252 0.39120483 C-119.21292021 0.38426168 -119.21292021 0.38426168 -117.31619906 0.37717825 C-114.814284 0.36782927 -112.31236894 0.35847741 -109.81045389 0.34912264 C-86.65537616 0.2631167 -63.50027379 0.19064601 -40.34512711 0.12609577 C-26.89673316 0.08856264 -13.44836455 0.04685288 0 0 Z " fill="#000000" transform="translate(4159.90869140625,271.92919921875)"/>
<path d="M0 0 C1.31484375 0.00773437 1.31484375 0.00773437 2.65625 0.015625 C14.19302009 0.47974793 23.53128567 6.53213372 32 14 C32.75023438 14.65613281 33.50046875 15.31226563 34.2734375 15.98828125 C43.55174495 24.64909043 50.32138954 34.86608674 51.18165052 47.71264696 C51.25385265 50.80840907 51.26181725 53.89811337 51.24723816 56.99468994 C51.24965257 58.17683822 51.25206699 59.35898651 51.25455457 60.57695746 C51.25919559 63.83730902 51.25492906 67.09750474 51.24679029 70.35784483 C51.24018136 73.88399348 51.24516931 77.41012883 51.24867249 80.9362793 C51.25370648 87.84366866 51.24807926 94.75101001 51.23882218 101.65839341 C51.22839063 109.7368384 51.2285098 117.81527324 51.22899476 125.8937237 C51.22949533 140.34810448 51.22034387 154.80246315 51.20581055 169.25683594 C51.19179672 183.20215255 51.1846367 197.14744968 51.18530273 211.09277344 C51.18536267 212.37511184 51.18536267 212.37511184 51.18542381 213.68335608 C51.18546417 214.53692488 51.18550452 215.39049369 51.1855461 216.26992822 C51.18624237 232.22569831 51.18030001 248.18146029 51.17139288 264.13722773 C51.16883333 268.94255682 51.16745748 273.74788447 51.16706113 278.55321421 C51.16135844 345.72433318 51.16135844 345.72433318 50 376 C50.91431919 375.97287776 51.82863838 375.94575552 52.77066422 375.91781139 C87.03107151 374.92335074 121.29661158 374.67365097 155.56851482 374.42888474 C160.40754182 374.39430415 165.24656076 374.35867409 170.08557892 374.3228817 C183.55869208 374.2234205 197.03181298 374.12521532 210.50497055 374.03194141 C211.35738654 374.02603819 212.20980253 374.02013496 213.08804931 374.01405285 C213.94203728 374.00814013 214.79602525 374.00222742 215.67589164 373.99613553 C217.40534704 373.98416082 219.13480244 373.972184 220.86425781 373.96020508 C221.72205637 373.95426473 222.57985494 373.94832438 223.4636474 373.94220402 C237.44514609 373.84512708 251.42655511 373.73851406 265.40795299 373.62794808 C279.85763654 373.51381546 294.30736072 373.40757744 308.75716043 373.30921859 C316.83333132 373.25406352 324.90944691 373.1956098 332.98552704 373.12836647 C339.83590781 373.07136384 346.68629399 373.02161243 353.5367932 372.98114447 C357.02234664 372.96034259 360.50779037 372.93626092 363.99324799 372.90288162 C391.06812181 372.65656085 410.27191516 374.1062824 430.9375 393.4375 C435.15757022 397.84835097 437.83648797 402.30699384 440 408 C440.31839844 408.83402344 440.63679688 409.66804688 440.96484375 410.52734375 C445.07194294 423.71927063 445.34360961 441.55676577 439 454 C432.26052618 466.55357947 422.68147336 478.68805678 408.8125 483.25 C396.87523347 486.8170993 384.79609478 487.29442711 372.43473816 487.26742554 C370.79324887 487.27116944 369.15176135 487.27577388 367.51027662 487.28115618 C363.03269085 487.29330984 358.55518023 487.29313481 354.07758176 487.29076743 C349.23559332 487.29035733 344.39362835 487.30141664 339.551651 487.31088257 C330.07841683 487.32745065 320.60520757 487.33299018 311.13196012 487.33410732 C303.42836098 487.33505962 295.72477002 487.33917894 288.02117348 487.34550858 C266.15468956 487.36310812 244.28822523 487.37234925 222.42173418 487.37084763 C221.24446375 487.37076772 220.06719333 487.3706878 218.85424805 487.37060547 C217.08617376 487.37048283 217.08617376 487.37048283 215.2823808 487.37035771 C196.17893023 487.36954476 177.0755585 487.3886879 157.97213074 487.4168822 C138.33202078 487.44563874 118.69194925 487.45942103 99.05181772 487.45769465 C88.03528117 487.4570318 77.01882732 487.46247847 66.0023098 487.48405075 C56.62376102 487.50229882 47.24533245 487.50657998 37.86677357 487.4930319 C33.08701295 487.48652109 28.30748271 487.48631666 23.52774429 487.5037384 C19.14239994 487.51955754 14.75746696 487.51651619 10.3721321 487.49917014 C8.79552854 487.49611963 7.21889359 487.49965808 5.64232709 487.51089029 C-15.58828352 487.65199028 -33.38592698 481.76940425 -49.140625 466.9921875 C-57.95408231 457.52730074 -61.21752838 446.29787728 -61.40692139 433.61279297 C-61.42577534 432.80011082 -61.4446293 431.98742867 -61.46405458 431.15011978 C-61.52398048 428.3892427 -61.56884579 425.62837043 -61.61230469 422.8671875 C-61.6306743 421.87268459 -61.64904391 420.87818169 -61.66797018 419.85354233 C-62.2700521 387.13077378 -62.18395467 354.39578034 -62.20018864 321.6687088 C-62.202992 316.07200532 -62.20723449 310.47530345 -62.21169281 304.87860107 C-62.22382191 289.3001415 -62.23414833 273.72168317 -62.2375679 258.14321899 C-62.23778747 257.15722005 -62.23800703 256.17122111 -62.23823325 255.15534341 C-62.23845153 254.1675038 -62.23866981 253.17966418 -62.2388947 252.16189003 C-62.23933812 250.1613121 -62.23978468 248.16073418 -62.24023438 246.16015625 C-62.2404558 245.16787923 -62.24067723 244.1756022 -62.24090537 243.15325618 C-62.24487617 226.98064141 -62.26242746 210.80807103 -62.2855939 194.63547349 C-62.30933191 177.92667802 -62.32177006 161.21790493 -62.32293582 144.50909233 C-62.32384868 135.16816625 -62.32950696 125.82729893 -62.34775543 116.48638916 C-62.36318635 108.56268172 -62.36825743 100.63905142 -62.36001733 92.71533179 C-62.35612786 88.682808 -62.35695825 84.65043956 -62.37107468 80.61793518 C-62.38390874 76.91808957 -62.38253428 73.21851463 -62.37048396 69.51866889 C-62.36763489 67.56853705 -62.37938702 65.61840009 -62.39190602 63.66830635 C-62.32790212 52.08903469 -60.97111929 40.07817312 -55.375 29.75 C-55.02727539 29.08943604 -54.67955078 28.42887207 -54.32128906 27.74829102 C-47.85854169 15.88214491 -40.00255101 7.64465422 -27.10546875 2.9453125 C-18.15664727 0.31698731 -9.28017255 -0.27952327 0 0 Z " fill="#000000" transform="translate(2588,317)"/>
<path d="M0 0 C10.27957527 8.41846774 16.51081801 23.20437029 19 36 C19.17207977 36.81326752 19.34415955 37.62653503 19.52145386 38.46444702 C20.17864519 43.31985085 20.13900004 48.10431145 20.12939453 52.99853516 C20.13202301 54.64947678 20.13202301 54.64947678 20.13470459 56.33377075 C20.13911373 59.98555063 20.13618071 63.63728209 20.1328125 67.2890625 C20.13348762 69.86550913 20.13445937 72.44195569 20.13571167 75.0184021 C20.13718886 80.44733335 20.13513739 85.87624684 20.13037109 91.30517578 C20.12561467 96.78370054 20.12547347 102.26219802 20.13037109 107.74072266 C20.15899465 140.50752742 19.96474941 173.24605289 19 206 C20.22264557 205.97494385 21.44529114 205.9498877 22.70498657 205.92407227 C126.74591048 203.79967906 126.74591048 203.79967906 165.51092529 203.64550781 C168.39099444 203.63390814 171.27075262 203.61320945 174.1506958 203.58398438 C198.87003885 203.34509421 218.76625073 205.24206752 237.265625 223.19921875 C247.56131081 234.12408536 249.35808815 246.24294319 249.375 260.8125 C249.39949219 261.91142578 249.42398438 263.01035156 249.44921875 264.14257812 C249.49362188 276.70126318 245.77742706 286.2501533 238 296 C237.13955078 297.175625 237.13955078 297.175625 236.26171875 298.375 C226.58854182 310.63735705 209.86538059 314.90652843 195 317 C192.33892575 317.09160011 189.70474588 317.13791478 187.04432869 317.13142776 C186.2571054 317.1334804 185.46988212 317.13553303 184.65880358 317.13764787 C182.01683352 317.14330926 179.37491573 317.14186167 176.73294067 317.14044189 C174.82113265 317.14302604 172.90932516 317.14603934 170.99751842 317.1494453 C165.74022981 317.15751304 160.48295486 317.15930475 155.2256608 317.16004276 C149.5566919 317.16189376 143.88773007 317.16944143 138.21876526 317.17617798 C125.81968232 317.1897612 113.42060261 317.19578628 101.02151346 317.20018864 C93.27738152 317.20295162 85.53325082 317.20718913 77.78911972 317.21169281 C56.34301112 317.22388648 34.89690414 317.2342203 13.45079231 317.2375679 C12.06422311 317.23778953 10.6776539 317.23801132 9.2910847 317.23823325 C7.9012111 317.23845389 6.5113375 317.23867437 5.12146389 317.2388947 C2.33325458 317.23933725 -0.45495474 317.23978436 -3.24316406 317.24023438 C-3.93447645 317.24034377 -4.62578884 317.24045316 -5.33805009 317.24056586 C-27.73947164 317.24419418 -50.14086079 317.26010553 -72.54226994 317.28342474 C-96.24094386 317.30804912 -119.93959385 317.32173528 -143.63828194 317.32293582 C-156.55074151 317.32385177 -169.46315867 317.32958373 -182.37560654 317.34775543 C-193.37375663 317.36317862 -204.37185121 317.36826385 -215.37001006 317.36001733 C-220.97801368 317.35611843 -226.58590557 317.35700323 -232.19389534 317.37107468 C-237.33626676 317.38385933 -242.47844301 317.38257612 -247.62081434 317.37048396 C-249.47286083 317.36853483 -251.32492137 317.37156881 -253.17694817 317.38032833 C-268.96166108 317.45020782 -283.61202816 316.14267361 -298 309 C-298.87269531 308.59265625 -299.74539062 308.1853125 -300.64453125 307.765625 C-311.7367967 301.97242953 -318.47126901 290.34409992 -323 279 C-327.59307136 263.56349212 -325.56955742 247.62446839 -318.3125 233.3125 C-310.24064293 219.47795003 -300.9798814 210.92365696 -285.609375 206.27734375 C-274.22720268 203.5136868 -262.49149116 203.90513205 -250.87036133 204.07006836 C-249.16433261 204.09010973 -247.45829798 204.10965258 -245.7522583 204.1287384 C-241.15174467 204.18160198 -236.55134457 204.24138303 -231.95093369 204.30246425 C-227.13170043 204.365255 -222.3123918 204.42160331 -217.49308777 204.47865295 C-208.38086602 204.58749085 -199.26872601 204.70207116 -190.15660161 204.81874615 C-179.77691224 204.95136952 -169.39714755 205.0775432 -159.01737177 205.20319164 C-137.67815669 205.46164906 -116.33904843 205.72815242 -95 206 C-95.01197292 205.13373899 -95.02394585 204.26747797 -95.03628159 203.37496662 C-96.20607701 118.49911451 -96.20607701 118.49911451 -96.24023438 89.46313477 C-96.2448213 86.17006529 -96.25954854 82.87722925 -96.28125 79.58422852 C-96.30897491 75.37161804 -96.32164484 71.15921114 -96.32357025 66.94651222 C-96.32651904 65.41066499 -96.33426745 63.87481634 -96.34775543 62.3390255 C-96.52500155 40.89500119 -91.89297552 17.39318368 -77 1 C-54.04346378 -15.4072718 -23.37917315 -15.73295636 0 0 Z " fill="#000000" transform="translate(2807,936)"/>
<path d="M0 0 C10.27957527 8.41846774 16.51081801 23.20437029 19 36 C19.17207977 36.81326752 19.34415955 37.62653503 19.52145386 38.46444702 C20.17864519 43.31985085 20.13900004 48.10431145 20.12939453 52.99853516 C20.13202301 54.64947678 20.13202301 54.64947678 20.13470459 56.33377075 C20.13911373 59.98555063 20.13618071 63.63728209 20.1328125 67.2890625 C20.13348762 69.86550913 20.13445937 72.44195569 20.13571167 75.0184021 C20.13718886 80.44733335 20.13513739 85.87624684 20.13037109 91.30517578 C20.12561467 96.78370054 20.12547347 102.26219802 20.13037109 107.74072266 C20.15899465 140.50752742 19.96474941 173.24605289 19 206 C20.22264557 205.97494385 21.44529114 205.9498877 22.70498657 205.92407227 C126.74591048 203.79967906 126.74591048 203.79967906 165.51092529 203.64550781 C168.39099444 203.63390814 171.27075262 203.61320945 174.1506958 203.58398438 C198.87003885 203.34509421 218.76625073 205.24206752 237.265625 223.19921875 C247.56131081 234.12408536 249.35808815 246.24294319 249.375 260.8125 C249.39949219 261.91142578 249.42398438 263.01035156 249.44921875 264.14257812 C249.49362188 276.70126318 245.77742706 286.2501533 238 296 C237.13955078 297.175625 237.13955078 297.175625 236.26171875 298.375 C226.58854182 310.63735705 209.86538059 314.90652843 195 317 C192.33892575 317.09160011 189.70474588 317.13791478 187.04432869 317.13142776 C186.2571054 317.1334804 185.46988212 317.13553303 184.65880358 317.13764787 C182.01683352 317.14330926 179.37491573 317.14186167 176.73294067 317.14044189 C174.82113265 317.14302604 172.90932516 317.14603934 170.99751842 317.1494453 C165.74022981 317.15751304 160.48295486 317.15930475 155.2256608 317.16004276 C149.5566919 317.16189376 143.88773007 317.16944143 138.21876526 317.17617798 C125.81968232 317.1897612 113.42060261 317.19578628 101.02151346 317.20018864 C93.27738152 317.20295162 85.53325082 317.20718913 77.78911972 317.21169281 C56.34301112 317.22388648 34.89690414 317.2342203 13.45079231 317.2375679 C12.06422311 317.23778953 10.6776539 317.23801132 9.2910847 317.23823325 C7.9012111 317.23845389 6.5113375 317.23867437 5.12146389 317.2388947 C2.33325458 317.23933725 -0.45495474 317.23978436 -3.24316406 317.24023438 C-3.93447645 317.24034377 -4.62578884 317.24045316 -5.33805009 317.24056586 C-27.73947164 317.24419418 -50.14086079 317.26010553 -72.54226994 317.28342474 C-96.24094386 317.30804912 -119.93959385 317.32173528 -143.63828194 317.32293582 C-156.55074151 317.32385177 -169.46315867 317.32958373 -182.37560654 317.34775543 C-193.37375663 317.36317862 -204.37185121 317.36826385 -215.37001006 317.36001733 C-220.97801368 317.35611843 -226.58590557 317.35700323 -232.19389534 317.37107468 C-237.33626676 317.38385933 -242.47844301 317.38257612 -247.62081434 317.37048396 C-249.47286083 317.36853483 -251.32492137 317.37156881 -253.17694817 317.38032833 C-268.96166108 317.45020782 -283.61202816 316.14267361 -298 309 C-298.87269531 308.59265625 -299.74539063 308.1853125 -300.64453125 307.765625 C-311.7367967 301.97242953 -318.47126901 290.34409992 -323 279 C-327.59307136 263.56349212 -325.56955742 247.62446839 -318.3125 233.3125 C-310.24064293 219.47795003 -300.9798814 210.92365696 -285.609375 206.27734375 C-274.22720268 203.5136868 -262.49149116 203.90513205 -250.87036133 204.07006836 C-249.16433261 204.09010973 -247.45829798 204.10965258 -245.7522583 204.1287384 C-241.15174467 204.18160198 -236.55134457 204.24138303 -231.95093369 204.30246425 C-227.13170043 204.365255 -222.3123918 204.42160331 -217.49308777 204.47865295 C-208.38086602 204.58749085 -199.26872601 204.70207116 -190.15660161 204.81874615 C-179.77691224 204.95136952 -169.39714755 205.0775432 -159.01737177 205.20319164 C-137.67815669 205.46164906 -116.33904843 205.72815242 -95 206 C-95.01197292 205.13373899 -95.02394585 204.26747797 -95.03628159 203.37496662 C-96.20607701 118.49911451 -96.20607701 118.49911451 -96.24023438 89.46313477 C-96.2448213 86.17006529 -96.25954854 82.87722925 -96.28125 79.58422852 C-96.30897491 75.37161804 -96.32164484 71.15921114 -96.32357025 66.94651222 C-96.32651904 65.41066499 -96.33426745 63.87481634 -96.34775543 62.3390255 C-96.52500155 40.89500119 -91.89297552 17.39318368 -77 1 C-54.04346378 -15.4072718 -23.37917315 -15.73295636 0 0 Z " fill="#000000" transform="translate(2169,935)"/>
<path d="M0 0 C1.26457031 0.93005859 1.26457031 0.93005859 2.5546875 1.87890625 C4.74515555 3.54150741 6.87733522 5.25216278 9 7 C9.81210937 7.61359375 10.62421875 8.2271875 11.4609375 8.859375 C14.2492029 11.21009722 16.40837097 13.71842557 18.6875 16.5625 C19.45449219 17.51253906 20.22148437 18.46257812 21.01171875 19.44140625 C24.63923321 24.10942585 25.29139741 26.93394683 25.26844215 32.69584942 C25.27314661 33.49142979 25.27785107 34.28701016 25.28269809 35.10669902 C25.29610173 37.79520101 25.29516096 40.4835102 25.29434204 43.17204285 C25.30093791 45.11013771 25.30838875 47.04822982 25.316625 48.98631841 C25.33669865 54.33019755 25.34410401 59.67403175 25.34940362 65.01794326 C25.35720017 70.77491604 25.37635796 76.53185308 25.39382935 82.2888031 C25.43339241 96.20394527 25.45349802 110.11909042 25.47128493 124.03427479 C25.48004802 130.58669266 25.49078259 137.13910729 25.50126266 143.6915226 C25.5352959 165.47463307 25.56433152 187.25774062 25.57876015 209.04087353 C25.57970966 210.45004742 25.58066144 211.85922131 25.58161547 213.2683952 C25.58208822 213.96721466 25.58256098 214.66603412 25.58304805 215.38602993 C25.58545043 218.92654276 25.58788133 222.46705556 25.59033203 226.00756836 C25.59105248 227.06150578 25.59105248 227.06150578 25.59178749 228.13673487 C25.60755979 250.89780332 25.65439044 273.65866286 25.71944392 296.41964015 C25.7881161 320.49078126 25.82746753 344.56179951 25.83404863 368.63304025 C25.83837669 381.7513393 25.85584152 394.8693316 25.90697098 407.98753929 C25.9504286 419.16334796 25.96646489 430.33877543 25.94703741 441.51465901 C25.93795938 447.21403503 25.94167126 452.91262495 25.9805603 458.6118927 C26.01591164 463.83803497 26.01376042 469.06282034 25.98276572 474.2889779 C25.97802649 476.17141123 25.98659396 478.05393959 26.01042302 479.93622806 C26.15528041 492.14285541 24.72150657 503.04845959 17 513 C13.13267372 516.76496704 8.74648596 519.46405242 4 522 C3.03320312 522.52078125 2.06640625 523.0415625 1.0703125 523.578125 C-12.95550702 530.49170176 -32.828355 532.02528684 -47.8125 527.4375 C-53.64460461 525.00531541 -58.88519626 521.68392356 -64 518 C-65.08087891 517.28457031 -65.08087891 517.28457031 -66.18359375 516.5546875 C-78.16741433 507.63106282 -82.91276128 488.99200038 -85 475 C-85.21934218 472.3985336 -85.40879971 469.81076873 -85.55414295 467.20547009 C-85.61732617 466.09179804 -85.61732617 466.09179804 -85.68178581 464.95562757 C-86.10681744 456.87410204 -86.14247486 448.80314974 -86.13371277 440.71247864 C-86.13558652 439.04136453 -86.13788944 437.37025086 -86.14057809 435.69913787 C-86.14663218 431.1583345 -86.14657016 426.61754972 -86.14538372 422.07674325 C-86.14517809 417.15988839 -86.15071357 412.24303926 -86.15544128 407.32618713 C-86.16371167 397.71514194 -86.16649442 388.10410288 -86.16705366 378.49305443 C-86.16753025 370.67893388 -86.1695921 362.86481533 -86.17275429 355.05069542 C-86.18154861 332.86569073 -86.18617522 310.68069086 -86.18542381 288.49568442 C-86.18538386 287.30222819 -86.1853439 286.10877196 -86.18530273 284.87915039 C-86.18526185 283.68422789 -86.18522097 282.4893054 -86.18517885 281.25817313 C-86.18477205 261.87559064 -86.19435354 242.49302754 -86.2084411 223.11045066 C-86.22281297 203.17868476 -86.22971094 183.24692833 -86.22884732 163.31515712 C-86.22851579 152.13668445 -86.23124444 140.95823216 -86.24202538 129.77976418 C-86.25114071 120.26806683 -86.25329688 110.75639911 -86.24651595 101.24469928 C-86.24325686 96.39636304 -86.24317214 91.5480836 -86.2518692 86.69975281 C-86.25976137 82.2543312 -86.2582752 77.8090112 -86.24958507 73.36359199 C-86.24805613 71.76291905 -86.24984316 70.16223842 -86.25544515 68.56157456 C-86.32341241 47.74880502 -82.77815256 30.12345091 -72 12 C-71.62488281 11.30132812 -71.24976562 10.60265625 -70.86328125 9.8828125 C-65.59688445 1.07285503 -53.49521046 -3.43025427 -44 -6 C-28.40716349 -9.5377089 -13.12702066 -9.89424692 0 0 Z " fill="#000000" transform="translate(4475,252)"/>
<path d="M0 0 C19.02977014 15.02350274 36.32781853 35.47116072 39.8125 60.28515625 C43.01509557 89.9271758 38.18018906 122.30900681 19.609375 146.546875 C16.96184784 149.82521919 14.1302672 152.91084072 11.24609375 155.98046875 C10.38242188 156.93566406 9.51875 157.89085937 8.62890625 158.875 C-7.81129265 176.31527035 -31.80614956 188.36889052 -55.95703125 189.21875 C-68.76783118 189.45464894 -80.47962199 188.75561392 -92.75390625 184.98046875 C-93.43888184 184.77147949 -94.12385742 184.56249023 -94.82958984 184.34716797 C-121.21628341 176.0016963 -141.80405955 158.63962006 -154.9765625 134.4765625 C-166.81587371 111.18824705 -172.09297863 85.55602402 -164.75390625 59.98046875 C-164.48707031 58.93246094 -164.22023438 57.88445312 -163.9453125 56.8046875 C-159.05745242 39.01287682 -149.3023334 24.29806394 -136.75390625 10.98046875 C-136.15191406 10.30242188 -135.54992188 9.624375 -134.9296875 8.92578125 C-101.29716739 -27.40609514 -38.51789151 -28.24645377 0 0 Z " fill="#36C5F0" transform="translate(1207.75390625,609.01953125)"/>
</svg>
