<?xml version="1.0" encoding="UTF-8"?>
<svg version="1.1" xmlns="http://www.w3.org/2000/svg" width="296" height="117">
<path d="M0 0 C2.0734776 3.11021641 2.25199626 3.79223147 2.26742554 7.3200531 C2.27595551 8.20188263 2.28448547 9.08371216 2.29327393 9.99226379 C2.29236755 10.95702133 2.29146118 11.92177887 2.29052734 12.91577148 C2.29724457 13.9339093 2.30396179 14.95204712 2.31088257 16.0010376 C2.32991669 19.37443897 2.33378939 22.74764199 2.3359375 26.12109375 C2.3423612 28.46135033 2.34908923 30.80160609 2.35610962 33.14186096 C2.36809562 38.05040347 2.37178903 42.95887553 2.37060547 47.86743164 C2.3704021 54.16381054 2.39771694 60.45973896 2.43214989 66.75601101 C2.45436231 71.59009383 2.45844476 76.42406723 2.45738602 81.25819588 C2.45975003 83.57988095 2.46861824 85.90156868 2.48405075 88.22320366 C2.50359767 91.46740362 2.49791691 94.71061892 2.48583984 97.95483398 C2.49707886 98.91756729 2.50831787 99.8803006 2.51989746 100.87220764 C2.45855127 107.34139543 2.45855127 107.34139543 0.16494751 110.63563538 C-2 112 -2 112 -5.125 111.875 C-8 111 -8 111 -10 109 C-10.31884766 106.84521484 -10.31884766 106.84521484 -10.4140625 104.2109375 C-10.45273438 103.26992187 -10.49140625 102.32890625 -10.53125 101.359375 C-10.5621875 100.37453125 -10.593125 99.3896875 -10.625 98.375 C-10.68300781 96.88613281 -10.68300781 96.88613281 -10.7421875 95.3671875 C-10.8366314 92.91164615 -10.92219875 90.4561159 -11 88 C-12.24007812 88.2165625 -13.48015625 88.433125 -14.7578125 88.65625 C-25.54533454 90.40291951 -36.24172373 91.33799679 -47.16522217 91.421875 C-49.17098426 91.43737239 -51.17658404 91.4705663 -53.18212891 91.50390625 C-54.41495605 91.50132813 -55.6477832 91.49875 -56.91796875 91.49609375 C-58.56962036 91.49887329 -58.56962036 91.49887329 -60.25463867 91.50170898 C-63 91 -63 91 -64.8918457 89.16430664 C-66.45590024 86.10959338 -65.91562775 84.23991357 -65 81 C-62.16198613 78.16198613 -59.30386617 78.5985716 -55.4921875 78.47265625 C-53.9309877 78.40173409 -52.36978985 78.33076902 -50.80859375 78.25976562 C-48.36518833 78.16015844 -45.92168007 78.06428295 -43.47802734 77.97094727 C-41.10723147 77.87702296 -38.73734397 77.76889733 -36.3671875 77.66015625 C-35.66858612 77.63816666 -34.96998474 77.61617706 -34.25021362 77.59352112 C-26.37880493 77.22528011 -18.7092792 75.53919202 -11 74 C-10.99635437 73.10464035 -10.99270874 72.2092807 -10.98895264 71.28678894 C-10.95111007 62.8551498 -10.89430024 54.42389894 -10.81609726 45.99253368 C-10.77656188 41.65768592 -10.74440339 37.32304314 -10.72900391 32.98803711 C-10.71387687 28.80566559 -10.67950281 24.62385737 -10.63169098 20.44173622 C-10.61683613 18.84497278 -10.60895664 17.24812893 -10.60811615 15.65129662 C-10.60575689 13.41690153 -10.5787657 11.18407647 -10.54589844 8.94995117 C-10.53257477 7.04133553 -10.53257477 7.04133553 -10.51898193 5.09416199 C-10 2 -10 2 -8.16119385 0.05781555 C-5.08309989 -1.44878491 -3.22483291 -0.98147088 0 0 Z " fill="#2F3438" transform="translate(209,2)"/>
<path d="M0 0 C2 3 2 3 2 14 C12.89 14 23.78 14 35 14 C35 10.37 35 6.74 35 3 C37 0 37 0 39.8125 -1 C43 -1 43 -1 45.66210938 1.06323242 C48.5321978 4.66852625 48.62021194 6.42870933 48.59375 10.98828125 C48.59379028 11.65031052 48.59383057 12.31233978 48.59387207 12.99443054 C48.58853087 14.39050827 48.57100726 15.78658665 48.54199219 17.18237305 C48.50031802 19.29636787 48.50091338 21.40714978 48.5078125 23.52148438 C48.45215147 36.965809 48.45215147 36.965809 45 43 C40.96360398 46.99987308 37.2306618 48.57329365 31.59277344 48.66908264 C30.8196582 48.65582443 30.04654297 48.64256622 29.25 48.62890625 C28.43305664 48.63131821 27.61611328 48.63373016 26.77441406 48.63621521 C25.05659097 48.63524085 23.33873487 48.62194586 21.62109375 48.59692383 C19.0067165 48.56258821 16.39572086 48.57629117 13.78125 48.59570312 C12.10415242 48.588804 10.42706349 48.57913101 8.75 48.56640625 C7.97688477 48.57136612 7.20376953 48.57632599 6.40722656 48.58143616 C0.85239669 48.46218416 -2.47401875 47.28154751 -7 44 C-10.51468517 39.91532947 -10.45319584 35.69240361 -10.43359375 30.5234375 C-10.4388356 29.7163736 -10.44407745 28.90930969 -10.44947815 28.07778931 C-10.45588101 26.37836861 -10.45458387 24.67890349 -10.44604492 22.97949219 C-10.4375038 20.37615716 -10.46636739 17.77499519 -10.49804688 15.171875 C-10.49965826 13.51822982 -10.49908255 11.86458076 -10.49609375 10.2109375 C-10.50732773 9.43277679 -10.51856171 8.65461609 -10.53013611 7.85287476 C-10.4609132 2.50743975 -10.4609132 2.50743975 -8.16430664 -0.02099609 C-5.08185854 -1.41531272 -3.18960467 -0.97074925 0 0 Z M2 26 C2 28.64 2 31.28 2 34 C3.86825491 36.29803332 3.86825491 36.29803332 6.85742188 36.24291992 C8.04916016 36.23881104 9.24089844 36.23470215 10.46875 36.23046875 C11.76167969 36.22853516 13.05460937 36.22660156 14.38671875 36.22460938 C15.06138184 36.21840576 15.73604492 36.21220215 16.43115234 36.20581055 C18.49198782 36.18757091 20.55237353 36.18530077 22.61328125 36.18554688 C28.99325368 36.52060518 28.99325368 36.52060518 35 35 C35 32.03 35 29.06 35 26 C24.11 26 13.22 26 2 26 Z " fill="#2F3438" transform="translate(244,67)"/>
<path d="M0 0 C6.32129395 4.59164856 9.64476043 10.77914419 11.58203125 18.2421875 C13.3998576 30.23644358 13.19229256 44.05440944 6.38671875 54.46875 C2.01247071 59.82259683 -2.42841899 62.73872653 -9.3125 63.8125 C-16.80627224 64.41805735 -23.12889854 62.80362847 -29 58 C-38.1339175 48.44124913 -38.37594749 38.11510501 -38.21875 25.6953125 C-37.94233173 16.97777146 -35.58388905 9.75535622 -29.43359375 3.375 C-21.11863212 -4.36330881 -9.97598709 -5.04182081 0 0 Z M-23 15 C-27.28074125 22.94994804 -26.85591561 33.34728193 -24.76953125 41.91796875 C-23.31752913 45.8464821 -20.79855288 49.10072356 -17 51 C-11.32858781 51.4865354 -11.32858781 51.4865354 -6.1875 49.4375 C-0.36537808 42.94999272 -0.01001987 35.43673424 0 27 C-0.5167374 20.14148543 -2.05606154 15.82034 -7 11 C-13.58234421 7.7088279 -18.45735279 10.13287798 -23 15 Z " fill="#2F3438" transform="translate(46,6)"/>
<path d="M0 0 C7.67559072 6.24757384 9.91665364 14.49062638 11 24 C11.92508872 34.11105738 10.48181432 46.04834141 4.4375 54.44921875 C0.24810279 58.96875868 -4.65423296 60.69341826 -10.73828125 61.0859375 C-16.747498 60.85760802 -20.69403163 58.70068691 -24.8125 54.375 C-32.18319451 45.07348574 -32.52002407 33.10292051 -31.78515625 21.65234375 C-30.7843765 14.26563611 -28.74738007 6.6465537 -23.2578125 1.3046875 C-15.84052517 -4.26623646 -8.12516374 -4.36351386 0 0 Z M-15.1875 12.0625 C-20.10127258 20.02620039 -20.27290181 29.74883155 -18.4296875 38.80078125 C-17.23345309 42.64761927 -16.14926038 45.36766367 -13 48 C-10.54327108 48.66685938 -10.54327108 48.66685938 -8 48 C-3.6297719 43.75463556 -2.17270456 39.18460057 -1.69921875 33.1953125 C-1.68024125 31.83866877 -1.67674374 30.48173382 -1.6875 29.125 C-1.69096436 28.41899658 -1.69442871 27.71299316 -1.69799805 26.9855957 C-1.8221346 21.04555876 -2.42371807 15.95718382 -6.453125 11.33203125 C-7.98096738 9.7977592 -7.98096738 9.7977592 -10.4375 9.5 C-13.17520771 9.79745285 -13.17520771 9.79745285 -15.1875 12.0625 Z " fill="#2F3438" transform="translate(180,6)"/>
<path d="M0 0 C0.84908432 -0.00145523 1.69816864 -0.00291046 2.57298279 -0.00440979 C4.36241092 -0.00275437 6.15185381 0.00876694 7.94116211 0.02954102 C10.67818674 0.05853647 13.4132779 0.05013505 16.15039062 0.03710938 C17.89193648 0.04334609 19.63347624 0.05173651 21.375 0.0625 C22.19174698 0.05956436 23.00849396 0.05662872 23.84999084 0.05360413 C27.16112763 0.10855016 29.67328421 0.26051684 32.63134766 1.81665039 C34.12109375 3.49609375 34.12109375 3.49609375 34.703125 6.80078125 C33.98340977 11.37024842 32.02210945 13.53320099 28.80859375 16.62109375 C25.40718203 20.01811655 22.41476612 23.22187835 20.12109375 27.49609375 C21.17296875 28.45515625 21.17296875 28.45515625 22.24609375 29.43359375 C26.65595847 33.81825924 31.83310362 40.11220974 32.37109375 46.43359375 C32.12109375 49.49609375 32.12109375 49.49609375 30.99609375 51.37109375 C28.24018491 53.02463906 26.27033923 52.88974943 23.12109375 52.49609375 C19.87328676 49.81348953 17.92697684 46.18550669 15.71875 42.65234375 C14.06533544 40.42084047 12.41307898 39.04058488 10.12109375 37.49609375 C4.50784195 42.92082813 4.50784195 42.92082813 -0.44140625 48.93359375 C-2.87890625 51.49609375 -2.87890625 51.49609375 -6.44140625 52.62109375 C-9.87890625 52.49609375 -9.87890625 52.49609375 -12.37890625 50.93359375 C-13.87890625 48.49609375 -13.87890625 48.49609375 -13.81640625 45.734375 C-12.62030945 41.60285729 -10.33857954 39.21659512 -7.37890625 36.24609375 C-6.28461457 35.10598842 -5.19086999 33.96535773 -4.09765625 32.82421875 C-3.28167969 31.98407227 -3.28167969 31.98407227 -2.44921875 31.12695312 C-0.20601031 28.79725282 1.96011844 26.40197959 4.12109375 23.99609375 C4.80171875 23.24328125 5.48234375 22.49046875 6.18359375 21.71484375 C8.2369227 19.36345092 10.1880443 16.9469243 12.12109375 14.49609375 C11.4755957 14.48674805 10.83009766 14.47740234 10.16503906 14.46777344 C7.23295431 14.41400274 4.30245367 14.33037035 1.37109375 14.24609375 C0.3553125 14.23191406 -0.66046875 14.21773437 -1.70703125 14.203125 C-9.2304065 13.95564555 -9.2304065 13.95564555 -12.546875 11.60546875 C-14.25530746 8.90003319 -14.58452642 7.6321834 -13.87890625 4.49609375 C-9.60471853 -0.09110932 -5.88981829 -0.08121301 0 0 Z " fill="#2F3438" transform="translate(235.87890625,3.50390625)"/>
<path d="M0 0 C1.875 -0.36328125 1.875 -0.36328125 4 -0.3125 C4.70125 -0.30863281 5.4025 -0.30476562 6.125 -0.30078125 C8 0 8 0 10 2 C10.24050903 3.83499146 10.24050903 3.83499146 10.22705078 6.08251953 C10.22682419 7.34360031 10.22682419 7.34360031 10.22659302 8.63015747 C10.21627045 9.53853363 10.20594788 10.44690979 10.1953125 11.3828125 C10.1924826 12.31221649 10.18965271 13.24162048 10.18673706 14.19918823 C10.17552069 17.1745885 10.1504136 20.14969035 10.125 23.125 C10.11497208 25.13931858 10.1058459 27.15364186 10.09765625 29.16796875 C10.07557661 34.11209456 10.04103693 39.05599665 10 44 C11.79401245 43.97643433 11.79401245 43.97643433 13.62426758 43.95239258 C18.05779293 43.89812939 22.49128888 43.8636631 26.92504883 43.83520508 C28.84469538 43.8201102 30.7643074 43.79963227 32.68383789 43.77368164 C35.44165564 43.73732891 38.1990178 43.72028088 40.95703125 43.70703125 C41.81649857 43.69154739 42.67596588 43.67606354 43.56147766 43.66011047 C44.36208115 43.65988388 45.16268463 43.65965729 45.98754883 43.65942383 C47.04344963 43.64943108 47.04344963 43.64943108 48.12068176 43.63923645 C50.60185208 44.11553461 51.48180818 45.01232549 53 47 C53.64110399 52.12883194 53.64110399 52.12883194 51.77600098 54.66323853 C49.46198954 56.40495004 48.08964331 56.3801399 45.20898438 56.38818359 C44.2378772 56.39764008 43.26677002 56.40709656 42.26623535 56.4168396 C41.21931519 56.41076691 40.17239502 56.40469421 39.09375 56.3984375 C37.47938049 56.40274277 37.47938049 56.40274277 35.83239746 56.40713501 C33.55606561 56.40917725 31.27971628 56.40363629 29.00341797 56.39111328 C25.51359927 56.37506255 22.02493881 56.39095728 18.53515625 56.41015625 C16.32551827 56.40817385 14.11588101 56.40433024 11.90625 56.3984375 C10.33586975 56.40754654 10.33586975 56.40754654 8.73376465 56.4168396 C7.27710388 56.40265488 7.27710388 56.40265488 5.79101562 56.38818359 C4.50886169 56.38460342 4.50886169 56.38460342 3.20080566 56.38095093 C1 56 1 56 -0.77616882 54.78091431 C-2.38709583 52.43669967 -2.37435935 50.95190584 -2.37231445 48.1171875 C-2.37854324 47.12605957 -2.38477203 46.13493164 -2.39118958 45.11376953 C-2.38197983 44.04497559 -2.37277008 42.97618164 -2.36328125 41.875 C-2.36377975 40.77655762 -2.36427826 39.67811523 -2.36479187 38.54638672 C-2.36245037 36.22296338 -2.35271748 33.89953755 -2.33618164 31.57617188 C-2.31259332 28.01409286 -2.31561985 24.45276223 -2.32226562 20.890625 C-2.31668887 18.63541219 -2.309579 16.38020254 -2.30078125 14.125 C-2.30169266 13.05620605 -2.30260406 11.98741211 -2.30354309 10.88623047 C-2.29401108 9.89510254 -2.28447906 8.90397461 -2.2746582 7.8828125 C-2.27005081 7.01027832 -2.26544342 6.13774414 -2.26069641 5.23876953 C-2 3 -2 3 0 0 Z " fill="#2F3438" transform="translate(78,8)"/>
<path d="M0 0 C0.70125 -0.01675781 1.4025 -0.03351563 2.125 -0.05078125 C2.74375 0.06910156 3.3625 0.18898438 4 0.3125 C6.13604308 3.51656462 6.24208908 4.30850747 6.1953125 7.98046875 C6.18886719 8.87314453 6.18242188 9.76582031 6.17578125 10.68554688 C6.15902344 11.61431641 6.14226562 12.54308594 6.125 13.5 C6.11597656 14.44037109 6.10695312 15.38074219 6.09765625 16.34960938 C6.07409056 18.67082968 6.04119116 20.99153644 6 23.3125 C6.68626465 23.30202637 7.3725293 23.29155273 8.07958984 23.28076172 C11.17802289 23.23928126 14.27639761 23.21319931 17.375 23.1875 C18.45523438 23.17074219 19.53546875 23.15398437 20.6484375 23.13671875 C21.6796875 23.13027344 22.7109375 23.12382813 23.7734375 23.1171875 C25.20308838 23.10147705 25.20308838 23.10147705 26.66162109 23.08544922 C29 23.3125 29 23.3125 31 25.3125 C31.56272806 31.50250867 31.56272806 31.50250867 29.82006836 34.01089478 C27.32344771 35.79633018 25.6225215 35.69323379 22.56640625 35.70068359 C21.45515381 35.71014008 20.34390137 35.71959656 19.19897461 35.7293396 C17.99893799 35.72326691 16.79890137 35.71719421 15.5625 35.7109375 C14.33088135 35.71380768 13.0992627 35.71667786 11.83032227 35.71963501 C8.55652043 35.72220158 5.28314463 35.7101161 2.00939941 35.69335938 C0.00189615 35.68750553 -2.00521369 35.69333795 -4.01269531 35.70361328 C-7.86281695 35.7221098 -11.71235434 35.71990992 -15.5625 35.7109375 C-17.36255493 35.72004654 -17.36255493 35.72004654 -19.19897461 35.7293396 C-20.86585327 35.71515488 -20.86585327 35.71515488 -22.56640625 35.70068359 C-23.54552979 35.69829681 -24.52465332 35.69591003 -25.53344727 35.69345093 C-28 35.3125 -28 35.3125 -29.82006836 34.01089478 C-31.76956444 31.20478817 -31.29948251 28.60680756 -31 25.3125 C-29 23.3125 -29 23.3125 -26.66162109 23.08544922 C-25.70852051 23.09592285 -24.75541992 23.10639648 -23.7734375 23.1171875 C-22.2265625 23.12685547 -22.2265625 23.12685547 -20.6484375 23.13671875 C-19.02808594 23.16185547 -19.02808594 23.16185547 -17.375 23.1875 C-16.28703125 23.19652344 -15.1990625 23.20554687 -14.078125 23.21484375 C-11.38519848 23.23846591 -8.69270745 23.27140444 -6 23.3125 C-6.01047363 22.68682129 -6.02094727 22.06114258 -6.03173828 21.41650391 C-6.07323191 18.5902099 -6.09930473 15.76397989 -6.125 12.9375 C-6.15013672 11.46023437 -6.15013672 11.46023437 -6.17578125 9.953125 C-6.18222656 9.01210937 -6.18867187 8.07109375 -6.1953125 7.1015625 C-6.20578613 6.23225098 -6.21625977 5.36293945 -6.22705078 4.46728516 C-5.80034975 0.4177547 -3.58704424 0.01978149 0 0 Z " fill="#2F3438" transform="translate(104,74.6875)"/>
<path d="M0 0 C0.70125 -0.01675781 1.4025 -0.03351563 2.125 -0.05078125 C2.74375 0.06910156 3.3625 0.18898438 4 0.3125 C6.13604308 3.51656462 6.24208908 4.30850747 6.1953125 7.98046875 C6.18886719 8.87314453 6.18242188 9.76582031 6.17578125 10.68554688 C6.15902344 11.61431641 6.14226563 12.54308594 6.125 13.5 C6.11597656 14.44037109 6.10695312 15.38074219 6.09765625 16.34960938 C6.07409056 18.67082968 6.04119116 20.99153644 6 23.3125 C6.68626465 23.30202637 7.3725293 23.29155273 8.07958984 23.28076172 C11.17802289 23.23928126 14.27639761 23.21319931 17.375 23.1875 C18.45523438 23.17074219 19.53546875 23.15398437 20.6484375 23.13671875 C21.6796875 23.13027344 22.7109375 23.12382813 23.7734375 23.1171875 C25.20308838 23.10147705 25.20308838 23.10147705 26.66162109 23.08544922 C29 23.3125 29 23.3125 31 25.3125 C31.56272806 31.50250867 31.56272806 31.50250867 29.82006836 34.01089478 C27.32344771 35.79633018 25.6225215 35.69323379 22.56640625 35.70068359 C21.45515381 35.71014008 20.34390137 35.71959656 19.19897461 35.7293396 C17.99893799 35.72326691 16.79890137 35.71719421 15.5625 35.7109375 C14.33088135 35.71380768 13.0992627 35.71667786 11.83032227 35.71963501 C8.55652043 35.72220158 5.28314463 35.7101161 2.00939941 35.69335938 C0.00189615 35.68750553 -2.00521369 35.69333795 -4.01269531 35.70361328 C-7.86281695 35.7221098 -11.71235434 35.71990992 -15.5625 35.7109375 C-17.36255493 35.72004654 -17.36255493 35.72004654 -19.19897461 35.7293396 C-20.86585327 35.71515488 -20.86585327 35.71515488 -22.56640625 35.70068359 C-23.54552979 35.69829681 -24.52465332 35.69591003 -25.53344727 35.69345093 C-28 35.3125 -28 35.3125 -29.82006836 34.01089478 C-31.76956444 31.20478817 -31.29948251 28.60680756 -31 25.3125 C-29 23.3125 -29 23.3125 -26.66162109 23.08544922 C-25.70852051 23.09592285 -24.75541992 23.10639648 -23.7734375 23.1171875 C-22.2265625 23.12685547 -22.2265625 23.12685547 -20.6484375 23.13671875 C-19.02808594 23.16185547 -19.02808594 23.16185547 -17.375 23.1875 C-16.28703125 23.19652344 -15.1990625 23.20554687 -14.078125 23.21484375 C-11.38519848 23.23846591 -8.69270745 23.27140444 -6 23.3125 C-6.01047363 22.68682129 -6.02094727 22.06114258 -6.03173828 21.41650391 C-6.07323191 18.5902099 -6.09930473 15.76397989 -6.125 12.9375 C-6.15013672 11.46023437 -6.15013672 11.46023437 -6.17578125 9.953125 C-6.18222656 9.01210937 -6.18867188 8.07109375 -6.1953125 7.1015625 C-6.20578613 6.23225098 -6.21625977 5.36293945 -6.22705078 4.46728516 C-5.80034975 0.4177547 -3.58704424 0.01978149 0 0 Z " fill="#2F3438" transform="translate(33,74.6875)"/>
<path d="M0 0 C0.70125 0.00515625 1.4025 0.0103125 2.125 0.015625 C2.82625 0.01046875 3.5275 0.0053125 4.25 0 C6.125 0.265625 6.125 0.265625 8.125 2.265625 C8.38569641 4.53599548 8.38569641 4.53599548 8.3996582 7.40209961 C8.40919022 8.47338608 8.41872223 9.54467255 8.42854309 10.64842224 C8.42763168 11.80987259 8.42672028 12.97132294 8.42578125 14.16796875 C8.43006638 15.35661026 8.4343515 16.54525177 8.43876648 17.76991272 C8.44451819 20.28760134 8.44500389 22.80530658 8.44067383 25.32299805 C8.43751587 29.1837184 8.46095682 33.04367148 8.48632812 36.90429688 C8.48860115 39.3463532 8.4893046 41.78841159 8.48828125 44.23046875 C8.497491 45.38989487 8.50670074 46.54932098 8.51618958 47.74388123 C8.50996078 48.81831985 8.50373199 49.89275848 8.49731445 50.99975586 C8.49794388 51.94636581 8.4985733 52.89297577 8.4992218 53.86827087 C8.125 56.265625 8.125 56.265625 6.78923035 58.07130432 C4.20283966 59.92740548 2.21074701 59.65134338 -0.875 59.265625 C-2.53923035 58.07130432 -2.53923035 58.07130432 -3.875 56.265625 C-4.2492218 53.86827087 -4.2492218 53.86827087 -4.24731445 50.99975586 C-4.25354324 49.92531723 -4.25977203 48.8508786 -4.26618958 47.74388123 C-4.25697983 46.58445511 -4.24777008 45.42502899 -4.23828125 44.23046875 C-4.23877975 43.04087051 -4.23927826 41.85127228 -4.23979187 40.62562561 C-4.23745009 38.10969371 -4.22771552 35.59375952 -4.21118164 33.07788086 C-4.18757331 29.2151203 -4.19062215 25.3530488 -4.19726562 21.49023438 C-4.19168966 19.04947503 -4.1845803 16.6087186 -4.17578125 14.16796875 C-4.17669266 13.0065184 -4.17760406 11.84506805 -4.17854309 10.64842224 C-4.16901108 9.57713577 -4.15947906 8.5058493 -4.1496582 7.40209961 C-4.14505081 6.45628525 -4.14044342 5.51047089 -4.13569641 4.53599548 C-3.80053854 1.61715005 -2.9907941 0.42369583 0 0 Z " fill="#2F3438" transform="translate(281.875,-0.265625)"/>
<path d="M0 0 C3.875 4.75 3.875 4.75 5 7 C3.0625 6.3125 3.0625 6.3125 1 5 C0.25 2.375 0.25 2.375 0 0 Z " fill="#2F3438" transform="translate(73,66)"/>
</svg>
