<?xml version="1.0" encoding="utf-8"?>
<!-- Generator: Adobe Illustrator 27.0.0, SVG Export Plug-In . SVG Version: 6.00 Build 0)  -->
<svg version="1.1" id="레이어_1" xmlns="http://www.w3.org/2000/svg" xmlns:xlink="http://www.w3.org/1999/xlink" x="0px"
	 y="0px" viewBox="0 0 69.1 27.8" style="enable-background:new 0 0 69.1 27.8;" xml:space="preserve">
<style type="text/css">
	.st0{fill:#231815;}
</style>
<path class="st0" d="M30.6,23.6h-4.5l0,0v-4.1c0-0.8-0.7-1.5-1.5-1.5c-0.8,0-1.5,0.7-1.5,1.5v4.1l0,0h-4.5c-0.8,0-1.5,0.6-1.5,1.5
	c0,0.8,0.7,1.5,1.5,1.5h11.9c0.8,0,1.5-0.6,1.5-1.5C32,24.3,31.4,23.6,30.6,23.6z"/>
<g>
	<path class="st0" d="M13.7,23.7H9.1c0,0,0,0,0,0v-4.1c0-0.8-0.7-1.4-1.5-1.4c-0.8,0-1.5,0.6-1.5,1.4v4.1c0,0,0,0,0,0H1.7
		c-0.8,0-1.4,0.6-1.4,1.4c0,0.8,0.6,1.4,1.4,1.4h11.9c0.8,0,1.4-0.6,1.4-1.4C15.1,24.4,14.5,23.7,13.7,23.7z"/>
	<path class="st0" d="M18.9,14.4L18.9,14.4c0,0.8,0.7,1.4,1.5,1.4h8.9c0.8,0,1.5-0.6,1.5-1.4c0-0.8-0.6-1.4-1.5-1.4h-7.4V3.3
		c0-0.8-0.7-1.4-1.5-1.4c-0.8,0-1.5,0.6-1.5,1.4v10.5c0,0,0,0,0,0V14.4z"/>
	<path class="st0" d="M67.8,0.8c-0.8,0-1.4,0.6-1.4,1.4v10.9c0,0.8,0.6,1.4,1.4,1.4c0.8,0,1.4-0.6,1.4-1.4V2.3
		C69.2,1.5,68.6,0.8,67.8,0.8z"/>
	<path class="st0" d="M40.2,16.3c3,0,5-3.4,5-7.5c0-4.1-2-7.5-5-7.5c-3,0-5,3.4-5,7.5C35.2,13,37.2,16.3,40.2,16.3z M40.2,4.2
		c1.2,0,2.1,2.1,2.1,4.6c0,2.6-0.9,4.6-2.1,4.6c-1.2,0-2.1-2.1-2.1-4.6C38.1,6.2,39,4.2,40.2,4.2z"/>
	<path class="st0" d="M7.8,17c3.8,0,5.9-3.5,5.9-7.8c0-4.3-2.1-7.8-5.9-7.8S1.7,4.8,1.7,9.2C1.7,13.5,4,17,7.8,17z M7.7,4.1
		c2,0,3.1,2.2,3.1,5s-1,5-3.1,5c-2,0-3.1-2.2-3.1-5S5.7,4.1,7.7,4.1z"/>
	<path class="st0" d="M50,2.3c0-0.8-0.6-1.4-1.4-1.4c-0.7,0-1.3,0.5-1.4,1.1c0,0,0,0,0,0c0,0,0,0.1,0,0.2c0,0,0,0.1,0,0.1
		c0,0,0,0,0,0v16.4c0,0-1.8,0.4-3.5,0.7c0,0,0,0,0,0c0,0,0,0,0,0c0,0,0,0,0,0c0,0,0,0,0,0c0,0,0,0,0,0c0,0,0,0,0,0c0,0,0,0,0,0
		c0,0,0,0,0,0c0,0,0,0,0,0c0,0,0,0,0,0c0,0,0,0,0,0c0,0,0,0,0,0c0,0,0,0,0,0c0,0,0,0,0,0c0,0,0,0,0,0c-1,0.2-1.9,0.3-2.5,0.3
		l-2.5,0.1l-2.7,0c0,0-0.1,0-0.1,0c0,0-0.1,0-0.1,0c-0.1,0-0.1,0-0.2,0c-0.1,0-0.3,0-0.4,0.1c0,0,0,0,0,0c0,0,0,0,0,0c0,0,0,0,0,0
		c0,0,0,0,0,0c0,0,0,0,0,0c0,0,0,0,0,0c0,0,0,0,0,0c0,0,0,0,0,0c0,0,0,0,0,0c0,0,0,0,0,0c0,0,0,0,0,0c0,0,0,0,0,0
		c-0.5,0.2-0.9,0.7-0.9,1.3c0,0.6,0.4,1.1,0.9,1.3c0,0,0,0,0,0c0,0,0,0,0,0c0,0,0,0,0,0c0,0,0,0,0,0c0,0,0,0,0,0c0,0,0,0,0,0
		c0,0,0,0,0,0c0,0,0,0,0,0c0.2,0.1,0.4,0.1,0.6,0.1c0,0,0,0,0,0c0.2,0,0.5,0,0.7,0c0.6,0,1.2,0,1.7,0c0.1,0,0.2,0,0.3,0c0,0,0,0,0,0
		c0,0,0.1,0,0.1,0c0,0,0,0,0,0c0,0,0,0,0,0c0,0,0,0,0,0c0,0,0,0,0,0c0,0,0,0,0,0c0,0,0,0,0,0c0,0,0,0,0,0c0,0,0,0,0,0
		c0,0,0.1,0,0.1,0c0.1,0,0.2,0,0.3,0c0,0,0,0,0,0c0,0,0,0,0,0c0,0,0,0,0,0c0,0,0,0,0,0c0,0,0.1,0,0.1,0c0,0,0,0,0,0c0,0,0.1,0,0.1,0
		c0.1,0,0.2,0,0.2,0c0,0,0.1,0,0.1,0c0,0,0.1,0,0.1,0c0,0,0,0,0,0c0.1,0,0.1,0,0.2,0c0,0,0.1,0,0.2,0c2-0.1,6.5-0.7,7.1-0.8
		c0,0,0,0,0,0c0,0,0,0,0,0c0,0,0,0,0,0c0,0,0,0,0,0c0,0,0,0,0,0c0,0,0,0.1,0,0.1v2.4V26v0c0,0,0,0,0,0c0,0,0,0,0,0c0,0,0,0.1,0,0.2
		c0,0,0,0.1,0,0.1c0,0,0,0,0,0c0,0,0,0,0,0c0,0,0,0,0,0c0,0,0,0,0,0c0,0,0,0,0,0c0,0,0,0,0,0c0,0,0,0,0,0c0,0,0,0,0,0
		c0,0.1,0.1,0.2,0.1,0.2c0,0,0,0,0,0c0,0,0,0,0,0c0,0,0,0,0,0c0,0,0,0,0,0c0,0,0,0,0,0c0,0,0,0,0,0c0,0,0,0,0,0c0,0,0,0,0,0
		c0.2,0.4,0.7,0.7,1.3,0.7c0.7,0,1.2-0.5,1.4-1.1c0,0,0,0,0,0c0,0,0-0.1,0-0.1c0,0,0,0,0-0.1c0-0.1,0-0.1,0-0.2v-1.8c0,0,0,0,0-0.1
		V2.3z"/>
	<polygon class="st0" points="59.7,10.9 59.7,10.9 59.7,10.9 	"/>
	<path class="st0" d="M59,10.3C59,10.3,59,10.3,59,10.3C59,10.3,59,10.3,59,10.3C59,10.3,59,10.3,59,10.3z"/>
	<polygon class="st0" points="58.9,10.1 58.9,10.2 58.9,10.1 	"/>
	<path class="st0" d="M59.1,10.4C59.2,10.4,59.2,10.4,59.1,10.4C59.2,10.4,59.2,10.4,59.1,10.4C59.2,10.4,59.2,10.4,59.1,10.4
		C59.1,10.4,59.1,10.4,59.1,10.4z"/>
	<polygon class="st0" points="59,10.3 59,10.3 59,10.3 	"/>
	<polygon class="st0" points="59,10.3 59,10.3 59,10.3 	"/>
	<path class="st0" d="M58.6,9.9C58.6,9.9,58.6,9.9,58.6,9.9C58.6,10,58.6,10,58.6,9.9C58.7,10,58.7,10,58.6,9.9
		C58.7,10,58.7,10,58.6,9.9C58.7,10,58.7,10,58.6,9.9C58.7,10,58.7,10,58.6,9.9C58.7,10,58.7,10,58.6,9.9c0.1,0.1,0.1,0.1,0.1,0.1
		C58.7,10,58.6,10,58.6,9.9C58.6,9.9,58.6,9.9,58.6,9.9z"/>
	<polygon class="st0" points="58.9,10.2 58.9,10.2 58.9,10.2 	"/>
	<path class="st0" d="M58.8,10.1C58.9,10.1,58.9,10.1,58.8,10.1C58.9,10.1,58.8,10.1,58.8,10.1C58.8,10.1,58.8,10.1,58.8,10.1z"/>
	<polygon class="st0" points="58.8,10.1 58.8,10.1 58.8,10.1 	"/>
	<polygon class="st0" points="59.7,11 59.7,11 59.7,11 	"/>
	<path class="st0" d="M59.7,11.1C59.7,11.1,59.7,11.1,59.7,11.1C59.8,11.1,59.8,11.1,59.7,11.1C59.8,11.1,59.8,11.1,59.7,11.1
		C59.8,11.1,59.8,11.1,59.7,11.1C59.8,11.1,59.8,11.1,59.7,11.1C59.8,11.1,59.8,11.1,59.7,11.1c0.1,0.1,0.1,0.1,0.1,0.1c0,0,0,0,0,0
		C59.8,11.1,59.8,11.1,59.7,11.1C59.7,11.1,59.7,11.1,59.7,11.1z"/>
	<path class="st0" d="M61.6,13.6C61.6,13.6,61.6,13.6,61.6,13.6C61.6,13.6,61.6,13.6,61.6,13.6C61.6,13.6,61.6,13.6,61.6,13.6
		C61.6,13.6,61.6,13.6,61.6,13.6C61.6,13.7,61.6,13.7,61.6,13.6C61.7,13.7,61.7,13.7,61.6,13.6c0.1,0.1,0.1,0.1,0.1,0.1c0,0,0,0,0,0
		c0,0,0,0,0,0c0,0,0,0,0,0c0,0,0.1,0,0.1,0c0,0,0,0,0,0c0,0,0,0,0,0c0,0,0,0,0,0c0,0,0,0,0.1,0C61.8,13.7,61.6,13.6,61.6,13.6
		C61.6,13.6,61.6,13.6,61.6,13.6z"/>
	<path class="st0" d="M61.6,13.6C61.6,13.6,61.6,13.6,61.6,13.6C61.6,13.6,61.6,13.6,61.6,13.6C61.6,13.6,61.6,13.6,61.6,13.6z"/>
	<polygon class="st0" points="59.7,11 59.7,11 59.7,10.9 	"/>
	<path class="st0" d="M62,13.7C62,13.7,62,13.7,62,13.7C62,13.7,62,13.7,62,13.7C62,13.7,62,13.7,62,13.7z"/>
	<path class="st0" d="M59.6,10.9C59.6,10.9,59.6,10.9,59.6,10.9C59.6,10.9,59.6,10.9,59.6,10.9C59.6,10.9,59.6,10.9,59.6,10.9
		C59.6,10.9,59.6,10.9,59.6,10.9C59.6,10.9,59.6,10.9,59.6,10.9C59.6,10.9,59.6,10.9,59.6,10.9C59.7,10.9,59.7,10.9,59.6,10.9
		C59.6,10.9,59.6,10.9,59.6,10.9C59.6,10.9,59.6,10.9,59.6,10.9z"/>
	<polygon class="st0" points="63.7,4.1 63.7,4.1 63.7,4.1 	"/>
	<path class="st0" d="M58.4,9.9C58.4,9.9,58.4,9.9,58.4,9.9C58.4,9.9,58.4,9.9,58.4,9.9c0.1-0.1,0.2-0.1,0.2,0c0,0,0,0,0,0
		c0,0,0,0,0,0c0,0,0,0,0,0c0,0,0,0,0,0c0,0,0.1,0.1,0.1,0.1c0,0,0,0,0,0c0,0,0,0,0,0c0,0,0,0,0,0c0,0,0,0,0,0c0,0,0,0,0,0
		c0,0,0,0,0,0c0,0,0.1,0.1,0.1,0.1v0c0,0,0,0,0,0c0,0,0,0,0,0c0,0,0,0,0,0c0,0,0,0,0,0c0,0,0.1,0.1,0.1,0.1c0,0,0,0,0,0c0,0,0,0,0,0
		c0,0,0,0,0,0c0,0,0,0,0.1,0.1c0,0,0,0,0,0c0,0,0.1,0.1,0.1,0.1c0,0,0,0,0,0c0,0,0,0,0,0l0,0c0,0,0,0,0,0c0,0,0,0,0,0c0,0,0,0,0,0
		c0,0,0,0,0,0c0,0,0.1,0.1,0.1,0.1c0,0,0,0,0,0c0,0,0,0,0,0c0,0,0,0,0,0c0,0,0,0,0,0c0,0,0,0,0,0c0,0,0,0,0,0c0,0,0,0,0,0
		c0,0,0,0,0,0c0,0,0,0,0,0h0c0,0,0,0.1,0.1,0.1c0,0,0,0,0,0c0,0,0,0,0,0c0,0,0,0,0,0c0,0,0,0,0,0c0,0,0,0,0,0c0,0,0,0,0,0
		c0,0,0,0,0,0c0,0,0,0,0,0c0,0,0,0,0,0c0,0,0,0,0,0c0,0,0,0,0,0.1c0,0,0,0,0,0c0,0,0.1,0.1,0.1,0.1c0,0,0,0,0,0c0,0,0,0.1,0.1,0.1
		c0,0,0,0,0,0c0,0,0,0,0,0c0,0,0,0,0,0c0,0,0,0,0,0c0,0,0,0,0,0c0,0,0.1,0.1,0.1,0.1c0,0,0,0,0,0c0,0,0,0,0,0
		c0.2,0.3,0.4,0.5,0.5,0.7c0.1,0.3,0.3,0.5,0.5,0.8c0.2,0.3,0.4,0.7,0.7,0.9h0c0,0,0,0,0,0c0.1,0.1,0.2,0.1,0.4,0.1c0,0,0,0-0.1,0
		c0,0,0,0,0,0c0,0,0,0,0.1,0c0,0,0,0,0,0c0,0,0,0,0,0l0,0l0,0c0,0,0.1,0,0.1,0c0.1,0,0.3,0,0.4,0c0,0,0,0,0,0v0l0,0
		c0.1,0,0.1,0,0.1,0c0,0,0,0,0,0c0.1,0,0.2-0.1,0.3-0.2c0.3-0.2,0.5-0.4,0.6-0.8c0.1-0.5,0-0.9-0.3-1.3c-0.2-0.5-0.5-0.9-0.8-1.4
		c-0.2-0.2-0.3-0.5-0.5-0.7c-0.1-0.2-0.3-0.4-0.5-0.6c-0.1-0.1-0.2-0.2-0.3-0.3c-0.1-0.1-0.2-0.2-0.3-0.3c0,0,0,0,0,0c0,0,0,0,0,0
		c0,0-0.1-0.1-0.1-0.1c0,0,0,0,0,0c0,0-0.1,0-0.1-0.1c0,0-0.1-0.1-0.1-0.1c-0.2-0.1-0.3-0.3-0.3-0.3s0.1-0.1,0.1-0.1l0,0
		c0,0,0,0,0,0c0,0,0.6-0.7,0.6-0.7c0,0,0,0,0,0l0,0c0,0,0.1-0.1,0.1-0.1c0,0,0,0,0.1,0c0,0,0.1-0.1,0.1-0.1c0,0,0,0,0,0c0,0,0,0,0,0
		c0,0,0.1-0.1,0.1-0.1c0,0,0,0,0.1,0l0.1-0.1c0,0,0,0,0,0c0,0,0,0,0,0c0,0,0.1,0,0.1-0.1l0.1-0.1c0,0,0,0,0,0c0,0,0,0,0,0
		c0,0,0,0,0,0c0,0,0.1-0.1,0.1-0.1c0,0,1.6-1.7,1.6-1.7c0,0,0,0,0,0l0,0c0,0,0,0,0,0c0,0,0,0,0,0c0,0,0,0,0,0l0,0
		c0,0,0.1-0.1,0.1-0.1c0.1-0.2,0.2-0.4,0.3-0.6c0,0,0,0,0,0c0,0,0,0,0-0.1c0-0.1,0-0.1,0-0.2c0-0.6-0.4-1.1-1-1.3c0,0,0,0,0,0
		c0,0,0,0,0,0c0,0,0,0-0.1,0c-0.1,0-0.2,0-0.3,0h-8.6c-0.1,0-0.2,0-0.3,0c0,0,0,0,0,0c-0.6,0.2-1,0.7-1,1.3c0,0.6,0.4,1.1,0.9,1.3
		c0.2,0.1,0.4,0.1,0.6,0.2c1.3,0,2.6,0,3.9,0c0.3,0,0.6,0,0.9,0h0.4c0,0,0,0,0,0C59.4,4.5,59,5,59,5l-0.1,0.1c0,0,0,0,0,0l-0.1,0.1
		c0,0,0,0,0,0c0,0,0,0,0,0c0,0-0.1,0.2-0.1,0.2c0,0-0.4,0.5-0.5,0.5c0,0-0.1,0.1-0.1,0.1c0,0,0,0,0,0l-0.1,0.1c0,0,0,0,0,0
		c0,0,0,0,0,0c0,0-0.2,0.2-0.2,0.2c0,0-0.1,0.1-0.1,0.1c0,0,0,0,0,0c0,0-0.1,0.1-0.1,0.1c0,0,0,0,0,0L57.1,7c0,0,0,0,0,0
		c0,0-0.1,0.1-0.1,0.1c0,0-0.3,0.3-0.3,0.3c0,0,0,0,0,0c0,0,0,0,0,0c0,0-0.1,0.1-0.1,0.1c0,0,0,0,0,0.1l-0.1,0.1c0,0,0,0,0,0
		c0,0,0,0,0,0.1c0,0-0.1,0.1-0.1,0.1c0,0,0,0,0,0c0,0,0,0,0,0c0,0-0.1,0.1-0.1,0.1c0,0,0,0,0,0c0,0,0,0,0,0.1c0,0-0.1,0.1-0.1,0.1
		c0,0,0,0,0,0c0,0,0,0,0,0c0,0,0,0,0,0c0,0-0.1,0.1-0.1,0.1c0,0,0,0,0,0c0,0,0,0,0,0c0,0-0.1,0.1-0.1,0.1c0,0,0,0,0,0
		c0,0-0.3,0.3-0.3,0.3c0,0,0,0,0,0c0,0-0.1,0.1-0.1,0.1c0,0,0,0,0,0c0,0,0,0,0,0c0,0-0.1,0.1-0.1,0.1c0,0,0,0,0,0c0,0,0,0,0,0
		c0,0,0,0,0,0c0,0,0,0.1,0,0.1c0,0,0,0-0.1,0.1c0,0,0,0,0,0c0,0,0,0,0,0c0,0-0.1,0.1-0.1,0.1c0,0,0,0,0,0c0,0,0,0,0,0.1
		c0,0-0.1,0.1-0.1,0.1c0,0,0,0,0,0.1l-0.1,0.1c0,0,0,0-0.1,0.1l-0.1,0.1c0,0,0,0,0,0c0,0-0.1,0.1-0.2,0.2l-0.1,0.1c0,0,0,0,0,0.1
		c0,0-0.1,0.1-0.1,0.1c0,0,0,0,0,0c0,0,0,0,0,0c0,0,0,0,0,0.1c0,0,0,0,0,0c0,0,0,0,0,0c0,0,0,0,0,0c0,0,0,0,0,0l0,0c0,0,0,0,0,0
		c0,0,0,0,0,0c0,0,0,0,0,0c0,0,0,0,0,0c0,0,0,0-0.1,0.1c0,0,0,0,0,0l-0.1,0.1c0,0,0,0,0,0c0,0,0,0,0,0.1l-0.1,0.1c0,0,0,0,0,0
		c0,0,0,0,0,0c0,0,0,0,0,0c0,0.1-0.1,0.1-0.2,0.2c-0.3,0.5-0.2,1.2,0.3,1.7c0.4,0.4,1,0.4,1.5,0.3c0,0,0,0,0,0c0,0,0,0,0,0
		c0.1,0,0.1-0.1,0.2-0.1L58.4,9.9C58.3,9.9,58.3,9.9,58.4,9.9z M62.6,13.7C62.6,13.7,62.6,13.7,62.6,13.7
		C62.6,13.7,62.6,13.7,62.6,13.7C62.6,13.7,62.6,13.7,62.6,13.7z M59.6,10.8C59.6,10.8,59.6,10.8,59.6,10.8
		C59.6,10.8,59.6,10.8,59.6,10.8C59.6,10.9,59.6,10.8,59.6,10.8z M58.9,10.2L58.9,10.2L58.9,10.2L58.9,10.2z M58.9,10.2L58.9,10.2
		L58.9,10.2L58.9,10.2z"/>
	<path class="st0" d="M60.7,8C60.7,8,60.7,8,60.7,8C60.7,8,60.7,8,60.7,8C60.8,8,60.7,8,60.7,8C60.7,8,60.7,8,60.7,8z"/>
	<path class="st0" d="M60.9,8.2C60.9,8.1,60.9,8.1,60.9,8.2C60.9,8.1,60.9,8.2,60.9,8.2C60.9,8.2,60.9,8.2,60.9,8.2z"/>
	<path class="st0" d="M69.2,23.1c0-1.3,0-2.7,0-4c0-0.4,0-0.8,0-1.2c0-0.1,0-0.2,0-0.3c0-0.1,0-0.2,0-0.2c0-0.2-0.1-0.3-0.2-0.5
		c0,0,0,0-0.1-0.1c0,0,0,0,0,0c0,0,0,0,0,0c0,0-0.1-0.1-0.1-0.1c-0.3-0.2-0.6-0.3-0.9-0.3c-0.8,0-1.4,0.6-1.4,1.4v2c0,0-0.1,0-0.1,0
		c-0.1,0-0.2,0-0.3,0c-0.5,0-0.9,0-1.4,0c-1.5,0-2.9,0-4.4,0c-0.4,0-0.8,0-1.2,0c-0.2,0-0.3,0-0.5,0c0,0,0,0,0,0c0,0,0,0-0.1,0v-2
		c0-0.8-0.6-1.4-1.4-1.4c-0.5,0-1,0.3-1.2,0.7c0,0,0,0,0,0c-0.1,0.2-0.2,0.3-0.2,0.5c0,0,0,0,0,0c0,0,0,0,0,0.1c0,0,0,0,0,0.1
		c0,0.1,0,0.2,0,0.3c0,0.2,0,0.4,0,0.5c0,0.6,0,1.2,0,1.9c0,1.1,0,2.1,0,3.2c0,0.2,0,0.4,0,0.6c0,0.1,0,0.2,0,0.3v0
		c0,0.2,0,0.4,0,0.5c0,0,0,0,0,0c0,0,0,0,0,0c0,0,0,0,0,0c0.3,1.5,1.7,2.7,3.3,2.7h6.9c1.6,0,3-1.2,3.3-2.7c0,0,0,0,0,0c0,0,0,0,0,0
		c0,0,0,0,0,0c0,0,0,0,0,0c0,0,0,0,0,0c0-0.1,0-0.2,0-0.3c0,0,0,0,0-0.1c0,0,0-0.1,0-0.1v0c0-0.1,0-0.3,0-0.4
		C69.2,23.7,69.2,23.4,69.2,23.1z M66.3,23.2L66.3,23.2L66.3,23.2l0,0.9v0.3c0,0.3-0.2,0.6-0.6,0.6h-0.2c-0.1,0-0.1,0-0.2,0
		c-0.3,0-0.6,0-0.8,0c-1.5,0-2.9,0-4.4,0c-0.3,0-0.5,0-0.8,0c0,0,0,0,0,0H59c-0.3,0-0.6-0.2-0.6-0.6v-0.3v-0.8v0h0v-0.6c0,0,0,0,0,0
		c0,0,0,0,0,0c0,0,0,0,0.1-0.1h0.2c0,0,0,0,0,0h7.5c0,0,0,0,0,0V23.2z"/>
</g>
</svg>
