<svg width="25" height="24" viewBox="0 0 25 24" fill="none" preserveAspectRatio="xMidYMid meet"><path d="M10.4508 1.01063L1.08325 4.13323V5.38326L11.0833 9.96672L21.0833 5.38326V4.13323L11.7157 1.01063C11.3052 0.873783 10.8613 0.873783 10.4508 1.01063Z" fill="#F16C6C"></path><mask id="mask0_15220_24967" maskUnits="userSpaceOnUse" x="1" y="0" width="21" height="10" style="mask-type: alpha;"><path d="M10.4508 1.01063L1.08325 4.13323V5.38326L11.0833 9.96672L21.0833 5.38326V4.13323L11.7157 1.01063C11.3052 0.873783 10.8613 0.873783 10.4508 1.01063Z" fill="#3686C7"></path></mask><g mask="url(#mask0_15220_24967)"><path d="M11.0831 0.799805L21.0831 2.8832V10.8001H11.0831V0.799805Z" fill="#DB4F4F"></path></g><path d="M2.50778 17.9419L9.97643 20.4315C10.6949 20.671 11.4716 20.671 12.1901 20.4315L19.6587 17.9419C20.5094 17.6583 21.0833 16.8621 21.0833 15.9654V4.1333L11.0833 7.46673L1.08325 4.1333V15.9654C1.08325 16.8621 1.65706 17.6583 2.50778 17.9419Z" fill="#FD9B9B"></path><mask id="mask1_15220_24967" maskUnits="userSpaceOnUse" x="1" y="4" width="21" height="17" style="mask-type: alpha;"><path d="M2.50778 17.9419L9.97643 20.4315C10.6949 20.671 11.4716 20.671 12.1901 20.4315L19.6587 17.9419C20.5094 17.6583 21.0833 16.8621 21.0833 15.9654V4.1333L11.0833 7.46673L1.08325 4.1333V15.9654C1.08325 16.8621 1.65706 17.6583 2.50778 17.9419Z" fill="#BCD7ED"></path></mask><g mask="url(#mask1_15220_24967)"><path d="M21.0831 4.1333V16.0818C21.0831 17.1579 20.3946 18.1132 19.3737 18.4535L11.0831 21.2171V7.46673L21.0831 4.1333Z" fill="#F16C6C"></path><path d="M9.36641 15.8747V14.3546C9.36641 13.9081 9.07043 13.5157 8.64113 13.3931L7.84113 13.1645C7.20232 12.982 6.56641 13.4617 6.56641 14.126V15.6461C6.56641 16.0926 6.86238 16.485 7.29168 16.6076L8.09168 16.8362C8.7305 17.0187 9.36641 16.5391 9.36641 15.8747Z" fill="#FFE6F0"></path></g><path d="M10.3255 8.44107L11.0833 7.46673L1.08329 4.1333C-0.340501 5.96394 0.473502 8.65238 2.67363 9.38578L4.83063 10.1048C6.82974 10.7712 9.03179 10.1045 10.3255 8.44107Z" fill="#FFE6F0"></path><path d="M11.8411 8.44107L11.0833 7.46673L21.0833 4.1333C22.507 5.96394 21.693 8.65238 19.4929 9.38578L17.3359 10.1048C15.3368 10.7712 13.1348 10.1045 11.8411 8.44107Z" fill="#FFE6F0"></path><path d="M17.9154 12.8589C17.0595 12.8589 16.3657 13.5528 16.3657 14.4087V14.4546C16.3657 14.5667 16.3657 14.6227 16.3439 14.6654C16.3247 14.7031 16.2941 14.7337 16.2565 14.7529C16.2137 14.7747 16.1577 14.7747 16.0457 14.7747H15.9997C15.1438 14.7747 14.45 15.4685 14.45 16.3245C14.45 16.6984 14.5824 17.0414 14.8029 17.3091C14.9429 17.4792 15.013 17.5642 15.0244 17.6046C15.0396 17.6585 15.0396 17.6595 15.0244 17.7134C15.013 17.7538 14.9429 17.8388 14.8029 18.0089C14.5824 18.2766 14.45 18.6196 14.45 18.9935C14.45 19.8495 15.1438 20.5434 15.9997 20.5434H16.0457C16.1577 20.5434 16.2137 20.5434 16.2565 20.5652C16.2941 20.5843 16.3247 20.6149 16.3439 20.6526C16.3657 20.6954 16.3657 20.7514 16.3657 20.8634V20.9093C16.3657 21.7653 17.0595 22.4592 17.9154 22.4592C18.2894 22.4592 18.6324 22.3267 18.9001 22.1062C19.0701 21.9661 19.1552 21.8961 19.1955 21.8847C19.2495 21.8694 19.2504 21.8694 19.3044 21.8847C19.3448 21.8961 19.4298 21.9661 19.5999 22.1062C19.8676 22.3267 20.2106 22.4592 20.5845 22.4592C21.4404 22.4592 22.1343 21.7653 22.1343 20.9093V20.8634C22.1343 20.7514 22.1343 20.6954 22.1561 20.6526C22.1753 20.6149 22.2058 20.5843 22.2435 20.5652C22.2863 20.5434 22.3423 20.5434 22.4543 20.5434H22.5002C23.3561 20.5434 24.05 19.8495 24.05 18.9935C24.05 18.6196 23.9175 18.2766 23.697 18.0089C23.557 17.8388 23.4869 17.7538 23.4755 17.7134C23.4603 17.6595 23.4603 17.6585 23.4755 17.6046C23.4869 17.5642 23.557 17.4792 23.697 17.3091C23.9175 17.0414 24.05 16.6984 24.05 16.3245C24.05 15.4685 23.3561 14.7747 22.5002 14.7747H22.4543C22.3423 14.7747 22.2863 14.7747 22.2435 14.7529C22.2058 14.7337 22.1753 14.7031 22.1561 14.6654C22.1343 14.6227 22.1343 14.5667 22.1343 14.4546V14.4087C22.1343 13.5528 21.4404 12.8589 20.5845 12.8589C20.2106 12.8589 19.8676 12.9913 19.5999 13.2118C19.4298 13.3519 19.3448 13.422 19.3044 13.4334C19.2504 13.4486 19.2495 13.4486 19.1955 13.4334C19.1552 13.422 19.0702 13.3519 18.9001 13.2118C18.6324 12.9913 18.2894 12.8589 17.9154 12.8589Z" fill="#14374B"></path><path d="M17.8029 19.4971C17.7374 19.4971 17.719 19.4653 17.7477 19.4017L18.9254 17.5325L19.9191 15.8711C19.9395 15.8374 19.9702 15.8205 20.0111 15.8205H20.7042C20.7738 15.8205 20.7901 15.8505 20.7533 15.9103L19.6431 17.6729L18.5819 19.4466C18.5737 19.4616 18.5614 19.4747 18.5451 19.4859C18.5287 19.4934 18.5083 19.4971 18.4837 19.4971H17.8029ZM17.7538 17.8076C17.4062 17.8076 17.1465 17.7253 16.9748 17.5606C16.803 17.396 16.7172 17.1733 16.7172 16.8926V16.6737C16.7172 16.3893 16.803 16.1667 16.9748 16.0058C17.1506 15.8411 17.4103 15.7588 17.7538 15.7588C18.0973 15.7588 18.3549 15.8411 18.5267 16.0058C18.6984 16.1667 18.7843 16.3893 18.7843 16.6737V16.8926C18.7843 17.1733 18.6984 17.396 18.5267 17.5606C18.3549 17.7253 18.0973 17.8076 17.7538 17.8076ZM17.7538 17.1733C17.8683 17.1733 17.9501 17.1471 17.9992 17.0947C18.0482 17.0423 18.0728 16.9656 18.0728 16.8646V16.7018C18.0728 16.597 18.0482 16.5203 17.9992 16.4717C17.9501 16.4193 17.8683 16.3931 17.7538 16.3931C17.6393 16.3931 17.5555 16.4193 17.5023 16.4717C17.4492 16.524 17.4226 16.6008 17.4226 16.7018V16.8646C17.4226 16.9656 17.4492 17.0423 17.5023 17.0947C17.5555 17.1471 17.6393 17.1733 17.7538 17.1733ZM20.7472 19.5589C20.3996 19.5589 20.1399 19.4784 19.9682 19.3175C19.8005 19.1529 19.7167 18.9302 19.7167 18.6496V18.425C19.7167 18.1444 19.8026 17.9217 19.9743 17.7571C20.1461 17.5924 20.4037 17.5101 20.7472 17.5101C21.0989 17.5101 21.3585 17.5924 21.5262 17.7571C21.698 17.9217 21.7838 18.1444 21.7838 18.425V18.6496C21.7838 18.9302 21.698 19.1529 21.5262 19.3175C21.3545 19.4784 21.0948 19.5589 20.7472 19.5589ZM20.7472 18.9246C20.8617 18.9246 20.9455 18.8984 20.9987 18.846C21.0518 18.7936 21.0784 18.7169 21.0784 18.6159V18.4531C21.0784 18.3521 21.0518 18.2754 20.9987 18.223C20.9455 18.1706 20.8617 18.1444 20.7472 18.1444C20.6368 18.1444 20.555 18.1706 20.5018 18.223C20.4528 18.2754 20.4282 18.3521 20.4282 18.4531V18.6159C20.4282 18.7207 20.4528 18.7992 20.5018 18.8516C20.555 18.9003 20.6368 18.9246 20.7472 18.9246Z" fill="white"></path></svg>