<?xml version="1.0" encoding="UTF-8"?>
<svg id="_레이어_1" data-name="레이어 1" xmlns="http://www.w3.org/2000/svg" viewBox="0 0 186.26 63.56">
  <defs>
    <style>
      .cls-1 {
        fill: #3cb9e0;
        fill-rule: evenodd;
      }

      .cls-2 {
        fill: #231815;
      }
    </style>
  </defs>
  <path class="cls-1" d="M57.28,1.15v.02s.05,.01,.07,.02h0s.02,.01,.03,.01h0s.01,.01,.02,.01h0s.04,.02,.06,.02h0s.02,.01,.03,.01h0s.02,.01,.02,.01h0s.05,.02,.08,.02h0s.03,.02,.05,.02h0s.02,.01,.02,.01c0,0,0,.02,.01,.02,.01,0,.02,0,.03,.01,.02,.02,.04,.04,.06,.07,.08,.03,.16,.07,.24,.1h0s.02,.01,.02,.01h0s.02,.01,.02,.01h0s.02,.01,.02,.01h0s.02,.01,.02,.01h0s.04,.04,.07,.05v.02s.04,.04,.07,.06h.02s.01,.01,.02,.01h0s.02,.01,.03,.01c0,0,0,.02,.01,.02h.03s.02,.01,.03,.01h0s.03,.02,.04,.02c0,0,0,.01,.01,.02h.02s0,.01,.01,.02h.02s.02,.03,.05,.03c.01,.05,0,.01,.03,.03,0,0,0,.01,.01,.02h.02s0,.02,.01,.02h.02s.02,.02,.02,.04h.02s0,.01,.01,.02c.02,0,.05,.02,.07,.02,0,0,0,.01,.01,.02h.02s.02,.01,.02,.01h0s.01,.01,.02,.01h0s.04,.06,.08,.07v.02s.04,.04,.07,.06h.02s0,.01,.01,.02c.02,0,.04,0,.06,.01,0,0,0,.02,.01,.02,.02,0,.04,0,.06,.01h0s.03,.04,.06,.05v.02s.06,.05,.09,.07c0,.01,.02,.02,.02,.03h.02s0,.01,.01,.02h.02s0,.02,.01,.02h.02s0,.01,.01,.02h.02v.02h.03s0,.02,.01,.02c.01,.01,.03,.02,.04,.03,.05,.05,.14,.16,.21,.18v.02s.09,.06,.11,.09c0,0,0,.02,.01,.02h.02s0,.01,.01,.02h.01s0,.02,.01,.03h.02s.03,.04,.04,.06h.02s.01,.02,.02,.03c.03,.02,.05,.05,.08,.07,.04,.04,.08,.08,.11,.12h.02s.08,.09,.12,.14c.02,.02,.04,.03,.06,.05v.02c.06,.01,.08,.07,.11,.11h.01s.06,.05,.07,.09c.04,0,.06,.03,.07,.07h.02s0,.02,.01,.03c.03,.02,.05,.05,.08,.07v.02s.04,.03,.06,.05v.02c.05,.05,.1,.1,.16,.15v.02s.02,0,.02,.01c.02,.02,.05,.06,.06,.09h.02v.02s.06,.05,.09,.08v.02s.05,.05,.08,.07c0,.01,0,.03,.01,.05,0,0,.02,0,.02,.01,.02,.03,.03,.05,.03,.08h.02s.02,.03,.03,.07c.03,0,.04,.01,.05,.05h.02s0,.02,.01,.03c0,0,.02,0,.02,.01v.02s.07,.1,.08,.16h.02s0,.02,.03,.03v.02s.02,.02,.03,.02v.02s.04,.03,.06,.05c0,.02,.02,.05,.02,.07,0,0,.01,0,.02,.01,0,.02,0,.03,.01,.05,0,0,.01,0,.02,.01,0,.01,0,.02,.01,.03h.01v.03s.01,0,.02,.01v.02s.02,.01,.03,.02v.02s.02,.02,.04,.02c.03,.03,0,.04,.06,.06,0,.02,.02,.05,.02,.07h.01v.02h.01s0,.05,.01,.07h.01v.02h.01v.03s.02,0,.02,.01v.02s.02,.01,.03,.02v.02s.01,0,.02,.01v.02s.01,0,.02,.01c0,.01,0,.02,.01,.03,.01,0,.02,.01,.03,.02v.02s.01,0,.02,.01c0,.01,0,.03,.01,.04,0,0,.02,0,.02,.01v.03h.01v.02h.01s0,.04,.01,.06h.01v.05h.01v.02h.01s0,.04,.01,.06h.02c.01,.06,.08,.1,.1,.15,.03,.08,.07,.17,.1,.25,0,.02,0,.04,.01,.07h.01v.02s.02,.01,.03,.02v.02s.03,.02,.04,.03v.02h.01v.02h.01v.02h.01v.02s.02,0,.02,.01c0,.02,0,.04,.01,.07h.01s0,.03,.01,.05h.01s0,.07,.01,.1h.01v.03h.01v.06h.01v.02h.01v.02h.01v.02h.01v.02h.01v.02h.01v.02h.01v.02h.01v.02h.01v.02h.01v.03s.02,0,.02,.01c0,.02,0,.03,.01,.05,0,0,.02,0,.02,.01v.02h.01v.04h.01v.03h.01v.06c.02,.05,.04,.13,.06,.18v.06h.01v.03h.01s.02,.05,.02,.07h.01v.02s.02,0,.02,.01c0,.02,0,.05,.01,.07,0,0,.02,0,.02,.01v.05h.01v.02h.01v.03h.01s0,.03,.01,.05h.01c.03,.15,.05,.3,.08,.45h.01v.03h.01v.03h.01v.06h.01v.02h.01v.06h.01v.03h.01v.03h.01v.02h.01s0,.04,.01,.06h.01s.01,.09,.02,.14h.01v.03h.01s0,.01-.01,.02h.01v.02h.01v.08h.01c0,.06,0,.12,.01,.18h.01v.16h.01v.08h.01v.12h.01v.06h.01v.08h.01v.09h.01v.07h.01v.06h.01v.07h.01v.05h.01s0,.02-.01,.02c0,.02,0,0,.01,.01v.07h.01s0,.01-.01,.02h.01v.06h.01s-.02,.02-.01,.05h.01v.12h.01v.03h.01v.12h.01s-.01,.05-.01,.06h.01c0,.08,0,.15,.01,.23v.17s.02,.07,.01,.1h-.01s0,.01,.01,.01V51.9c0,.25,0,.5-.01,.76-.02,.07,0,.24-.05,.36v.12h-.01s.01,0,.01,.02h-.01v.09h-.01v.07h-.01v.09c-.04,.15-.04,.3-.08,.43v.1h-.01v.08h-.01v.18h-.01v.07h-.01v.08h-.01v.09h-.01v.05h-.01v.03h-.01v.04h-.01s0,.06-.01,.09h-.01v.02h-.01s0,.05-.01,.07h-.01v.02h-.01c-.01,.07-.03,.14-.04,.21h-.01v.03h-.01v.03h-.01v.08h-.01s0,.07-.01,.1h-.01v.06h-.01s0,.09-.01,.14h-.01v.03h-.01s0,.03-.01,.05h-.01v.04h-.01s0,.04-.01,.07h-.01v.02h-.01v.04h-.01v.02h-.01v.02h-.01v.02s-.01,0-.02,.01c0,.02,0,.03-.01,.05h-.01c-.03,.14-.06,.27-.09,.41,0,0-.02,0-.02,0,0,.02,0,.03-.01,.05,0,0-.01,0-.02,.01,0,.02,0,.04-.01,.06,0,0-.02,0-.02,.01,0,.02,0,.04-.01,.06h-.01v.02h-.01v.02h-.01v.02h-.01s-.02,.05-.02,.07h-.01s0,.06-.01,.09h-.01v.05h-.01v.04h-.01s0,.03-.01,.05h-.01v.03h-.01v.02h-.01v.04s-.02,0-.02,0c0,.02-.01,.05-.02,.07,0,0-.02,0-.02,.01v.02s-.03,.02-.05,.04c0,.02,0,.03-.01,.04h-.01v.03h-.01v.02h-.01s0,.04-.01,.07h-.01s0,.05-.01,.07h-.01s0,.03-.01,.05h-.01v.02h-.01s0,.04-.01,.06c0,0-.02,0-.02,.01v.02s-.01,0-.02,.01v.02s-.02,.01-.03,.02v.02s-.03,.02-.05,.03c-.03,.08-.06,.17-.09,.25,0,0-.02,0-.02,.01,0,.01,0,.03-.01,.05h-.01s-.03,.03-.03,.07h-.02s-.03,.06-.05,.08c0,0-.01,0-.02,.01v.02h-.01v.02h-.01v.02h-.01v.04h-.01v.03h-.01v.03h-.01s0,.03-.01,.05c0,0-.02,0-.02,.01v.02s-.05,.04-.07,.06v.02s-.02,0-.02,.01h0s-.01,.02-.02,.02v.02s-.02,0-.02,.01c0,.02-.01,.04-.02,.07,0,0-.01,0-.02,.01,0,.02-.01,.05-.02,.07,0,0-.01,0-.02,.01,0,.02,0,.03-.01,.04h-.01s-.01,.02-.02,.05h-.02c-.02,.07-.09,.1-.12,.16,0,.02,0,.04-.01,.06,0,0-.01,0-.02,.01v.03h-.01v.02s-.02,0-.02,.01v.02s-.08,.08-.12,.11v.02s-.02,.02-.03,.02c0,.02-.01,.05-.02,.07-.01,0-.02,.01-.03,.02v.02s-.02,.01-.03,.02v.02s-.05,.04-.07,.06v.02s-.06,.05-.09,.08v.02s-.03,.02-.05,.03v.02s-.03,.02-.05,.03v.02s-.02,.01-.03,.02h0s-.02,.01-.02,.01c0,.02-.02,.03-.02,.04-.04,.03-.07,.06-.1,.09v.02s-.02,.01-.03,.02v.02c-.05,.05-.1,.1-.16,.15-.03,.03-.03,.07-.08,.08,0,.04-.02,.03-.03,.07h-.02s-.04,.03-.05,.07h-.02s-.08,.06-.09,.11h-.02s0,.03-.03,.03v.02h-.02c-.03,.05-.11,.07-.12,.13h-.02s-.05,.06-.07,.09h-.02s-.02,.05-.07,.06v.02h-.02s-.08,.09-.11,.1c-.01,.04-.03,.04-.06,.07h-.01v.02s-.06,.02-.08,.04c0,0,0,.02-.01,.02-.01,0-.02,0-.03,.01-.03,.02-.02,.04-.07,.06v.02s-.03,0-.03,.03h-.02s-.03,.03-.07,.06c-.01,.01-.02,.03-.03,.04-.01,0-.03,0-.05,.01,0,.01-.01,.02-.02,.03h-.02s-.02,.03-.03,.04h-.02s-.05,.06-.08,.09h-.02s0,.02-.01,.02c-.01,0-.03,0-.04,.01,0,0,0,.01-.01,.02h-.03s-.02,.01-.02,.01h0s-.01,.01-.02,.01c0,0,0,.02-.01,.02h-.02s-.05,.07-.09,.08v.02s-.02,0-.03,0h0s-.02,.02-.03,.02c0,0,0,.02-.01,.02-.02,0-.03,0-.05,.01,0,0,0,.02-.01,.02-.02,0-.03,0-.05,0,0,0,0,.02-.01,.02h-.02s-.02,.02-.03,.02c0,0,0,.01-.01,.02h-.02s-.02,.02-.02,.03h-.02s0,.02-.01,.02h-.02s-.04,.05-.06,.07h-.02s0,.01-.01,.02h-.02s-.03,.02-.05,.02h0s-.05,.02-.07,.02h0s-.02,.01-.03,.01v.02h-.03s-.02,.03-.03,.04h-.02s-.03,.04-.05,.06h-.02s0,.02-.01,.02c-.02,0-.04,.02-.07,.02,0,0,0,.02-.01,.02h-.03s-.02,.01-.02,.01c0,0,0,.01-.01,.02h-.03s-.03,.02-.05,.02h0s-.07,.03-.1,.05c0,.01-.02,.02-.02,.03h-.02s-.03,.04-.05,.06h-.02s0,.02-.01,.02c-.1,.04-.2,.07-.29,.1h0s-.05,.03-.07,.04c0,0,0,.01-.01,.02-.01,0-.02,0-.03,.01h0s-.02,.02-.03,.02v.02s-.02,0-.03,0h0s-.02,.01-.02,.01h0s-.03,.02-.05,.02h0s-.02,.01-.03,.01h0s-.03,0-.05,0h0s-.02,.01-.03,.01h0s-.02,.01-.03,.01h0s-.02,0-.03,0h0s-.02,.01-.02,.01h0s-.05,.02-.08,.02h0s-.05,.03-.07,.03h0s-.02,.01-.02,.01c0,.01-.02,.02-.02,.04-.02,0-.03,0-.05,.01,0,0,0,.01-.01,.02h-.02s-.03,.02-.04,.02h0s-.03,.01-.04,.01h0s-.05,.02-.07,.02h0s-.02,0-.02,0h0s-.06,.02-.09,.02h0s-.03,.01-.05,.01h0s-.06,.02-.09,.02c0,0,0,.01-.01,.02-.03,0-.07,.01-.1,.02h0s-.05,.03-.07,.04h0s-.02,.01-.03,.01c0,0,0,.02-.01,.02h-.02s0,.02-.01,.02h-.02s0,.02-.01,.02h-.03s-.02,.01-.03,.01h0s-.05,.01-.07,.01h0s-.03,.01-.04,.01h0s-.03,.01-.05,.01h0s-.05,.01-.07,.01h0s-.05,.01-.07,.01h0s-.07,.02-.1,.02h0s-.02,.01-.02,.01h0s-.03,.01-.05,.01h0s-.02,0-.03,0h0s-.02,.01-.04,.01h0s-.02,.01-.03,.01h0s-.02,.01-.02,.01h0s-.02,.01-.03,.01h0s-.02,.01-.02,.01h0s-.02,.01-.03,.01c0,0,0,.02-.01,.02h-.06s-.02,.01-.03,.01h0s-.07,.02-.1,.02c0,0,0,.01-.01,.02h-.05s-.01,0-.02,0h0c-.08,.02-.16,.02-.24,.03h0s-.04,.01-.07,.01h0s0,0-.01,0h-.01s-.05,.01-.08,.01h0s-.04,0-.06,0h0s-.05,.01-.07,.01h0s-.03,.01-.05,.01h0s-.05,.01-.08,.01h0s-.01,.01-.02,.01h0s-.07,.02-.1,.02h0s-.04,.01-.06,.01h0s-.04,0-.06,0h0s-.02,.01-.03,.01h0s-.02,0-.02,0h0s-.02,.01-.02,.01h0s-.1,.02-.15,.02h0s0,.01-.01,.01h0s0,0-.01,0h-.03s-.02,0-.02,0h0s-.06,.01-.09,.01h0s-.05,.01-.08,.01h0s0,.01-.01,.01h0s0-.01-.01-.01h0s-.03,.01-.05,.01h0c-.17,.01-.35,.02-.52,.02-.06,.02-.16,0-.24,0H11.05c-.09,0-.22,.01-.29,0h-.23s-.02,0-.03,0h-.03s-.08-.01-.12-.01h0c-.11-.02-.22-.03-.33-.03h0s-.03-.01-.04-.01h0s-.07-.01-.1-.01h0s-.03-.01-.05-.01h0s-.03,0-.05,0h0s-.04-.01-.06-.01h0s-.05-.01-.08-.01h0s-.04,0-.06,0h0s-.01-.01-.02-.01h0s-.03-.01-.05-.01h0s-.04-.01-.06-.01h0s-.03-.01-.05-.01h0s-.04-.01-.06-.01h0s-.05-.01-.07-.01h0s-.05-.01-.08-.01h0s-.05,0-.08,0h0c-.05-.02-.11-.02-.16-.02-.12-.02-.24-.04-.36-.07h0s-.05-.03-.07-.03h0s-.02-.01-.03-.01h0s-.01-.01-.02-.01h0s-.04-.01-.06-.01h0s-.02-.01-.03-.01h0s-.03-.02-.05-.02h0s-.02-.01-.02-.01h0s-.02,0-.03,0h0s-.03-.01-.05-.01h0s-.03-.01-.05-.01h0s-.05,0-.08,0h0s-.02-.01-.03-.01h0s-.04-.01-.06-.01h0s-.04-.01-.06-.01h0s-.04-.01-.06-.01h0s-.04-.01-.06-.01h0s-.03-.02-.05-.02c0,0,0-.01-.01-.02-.03,0-.07-.01-.1-.02h0s-.05-.03-.07-.03h0s-.05-.03-.07-.04c0,0,0-.01-.01-.02h-.05s-.02-.01-.02-.01h0s-.07-.02-.1-.02h0s-.03-.01-.05-.01h0s-.02-.01-.03-.01h0s-.02-.01-.04-.01h0s-.07-.02-.1-.02h0s-.02-.01-.02-.01c-.03-.01-.04-.04-.08-.04v-.02s-.05-.02-.07-.02h0s-.02-.01-.02-.01c0,0,0-.02-.01-.02-.04-.01-.08-.02-.11-.03h0s-.03-.02-.05-.02h0c-.06-.02-.12-.04-.18-.05h0s-.03-.02-.05-.02c0-.01-.02-.02-.02-.04h-.02s-.02-.02-.02-.03h-.02s-.02,0-.02,0h0s-.02-.01-.02-.01h0s-.02-.01-.02-.01h0s-.02-.01-.02-.01c0,0,0-.01-.01-.02-.02,0-.03,0-.05,0h0s-.05-.03-.07-.04h0s-.02-.01-.03-.01h0s-.06-.02-.09-.02h0s-.02-.01-.02-.01c0,0,0-.02-.01-.02-.01,0-.03,0-.04-.01,0,0-.02-.02-.02-.03h-.02s-.02-.02-.02-.03h-.02s0-.01-.01-.02h-.02s0-.01-.01-.02c-.02,0-.05-.02-.07-.02,0,0,0-.01-.01-.02h-.02s-.02-.01-.03-.01c0,0,0-.02-.01-.02h-.05s-.02-.01-.03-.01h0s-.01-.01-.02-.01h0s-.02,0-.03,0c0,0,0-.02-.01-.02h-.02s-.04-.05-.07-.08h-.02s-.02-.02-.02-.03c-.02,0-.03,0-.05-.01h0s-.02-.01-.02-.01c0,0,0-.02-.01-.02h-.03s-.02-.01-.02-.01h0s-.01-.01-.02-.01c0,0,0-.01-.01-.02h-.02s-.02-.01-.02-.01h0s-.02-.01-.02-.01h0s-.02-.01-.02-.01c0,0,0-.02-.01-.02h-.02s-.03-.04-.04-.06h-.02s-.03-.04-.05-.06h-.02s-.01-.02-.02-.03c-.05-.02-.09-.03-.14-.05,0,0,0-.02-.01-.02-.02,0-.03,0-.05-.01,0,0,0-.02-.01-.03h-.01s0-.02-.01-.02h-.02s-.02-.03-.04-.04h-.02s0-.01-.01-.02h-.02s-.02-.02-.02-.03h-.02s0-.02-.01-.02c-.01,0-.03,0-.04-.01,0-.01-.02-.02-.02-.03-.02,0-.03,0-.05-.01h0s-.03-.05-.07-.06v-.02s-.02,0-.03-.03c-.05-.01-.04-.04-.07-.06-.01,0-.02,0-.03-.01,0,0,0-.01-.01-.02h-.02s0-.01-.01-.02h-.02s-.02-.02-.02-.03h-.02s-.04-.05-.06-.07h-.02s-.06-.07-.09-.1c-.02,0-.03,0-.05-.01,0,0,0-.01-.01-.02-.05-.03-.09-.06-.13-.1-.03-.03-.06-.07-.09-.1h-.02s-.02-.03-.03-.04h-.02s-.03-.04-.06-.05c0-.03,0-.02-.03-.03v-.02s-.04-.04-.06-.06c-.01,0-.02,0-.03-.01v-.02h-.01s0-.02-.01-.02h-.02s-.02-.04-.07-.06v-.02h-.02v-.02s-.04-.04-.08-.06v-.02s-.16-.15-.17-.18h-.02v-.02s-.02-.03-.06-.03v-.02h-.02v-.02h-.02v-.02s-.02-.02-.03-.02v-.02s-.04-.03-.06-.04v-.02s-.03-.02-.05-.03c-.05-.05-.15-.15-.17-.23h-.02v-.02h-.02v-.02s-.06-.05-.09-.08v-.02s-.03-.02-.04-.03c0-.02,0-.03-.01-.04-.01-.01-.03-.02-.05-.03v-.02s-.01,0-.02-.01v-.02h-.01s-.06-.05-.07-.09c-.05-.01-.03-.03-.06-.06-.01,0-.02-.02-.03-.02v-.02s-.01,0-.02-.01v-.02s-.01,0-.02-.01v-.02s-.01,0-.02,0v-.02h-.01s0-.02-.01-.03c0,0-.01,0-.02-.01v-.02s-.02-.02-.03-.02c0,0,0-.02-.01-.03-.03-.03-.06-.05-.09-.08-.03-.06-.05-.13-.08-.19,0,0-.02,0-.02,0,0-.01-.02-.02-.02-.03h-.01v-.02h-.01s-.03-.03-.03-.06h-.02s0-.02-.01-.03h-.01v-.02s-.01,0-.02-.01c0-.02,0-.04-.01-.06h-.01s0-.02-.01-.03c0,0-.01,0-.02-.01,0-.02,0-.04-.01-.06,0,0-.02,0-.02-.01,0-.01,0-.03-.01-.04h-.01s0-.02-.01-.03c0,0-.02,0-.02-.01v-.02s-.04-.03-.06-.05c0-.01,0-.02-.01-.04h-.02s-.02-.05-.04-.08c0-.03,0-.05-.01-.08h-.01v-.02h-.01v-.03s-.02,0-.02-.01v-.02s-.02,0-.02-.01c0-.01,0-.03-.01-.04-.01,0-.02-.02-.04-.02v-.04s-.04-.03-.06-.05c0-.01,0-.03-.01-.04-.01-.01-.03-.02-.04-.04-.02-.06-.03-.13-.05-.19h-.01v-.02h-.01v-.02s-.01,0-.02-.01v-.04s-.02-.01-.03-.02v-.03h-.01s0-.02-.01-.03c0,0-.01,0-.02-.01v-.02s-.02,0-.02-.01v-.02s-.02-.02-.03-.02v-.04s-.01,0-.02-.01c-.02-.08-.04-.16-.06-.24h-.01s-.01-.04-.02-.07h-.01v-.02h-.01v-.02h-.01v-.02h-.01s-.02-.04-.02-.07c-.01,0-.02-.02-.03-.02v-.02s-.01,0-.02-.01v-.02h-.01c-.03-.12-.06-.25-.09-.37h-.01s0-.03-.01-.04h-.01s0-.03-.01-.05c0,0-.01,0-.02-.01v-.02h-.01v-.02h-.01v-.04h-.01v-.02h-.01v-.03h-.01v-.04h-.01s0-.03-.01-.04h-.01s0-.05-.01-.08h-.01v-.03h-.01v-.08h-.01v-.06h-.01v-.03h-.01v-.07h-.01s0-.07-.01-.1h-.01v-.04h-.01s0-.03-.01-.04h-.01s0-.04-.01-.06h-.01s-.02-.08-.02-.11c0,0-.02,0-.02,0v-.03h-.01s0-.03-.01-.05h-.01v-.07h-.01v-.04h-.01s0-.08-.01-.11h-.01v-.1h-.01v-.1h-.01v-.08h-.01v-.07h-.01v-.09h-.01v-.05h-.01v-.03h-.01s0-.08-.01-.13c-.02-.05-.04-.12-.06-.18,0-.04,0-.09-.01-.14h-.01v-.02h-.01s0-.01,.01-.02h-.01v-.03h-.01v-.1h-.01v-.09h-.01v-.08h-.01s0-.02,.01-.02h-.01v-.11h-.01c0-.13,0-.26-.01-.4-.01-.05-.01-.22-.01-.33V11.4c0-.22-.02-.6,.01-.72v-.19h.01v-.18h.01v-.14h.01v-.08h.01v-.09h.01v-.09h.01v-.08s.02,0,.02-.01v-.07h.01s0-.09,.01-.14h.01v-.03h.01v-.03h.01c0-.06,.02-.11,.02-.17h.01v-.04h.01v-.05h.01v-.08h.01v-.09h.01v-.06h.01v-.11h.01v-.09h.01v-.06h.01v-.04h.01v-.07h.01v-.06h.01v-.02h.01v-.03s.02,0,.02-.01c.01-.05,.02-.1,.04-.15h.01s0-.03,.01-.04h.01v-.04h.01s0-.03,.01-.05h.01c.02-.13,.05-.26,.07-.4h.01v-.03h.01s0-.03,.01-.05h.01v-.02h.01v-.04c.03-.06,.05-.12,.08-.18,0,0,.02,0,.02-.01,0-.02,0-.03,.01-.04h.01s0-.06,.01-.09h.01v-.03h.01s0-.05,.01-.08h.01s0-.06,.01-.09h.01s0-.06,.01-.09c0,0,.01,0,.02-.01,0-.02,0-.03,.01-.05,.02-.01,.03-.02,.05-.03,0-.02,.02-.04,.02-.07,0,0,.01,0,.02-.01,0-.02,0-.05,.01-.07h.01v-.02h.01s0-.03,.01-.04h.01s0-.05,.01-.08h.01v-.06s.05-.09,.06-.14h.02s.03-.05,.04-.08v-.02s.02,0,.02-.01v-.02s.02,0,.02-.01c0-.02,.02-.04,.02-.07,0,0,.02,0,.02-.01,.02-.08,.05-.16,.07-.24,.01,0,.02-.02,.03-.02v-.02s.02-.01,.03-.02v-.02s.02-.02,.03-.02v-.02s.02,0,.02-.01c0-.02,0-.03,.01-.05,.01,0,.02-.02,.03-.02v-.03s.02,0,.02-.01v-.03h.01v-.02h.01s0-.04,.01-.06h.01v-.05h.01v-.02s.02,0,.02-.01v-.02h.01s.02-.03,.03-.06h.02s0-.02,.01-.03h.01v-.02h.02v-.03s.01,0,.02-.01c0-.02,0-.03,.01-.05h.01v-.02h.01v-.02s.02,0,.02-.01v-.02h.01v-.02h.01v-.02h.01v-.02h.01v-.02s.02,0,.02-.01v-.02h.01s.01-.02,.02-.05h.02s.04-.04,.06-.07v-.02s.02,0,.02-.01v-.02s.01,0,.02-.01v-.04h.01s0-.03,.01-.04h.01v-.02h.01v-.03s.02-.01,.03-.02c0-.01,0-.02,.01-.03,.03-.02,.05-.05,.08-.07v-.02s.02-.02,.03-.02v-.02s.02,0,.02-.01c0-.02,0-.03,.01-.04,.01,0,.02-.02,.03-.02,0-.01,0-.02,.01-.04h.01v-.02s.02-.02,.03-.02v-.02s.02,0,.02-.01c.03-.03,.07-.06,.08-.1h.02s0-.03,.02-.05h.01s0-.02,.01-.03c0,0,.02,0,.02-.01v-.02s.02,0,.02-.01c0-.02,0-.03,.01-.05h.01s.04-.04,.05-.07h.02s0-.01,.03-.03h0s0-.01,.01-.01v-.02s.02,0,.02-.01c.03-.03,.06-.07,.07-.11h.02v-.02h.01s.02-.03,.03-.05h0s.02-.01,.02-.01v-.02h.02s.05-.07,.08-.1c.01,0,.02-.02,.03-.02v-.02s.02-.01,.03-.02v-.02s.01,0,.02-.01c.01-.02,.02-.03,.03-.05,.04-.04,.1-.07,.11-.12h.02c.04-.08,.12-.13,.18-.19,.03-.03,.04-.07,.09-.08,.01-.04,.03-.03,.06-.06,.04-.04,.1-.13,.16-.15v-.02c.05-.02,.06-.06,.12-.08,.01-.04,.03-.04,.06-.07h.01v-.02h.02s.05-.05,.07-.08h.02s0-.01,.01-.02h.02s0-.01,.01-.02h.02s.02-.02,.02-.03c.03-.02,.05-.01,.06-.06h.02s.04-.04,.06-.07h.02s.02-.03,.03-.05c.02,0,.03,0,.05-.01,0,0,0-.01,.01-.02h.02s.03-.04,.04-.06h.02s0-.02,.01-.02c.03-.03,.06-.07,.1-.08v-.02s.02,0,.03-.01h0s.02-.02,.03-.02c0,0,0-.01,.01-.02h.02s0-.01,.01-.02c.02,0,.04-.01,.07-.02,.01-.02,.02-.03,.03-.05h.02s.03-.04,.05-.06h.02s.03-.04,.04-.06h.02s0-.02,.01-.02c.02,0,.05,0,.07-.01,0,0,0-.02,.01-.02,.03,0,.05-.01,.08-.02v-.02h.02s.02-.03,.03-.05h.02s.02-.03,.03-.05h.02s0-.01,.01-.02h.02s.01-.02,.02-.03h.02s0-.02,.01-.02h.03s0-.02,.01-.02h.02s.01-.01,.02-.01h0s.02-.01,.02-.01h0s.01-.01,.02-.01h0s.01-.01,.02-.01h0s.01-.01,.02-.01c.04-.02,.06-.07,.11-.08,0-.03,0-.02,.02-.03h0s.02-.01,.02-.01c0,0,0-.01,.01-.02h.03s.02-.01,.02-.01h0s.02-.01,.03-.01h0s.02-.01,.03-.01h0s.02-.01,.02-.01h0s.02-.01,.03-.01h0s.02-.01,.02-.01h0s.02-.01,.02-.01c0,0,0-.02,.01-.02h.02s.02-.01,.02-.01c0,0,0-.01,.01-.02,.02,0,.03,0,.05-.01,0,0,0-.01,.01-.02h.02s.02-.03,.03-.04h.02s0-.02,.01-.02c.01,0,.03,0,.05-.01,0,0,0-.01,.01-.02,.03,0,.05,0,.08-.01h0s.02-.01,.03-.01h0s.03-.01,.05-.01c0,0,0-.02,.01-.02h.02s.02-.01,.04-.01c0,0,0-.02,.01-.02,.02,0,.03,0,.05-.01h0s.02-.02,.03-.02c0,0,0-.02,.01-.02,.01,0,.03,0,.05-.01,0,0,0-.02,.01-.02h.02s0-.01,.01-.02h.02s0-.02,.01-.02h.02s.02-.01,.03-.01h0s.02-.01,.03-.01h0s.03-.01,.05-.01h0s.04-.01,.07-.01h0s.03-.02,.05-.02h0s.02-.01,.03-.01h0s.02-.01,.03-.01h0s.03-.02,.05-.02h0s.02-.01,.02-.01c0,0,0-.01,.01-.02h.03s0-.02,.01-.02h.02s.02-.03,.05-.03v-.02s.05,0,.07-.01c0,0,0-.02,.01-.02,.04,0,.08,0,.11-.01h0s.08-.03,.12-.03h0s.02-.01,.03-.01h0s.06-.02,.09-.02c0,0,0-.01,.01-.02,.02,0,.03,0,.05-.01,0,0,0-.01,.01-.02h.03s.03-.02,.05-.02h0s.04-.02,.07-.02h0s.03-.02,.05-.02h0s.01-.01,.02-.01h0s.02-.01,.04-.01h0s.01-.01,.02-.01h0s.08-.02,.12-.02h0s.04-.01,.06-.01h0s.03-.01,.05-.01h0s.03-.01,.05-.01h0s.08-.02,.12-.02h0s.02-.01,.02-.01h0s.02-.01,.03-.01h0s.02-.01,.02-.01h0s.04-.02,.06-.02h0s.08-.03,.11-.03h0s.03-.02,.05-.02h0s.01-.01,.02-.01h0s.04-.02,.07-.02h0s.09-.02,.14-.02h0s.02-.01,.03-.01h0s0,0,.01,0h.01s.02-.01,.03-.01h0s.08-.01,.12-.01h0s.04-.01,.07-.01h0s.06-.01,.09-.01c.14-.03,.27-.05,.41-.08h0s.02-.01,.02-.01h0c.07-.02,.14-.03,.2-.03h0s.01-.01,.02-.01h0s.05-.01,.08-.01h0s.05-.01,.08-.01h0s.04-.01,.06-.01h0s.05-.01,.08-.01h0s.1-.02,.15-.02h0s0,.01,.01,.01h0s.01-.01,.02-.01h.09c.17-.02,.33-.02,.5-.02,.13-.03,.5-.01,.72-.01H52.81s.01,0,.02,0h0c.07,.01,.14,.01,.2,.01h0c.16,.01,.31,.02,.46,.02h0s.02,0,.02,0h0s.05,.01,.07,.01h0s0,.01,.01,.01h0s0-.01,.01-.01h0s.05,.01,.07,.01h0s0,.01,.01,.01h0s0-.01,.01-.01h0s.04,.01,.06,.01h0s.03,.01,.05,.01c.02,0,0,0,.01,.01h0s0-.01,.01-.01h0s.04,.01,.06,.01c.02,0,0,.01,.01,.01h0s0-.01,.01-.01h0s.03,.01,.05,.01h0s.03,.01,.04,.01h0s.04,.01,.06,.01h0s.03,.01,.05,.01h0s.04,.01,.06,.01h0s0,.01,.01,.01h0s0-.01,.01-.01h0s.02,.01,.03,.01h0s.03,.01,.05,.01h0s.02,.01,.02,.01h0s.02,0,.02,0h0s.02,.01,.03,.01h0s.06,.01,.09,.01h0s.09,.02,.14,.02h0s.04,.01,.07,.01h0s.06,.01,.09,.01h0s.06,.01,.09,.01h0s.1,.02,.15,.02h0s.02,.01,.04,.01h0s.01,.01,.02,.01h0s.02,0,.02,0h0s.01,.01,.02,.01h0s.09,.03,.14,.03h0s.05,.03,.07,.03h0s.02,.01,.02,.01h0s.07,.03,.11,.03h0s.02,.01,.03,.01h0s.02,.02,.05,.01c.01,0,0,.02,.02,.02h0s0-.01,.01-.01h0s.07,.02,.1,.02h0s.05,.01,.08,.01h0s.03,.01,.05,.01h0s.02,.01,.03,.01h0s.07,.02,.1,.02h0s.03,.01,.04,.01h0s.02,.01,.03,.01c0,0,0,.01,.01,.02h.02s.02,.02,.02,.03h.02s.02,.01,.03,.01h0s.02,.01,.03,.01h0s.03,.02,.05,.02h0s.02,.01,.03,.01h0s.02,.01,.02,.01h0s.02,.01,.03,.01h0s.02,.01,.02,.01h0s.06,.02,.09,.02h0s.05,.01,.07,.01h0s.05,.02,.07,.02h0s.01,.01,.02,.01h0s.07,.03,.1,.03h0s.03,.02,.05,.02h0s.01,.01,.02,.01c0,0,0,.02,.01,.02h.02s0,.01,.01,.02h.02s0,.01,.01,.02h.02s0,.01,.01,.02h.02s.05,.02,.08,.02h0s.02,.01,.03,.01h0s.02,.01,.02,.01h0s.02,.01,.03,.01h0s.02,.01,.03,.01h0s.05,.02,.08,.02h0s.03,.01,.05,.01h0s.02,.01,.02,.01c0,.01,.02,.02,.02,.03h.02s.04,.05,.08,.06ZM30.02,12.26h0s.02-.01,.03-.01c0,0,0-.02,.01-.02,.02,0,.05,0,.07-.01h0s.05-.03,.07-.04h0s.07-.02,.1-.02h0s.01-.01,.02-.01h0s.03-.01,.05-.01c0-.01,.01-.02,.02-.03,.02,0,.03,0,.05-.01,0-.01,.01-.02,.02-.03h.03s.02-.01,.02-.01h0s.02-.01,.03-.01c0,0,0-.02,.01-.02,.02,0,.05,0,.07-.01h0s.03-.02,.04-.02h0s.02-.01,.03-.01h0c.14-.03,.29-.05,.43-.07h0s.03-.01,.04-.01h0s.05-.01,.07-.01h0s.03-.01,.04-.01h0s0-.01,.01-.01h0s.08-.01,.11-.02c0,0,.02,0,.02,.01h0s.06-.01,.09-.01h0s0-.01,.01-.01c0,0,.01,.02,.03,.01h0s.09,0,.12-.02c0,0,.02,0,.02,.01,.06-.01,.23-.03,.31-.01h0s.02,0,.03,0h0s.05,.01,.08,.01h0s.1,.01,.15,.01h0s.05,.01,.08,.01h0s.08,.02,.11,.02h0s.08,.02,.11,.02h0s.03,.01,.04,.01h0s.04,.01,.06,.01h0s.06,.01,.09,.01h0s.07,.01,.1,.01h0s.02,.01,.03,.01h0s.05,.01,.08,.01h0s.05,.01,.07,.01h0s.02,.01,.03,.01c0,0,0,.01,.01,.02,.02,0,.03,0,.05,.01,0,0,0,.02,.01,.02,.01,0,.03,0,.05,.01h0s.03,.02,.04,.02h0s.02,.01,.04,.01h0s.04,.03,.07,.03c0,0,0,.02,.01,.02h.02s.02,.01,.03,.01h0s.02,.01,.04,.01h0s.03,.01,.04,.01h0s.04,.01,.06,.01h0s.02,.01,.02,.01h0s.02,.01,.03,.01h0s.02,.01,.02,.01c0,.01,.02,.02,.02,.03h.02s0,.01,.01,.02h.02s.04,.04,.07,.05v.02s.05,.02,.07,.03h0s.02,.01,.02,.01c0,0,0,.01,.01,.02,.02,0,.04,0,.06,.01h0s.03,.02,.05,.02h0s.02,.01,.02,.01h0s.02,.01,.03,.01c0,0,0,.01,.01,.02h.02s.05,.06,.08,.09h.02s.01,.02,.02,.03c.01,0,.03,0,.05,.01h0s.02,.02,.03,.02c0,0,0,.02,.01,.02h.03s.02,.01,.02,.01c0,0,0,.01,.01,.02h.02s.02,.02,.03,.02v.02s.07,.04,.1,.07c0,0,0,.02,.01,.02h.02s.02,.02,.02,.03h.02s0,.01,.01,.02c.01,0,.02,0,.03,.01h0s.03,.02,.05,.02c0,0,0,.02,.01,.02h.02s.01,.01,.02,.01h0s.02,.01,.02,.01h0s.02,.01,.02,.01c0,.01,.02,.02,.02,.03,.01,0,.02,0,.04,.01v.02h.02v.02s.03,.01,.04,.02h0s.02,.01,.02,.01c0,0,0,.02,.01,.02h.02s0,.02,.01,.02h.05s.02,.01,.02,.01h0s.01,.01,.02,.01c0,0,0,.01,.01,.02h.02s0,.02,.01,.02h.02s.04,.04,.06,.07h.02s.02,.03,.03,.04h.02s.02,.03,.03,.05c.07,.04,.14,.08,.2,.11,.02,.02,.03,.04,.05,.06h.02s.04,.05,.06,.07h.02s0,.02,.01,.02c.02,0,.04,0,.06,.01,0,0,0,.02,.01,.02h.03s.02,.01,.03,.01c0,0,0,.01,.01,.02h.02s0,.01,.01,.02c.01,.01,.03,.02,.04,.03h0s.02,.01,.02,.01h0s.03,.04,.06,.04v.02c.09,.02,.14,.12,.24,.14v.02s.07,.04,.1,.07c0,0,0,.01,.01,.02h.02s.02,.03,.03,.05h.02s.03,.02,.05,.02h0s.07,.03,.1,.04c.03,.02,.02,.05,.07,.06v.02s.03,.02,.07,.03v.02s.05,.03,.08,.05c.01,0,.03,0,.04,.01,0,0,0,.01,.01,.02h.02s0,.02,.01,.02h.02s.02,.02,.02,.04h.02s.02,.02,.02,.03h.02s.04,.05,.06,.07h.02s.02,.03,.03,.05h.02s0,.02,.01,.02h.02s.02,.01,.02,.01h0s.02,.01,.02,.01h0s.02,.01,.02,.01h0s.01,.01,.02,.01h0s.02,.01,.02,.01h0s.01,.01,.02,.01c0,.01,.02,.02,.02,.03h.02s.04,.05,.07,.08h.02s.01,.02,.02,.03h.02s.02,.01,.02,.01h0s.02,.01,.02,.01h0s.02,.01,.02,.01h0s.02,.01,.02,.01h0s.02,.01,.02,.01c.03,.02,.03,.04,.07,.05v.02s.04,.02,.06,.03h0s.02,.01,.02,.01h0s.03,.03,.05,.04c0,0,0,.01,.01,.02,.02,0,.03,0,.04,.01,0,.01,.02,.02,.02,.03,.02,0,.03,0,.05,.01,0,0,0,.02,.01,.02h.02s0,.02,.01,.02h.02s.04,.04,.08,.05v.02s.02,0,.03,.01c.01,.02,.03,.04,.04,.06h.02s.01,.02,.02,.04h.02s.02,.01,.03,.01c0,0,0,.02,.01,.02h.04s.01,.01,.02,.01h0s.01,.01,.02,.01c0,0,0,.02,.01,.02h.02s.03,.04,.05,.06h.02s.03,.04,.05,.06h.02s.02,.02,.03,.02c0,.01,.02,.02,.02,.03,.02,0,.03,0,.05,.01h0s.02,.02,.03,.02c0,0,0,.01,.01,.02h.02s0,.02,.01,.02h.02s0,.01,.01,.02h.02s0,.02,.01,.02h.02s.02,.05,.07,.06v.02s.04,.02,.06,.03h0s.02,.01,.02,.01c.07,.04,.14,.08,.2,.11v.02s.04,.04,.07,.06h.02s0,.01,.01,.02h.02s.01,.02,.02,.03h.03s.02,.02,.02,.03h.03s.02,.02,.02,.03h.02s0,.02,.01,.02h.02s.01,.02,.02,.03h.02s.04,.05,.06,.07h.02s.02,.03,.03,.05h.02s0,.02,.01,.02c.01,0,.03,0,.05,.01h0s.01,.01,.02,.01c0,0,0,.02,.01,.02h.03s.02,.01,.02,.01h0s.01,.01,.02,.01c0,.01,.02,.02,.02,.03h.02s.05,.05,.07,.08h.02s0,.02,.01,.02c.01,0,.02,0,.03,.01h0s.01,0,.02,0h0s.02,.01,.02,.01h0s.01,.01,.02,.01h0s.02,.01,.02,.01c0,0,0,.01,.01,.02,.02,0,.03,0,.05,.01,0,.01,.02,.02,.02,.03h.02s.02,.03,.03,.05h.02s.05,.05,.07,.08h.02s.01,.02,.02,.03h.02s0,.02,.01,.02c.02,0,.03,0,.05,.01h0s.02,.01,.02,.01h0s.02,.01,.02,.01h0s.02,.01,.02,.01h0s.01,.01,.02,.01c0,0,0,.02,.01,.02h.02s.05,.05,.07,.08c.01,0,.02,0,.03,.01,.01,.02,.02,.03,.03,.05,.02,0,.04,0,.06,.01,0,0,0,.02,.01,.02h.03s.02,.01,.02,.01c0,0,0,.02,.01,.02h.03s.03,.04,.04,.06h.02s.02,.03,.03,.05h.02s.03,.04,.05,.06h.02s0,.02,.01,.02c.01,0,.02,0,.03,.01h0s.01,.01,.02,.01c0,.01,.01,.02,.02,.03h.02s.01,.01,.02,.01h0s.01,.01,.02,.01h0s.01,.01,.02,.01c0,.01,.02,.02,.02,.04h.02s.02,.03,.03,.04h.02s0,.02,.01,.04c.01,0,.02,0,.04,.01,0,.01,.01,.02,.02,.04h.02s0,.01,.01,.02h.03s.01,.01,.02,.01h0s.02,.01,.03,.01c0,0,0,.01,.01,.02,.02,0,.03,0,.05,.01,0,0,0,.02,.01,.02h.02s0,.02,.01,.02c.03,.02,.07,.07,.11,.08v.02c.06,0,.04,.03,.07,.05h.03s.02,.02,.02,.03c.02,0,.03,0,.05,.01,0,0,0,.02,.01,.02h.02s.02,.02,.02,.03h.02s.02,.03,.03,.05h.02s.04,.05,.06,.07h.02s0,.02,.01,.02h.02s.02,.01,.02,.01h0s.07,.04,.1,.05c0,0,0,.02,.01,.02h.02s.02,.03,.03,.05c.03,.02,.02-.01,.03,.03,.03,0,.03,0,.05,.02h0s.01,.01,.02,.01c0,0,0,.01,.01,.02h.02s.01,.02,.02,.03h.02s.02,.01,.02,.01h0s.02,.01,.03,.01c.01,.02,.02,.03,.03,.05,.02,0,.03,0,.04,.01,.01,.01,.02,.03,.03,.04h.02s.03,.04,.04,.06h.02s.03,.04,.05,.06h.02s0,.02,.01,.02c.02,0,.03,0,.05,.01,0,0,0,.02,.01,.02,.03,.01,.07,.02,.1,.04,0,.01,.01,.02,.02,.03h.02s.05,.06,.08,.09h.02s0,.02,.01,.02h.02s0,.02,.01,.02h.03s0,.01,.01,.02h.03s0,.02,.01,.02c.02,0,.03,0,.05,.01,.01,.02,.02,.03,.03,.04h.02s.01,.02,.02,.04h.02s.02,.02,.02,.03c.03,.03,.09,.08,.14,.09v.02s.03,0,.05,.01h0s.01,.01,.02,.01h0s.04,.02,.06,.02h0s.03,.04,.06,.04v.02s.05,.04,.08,.06h0s.01,0,.02,0c0,0,0,.02,.01,.02h.02s0,.02,.01,.02h.03s.01,.01,.02,.01h0s.01,.01,.02,.01c0,0,0,.02,.01,.02h.02s.03,.02,.05,.02c.01,.02,.02,.03,.03,.04h.02s0,.01,.01,.02h.02s0,.01,.01,.02h.02s0,.01,.01,.02h.02s.01,.01,.02,.01h0s.02,.01,.03,.01h0c.05,.03,.19,0,.21-.02,0-.01,.01-.02,.02-.04h.03s0-.01,.01-.02c.02,0,.04,0,.06-.01h0s.02-.01,.02-.01h0s.05-.02,.08-.02c.05-.02,.12-.04,.18-.06h.08s.04-.01,.06-.01h0s0-.01,.01-.01h0s0,.01,.01,.01h0s.03-.01,.04-.01h0s.05-.01,.08-.01h0s.05-.01,.08-.01h0s.02-.01,.03-.01h0s.02-.01,.03-.01h0s.02,0,.03,0h0s.1-.03,.15-.04h0s.03-.02,.05-.02h0s.03-.01,.05-.01h0s.02-.01,.03-.01h0s.01,0,.02,0h0s.07-.02,.1-.02h0s.02-.01,.03-.01h0s.05,0,.08,0h0c.06-.02,.13-.02,.19-.02h0s0-.01,.01-.01h0s0,0,.01,0h.15s.02,0,.03,0h0c.11-.02,.22-.03,.33-.03h.34c.06-.01,.12-.01,.18-.01,.04,0,.27-.03,.32,0h0c.09,0,.18,0,.27,0,.1,0,.24,0,.28,.01h.16s0,.01,.01,.01c0,0,0-.01,.02-.01h0s0,.01,.01,.01h0s0-.01,.01-.01h0c.11,.01,.22,.02,.33,.02h0s0,.01,.01,.01h0s0-.01,.01-.01h0s.08,.01,.11,.01h0s.01,0,.02,0h0c.05,.02,.11,.02,.16,.02h0s.1,.02,.15,.02h0s.02,.01,.02,.01h0s.08,.02,.11,.02h0s.03,.01,.05,.01h0s.04,.01,.06,.01h0s.02,.01,.02,.01h0s.03,.01,.05,.01h0s.02,.01,.03,.01h0s.02,.01,.02,.01h0s.04,.01,.06,.01h0s.01,0,.02,0h0s.01,0,.02,0h0s.02,0,.02,0h0s.01,.01,.02,.01h0s.03,.01,.04,.01h0s.04,.01,.06,.01h0s.07,.01,.1,.01c.07,.02,.18,.03,.25,.06h.05s.02,.01,.02,.01h0s.05,.02,.07,.02h0s.05,.02,.07,.02h0s.01,.01,.02,.01h0s.02,.01,.03,.01h0s.02,.01,.02,.01h0s.02,.01,.02,.01c0,0,0,.01,.01,.02h.02s.02,.01,.02,.01h0s.02,.01,.04,.01h0s.06,.02,.09,.02h0s.03,.01,.05,.01h0s.02,.01,.03,.01h0s.03,.01,.05,.01h0s.08,.02,.12,.02h0s.04,.02,.06,.02h0s.02,.01,.02,.01h0s.02,.01,.03,.01c0,.01,.02,.02,.02,.03h.03s.01,.01,.02,.01h0s.05,.03,.07,.03h0s.02,.01,.03,.01c0,0,0,.01,.01,.02h.02s0,.01,.01,.02h.02c.05,.02,.1,.04,.16,.04h0s.05,.02,.07,.02h0s.02,.01,.02,.01h0s.02,.01,.04,.01h0s.03,.02,.04,.02h0s.04,.02,.06,.02c0,0,0,.02,.01,.02h.02s.02,.03,.04,.05h.02s.01,.02,.02,.03h.02s.02,.01,.03,.01h0s.02,.01,.02,.01h0s.02,.01,.03,.01h0s.05,.02,.08,.02h0s.01,.01,.02,.01c0,0,0,.02,.01,.02,.02,0,.05,0,.07,.01,0,0,0,.02,.01,.02,.02,0,.04,.01,.07,.02,0,0,0,.02,.01,.02,.01,0,.02,0,.03,.01,.01,.01,.02,.03,.03,.05h.02s0,.01,.01,.02h.02s0,.01,.01,.02h.03s.01,.01,.02,.01h0s.02,.01,.03,.01h0s.02,0,.03,0h0s.03,.02,.04,.02h0s.02,0,.02,0c0,0,0,.02,.01,.02h.02s0,.02,.01,.02h.02s.02,.03,.03,.04h.02s0,.02,.01,.02h.02s.01,.02,.02,.03h.02s.01,.02,.02,.03h.02s0,.02,.01,.02c.02,0,.03,0,.05,0h0s.03,.01,.05,.01c0,0,0,.01,.01,.02h.03s0,.01,.01,.02h.02s0,.01,.01,.02h.02s.02,.03,.03,.03v.02c.06,.02,.09,.06,.14,.09h.03s0,.01,.01,.02h.02s0,.01,.01,.02h.02s0,.01,.01,.02h.02s.05,.06,.08,.09h.02s.04,.05,.06,.07h.02s.02,.02,.02,.03c.01,0,.03,0,.04,.01,0,0,0,.02,.01,.02,.02,.02,.05,.04,.08,.05v.02h.02s.06,.07,.09,.1c.01,0,.02,0,.03,.01,.01,.01,.02,.03,.03,.04h.02s0,.02,.01,.02h.02s0,.02,.01,.02c.02,.02,.04,.03,.07,.04v.02s.07,.05,.1,.08c0,0,0,.01,.01,.02h.02s.02,.04,.07,.06c.01,.04,.04,.04,.07,.07,.04,.04,.13,.17,.19,.18,.01,.04,.12,.15,.16,.16,0,.04,.07,.11,.1,.13,0,0,.01,0,.02,.01,.04,.05,.07,.11,.12,.13v.02h.02s0,.02,.01,.04h.01v.02s.02,0,.02,.01v.02s.03,.02,.04,.03c0,.01,0,.02,.01,.04,.01,0,.02,0,.03,.01v.02h.01s.02,.03,.03,.05c.02,.01,.03,.02,.05,.03v.02s.02,0,.02,.01v.02s.02,.02,.03,.02v.02s.02,.02,.03,.02c.02,.03,.02,.05,.06,.07v.02h.02s.04,.05,.06,.08h.01s0,.02,.01,.03c.01,0,.02,.02,.03,.02v.02s.01,0,.02,.01c0,.02,.01,.04,.02,.07,0,0,.01,0,.02,0,0,.02,0,.03,.01,.05,.01,0,.02,.01,.03,.02v.02s.06,.05,.09,.08v.02s.01,0,.02,.01c.02,.06,.05,.12,.07,.18,.02,.01,.03,.02,.05,.03v.02s.05,.04,.07,.06v.02s.01,0,.02,.01v.02s.02,.02,.03,.02c0,.02,.02,.04,.02,.07,0,0,.02,0,.02,0v.04h.01v.02h.01v.03h.01v.03h.01s0,.03,.01,.05h.01v.02s.05,.04,.07,.06v.02s.03,.02,.05,.03v.02s.01,0,.02,0c0,.02,0,.05,.01,.07h.01s0,.04,.01,.06h.01s0,.03,.01,.04h.01s0,.05,.01,.08h.01v.02h.01v.03s.02,.02,.03,.02v.02s.02,.02,.03,.02v.02s.02,.01,.03,.02v.02s.02,0,.02,.01c.05,.14,.1,.29,.15,.43h.02s0,.02,.01,.04h.01v.02h.01v.02s.02,0,.02,.01v.03h.01v.02h.01v.04h.01v.02h.01s0,.04,.01,.07h.01v.02h.01v.06h.01v.07h.01v.06h.01v.03h.01v.05h.01v.02h.01v.04h.01v.03h.01v.03h.01v.02h.01v.02s.02,.02,.04,.02c0,.02,0,.03,.01,.04h.01s.01,.08,.02,.11h.01v.03h.01v.02h.01v.06h.01v.04h.01v.08h.01v.06s0,0,.01,.01h-.01s0,.01,.01,.01v.04h.01s0,.1,.01,.15h.01s0,.06,.01,.09c0,0,.01,0,.02,.01v.05h.01v.04h.01v.06h.01v.03h.01v.04h.01v.03s.02,0,.02,.01c0,.04,0,.08,.01,.13h.01v.07h.01v.02h.01v.04h.01v.09h.01s0,.02-.01,.03h.01v.06h.01s0,.02-.01,.02h.01v.09h.01v.18h.01s0,.02-.01,.02h.01v.12h.01s0,.02-.01,.02h0s0,.01,.01,.01v.12h.01s0,.01-.01,.02h.01v.13h.01s-.01,.03-.01,.05h.01v.19h0s0,.01,.01,.01c0,.02,0,.01-.01,.02,0,0,.01,.02,.01,.05,0,.08,.01,.18,0,.2,0,.01,0,.02,.01,.03v.16h-.01s0,.02,.01,.03v.04h-.01s.02,.01,.01,.04h-.01s0,.02,.01,.03h-.01v.12h-.01v.35h-.01s0,.02,.01,.02h-.01s0,.02,.01,.03h-.01v.14h-.01v.14h-.01v.11h-.01s.02,.02,.01,.05h-.01v.17h-.01s0,.02,.01,.03h-.01c0,.09-.01,.19-.02,.28h-.01v.04h-.01v.06h-.01v.05h-.01v.04h-.01s0,.06-.01,.09h-.01v.02h-.01v.07h-.01v.03h-.01v.05h-.01v.02h-.01v.03h-.01s0,.02,.01,.02h-.01v.04h-.01v.03h-.01v.06h-.01s0,.07-.01,.1h-.01v.1h-.01v.06h-.01v.06h-.01v.06h-.01s0,.07-.01,.1h-.01v.03h-.01s-.01,.05-.02,.07h-.01v.02h-.01v.02h-.01v.03h-.01s0,.04-.01,.06h-.01v.02h-.01v.03h-.01v.02s-.02,0-.02,.01v.02h-.01c0,.06-.02,.11-.02,.17h-.01v.05h-.01v.03h-.01v.04h-.01v.05s-.04,.07-.05,.11h-.02s0,.02-.01,.04h-.01v.02h-.01v.02s-.02,.01-.03,.02v.03h-.01v.02h-.01v.03h-.01s0,.03-.01,.05h-.01s0,.05-.01,.07h-.01s-.02,.1-.02,.15h-.01v.02s-.01,0-.02,.01v.02s-.02,0-.02,.01v.02s-.01,0-.02,.01v.02s-.02,0-.02,.01v.02s-.01,0-.02,.01v.04s-.02,.01-.03,.02v.03h-.01v.02h-.01v.02h-.01s-.02,.05-.02,.07h-.01v.06h-.01v.02h-.01v.03h-.01v.02h-.01v.02s-.02,.02-.03,.02v.02s-.02,.02-.03,.02v.02s-.02,0-.02,.01v.02s-.02,.01-.04,.02c0,.02,0,.03-.01,.04,0,0-.02,0-.02,.01,0,.02,0,.04-.01,.06,0,0-.01,0-.02,.01v.03h-.01v.02h-.01s0,.03-.01,.05h-.01v.03h-.01v.02s-.01,0-.02,.01v.02s-.03,.02-.05,.03v.02h-.01s-.02,.03-.03,.05c0,0-.01,0-.02,.01v.02h-.01v.02h-.01v.02h-.01v.02h-.01v.02h-.01v.03h-.01v.02h-.01v.02s-.02,.02-.03,.02v.02s-.02,.02-.03,.02v.02s-.05,.04-.07,.06v.02s-.03,.02-.04,.04v.02s-.03,.02-.05,.03v.02h-.01v.02h-.01v.02h-.01v.02h-.01v.02s-.02,.02-.03,.02c0,.01,0,.02-.01,.03h-.01s-.05,.04-.06,.08c-.05,.01-.04,.04-.07,.08h-.01v.02s-.01,0-.02,0v.04s-.02,0-.02,.01v.02s-.05,.04-.07,.06v.02s-.08,.07-.12,.11v.02s-.01,0-.02,.01c0,.01,0,.02-.01,.04h-.01v.02c-.06,.05-.11,.1-.17,.16v.02s-.03,.02-.05,.04v.02s-.03,.02-.05,.03c-.03,.03-.05,.06-.08,.09-.08,.07-.15,.14-.23,.21v.02s-.06,.04-.09,.07h0s-.02,.01-.02,.01c-.06,.06-.11,.12-.17,.18-.03,.02-.07,.03-.09,.07h-.02v.02s-.01,0-.02,.01h0s-.01,.01-.02,.01c-.03,.04-.07,.07-.1,.11h-.02s0,.02-.01,.02c-.01,0-.02,0-.04,.01h0s-.01,.01-.02,.01c0,0,0,.01-.01,.02h-.02s0,.01-.01,.02h-.02s0,.01-.01,.02h-.02s-.07,.08-.1,.11h-.02s0,.02-.01,.02c-.01,0-.03,0-.05,.01,0,0,0,.02-.01,.02-.02,0-.03,0-.05,0,0,0,0,.02-.01,.02h-.02s0,.02-.01,.02h-.02s-.02,.02-.03,.02v.02s-.02,0-.03,.01c-.02,.02-.03,.04-.04,.06h-.02s-.02,.03-.03,.05c-.01,0-.02,0-.03,0,0,0,0,.02-.01,.02h-.02s-.02,0-.02,0h0s-.01,.01-.02,.01h0s-.01,.01-.02,.01h0s-.01,.01-.02,.01h0s-.02,.02-.03,.02c0,0,0,.02-.01,.02-.02,0-.03,0-.05,0-.02,.02-.04,.05-.06,.07h-.02s-.02,.03-.03,.05h-.02s-.01,.01-.02,.01h0s-.02,.01-.03,.01h0s-.03,.02-.05,.02h0s-.02,.01-.03,.01h0s-.02,.01-.02,.01h0s-.02,.01-.02,.01c0,.01-.02,.02-.02,.04-.02,0-.03,0-.05,.01-.01,.02-.02,.03-.03,.04h-.03s0,.02-.01,.02c-.01,0-.02,0-.03,.01,0,.01-.01,.02-.02,.04-.02,0-.03,0-.05,.01,0,0,0,.02-.01,.02-.03,.02-.06,.01-.09,.02h0s-.05,.02-.08,.02h0s-.05,.03-.07,.04v.02s-.02,0-.03,.01h0s-.02,.01-.02,.01c0,0,0,.01-.01,.02h-.02s-.01,.02-.02,.04h-.03s0,.02-.01,.02c-.01,0-.03,0-.05,.01h0s-.04,.03-.07,.04h0s-.02,0-.03,0h0s-.04,.01-.06,.01h0s-.03,.01-.05,.01h0s-.02,.01-.03,.01h0s-.02,.01-.03,.01c0,0,0,.02-.01,.02-.01,0-.02,0-.03,.01h0s-.02,.01-.02,.01h0s-.01,.01-.02,.01c0,0,0,.02-.01,.02-.04,.03-.06,.01-.08,.07h-.02s0,.03-.02,.05h-.01v.02s-.01,0-.02,.01c0,.01,0,.03-.01,.04,0,0-.01,0-.02,.01-.01,.03-.02,.07-.03,.1,0,.1,0,.2,.01,.31v8.83c0,.32,0,.58-.06,.8,0,.11-.02,.23-.02,.34h-.01v.06h-.01v.05h-.01v.03h-.01s0,.05-.01,.08h-.01v.06h-.01v.02s-.01,0-.02,.01c0,.02-.02,.04-.02,.07,0,0-.02,0-.02,.01v.02s-.02,0-.02,.01c0,.02,0,.04-.01,.07h-.01v.03h-.01v.02h-.01c-.02,.09-.05,.17-.07,.26h-.01v.02s-.01,0-.02,.01c0,.01,0,.02-.01,.03h-.01s-.03,.03-.03,.06h-.02c-.01,.06-.04,.05-.06,.09v.04h-.01v.02h-.01v.02s-.01,0-.02,.01v.03h-.01v.02h-.01v.02h-.01s0,.02-.01,.03c0,0-.01,0-.02,.01,0,.02,0,.03-.01,.05-.04,.04-.08,.08-.12,.11v.02s-.02,0-.02,.01c0,.02-.02,.05-.02,.07,0,0-.02,0-.02,0,0,.02,0,.03-.01,.05,0,0-.01,0-.02,.01-.03,.03-.11,.11-.12,.15h-.02v.02h-.02v.02h-.02v.02s-.04,.03-.06,.05c-.03,.04-.07,.08-.1,.11-.03,.02-.05,.02-.07,.05h-.02v.02s-.02,0-.03,.01h0s-.02,.01-.02,.01h0s-.02,.02-.02,.04c-.04,.01-.06,.04-.09,.07h0s-.02,0-.02,0c0,0,0,.02-.01,.02-.02,0-.05,.02-.07,.02,0,0,0,.02-.01,.02h-.02s-.01,.01-.02,.01h0s-.01,.01-.02,.01c0,0,0,.02-.01,.02-.01,0-.02,0-.03,.01-.01,.01-.02,.03-.03,.04h-.02s-.01,.02-.02,.04h-.02s-.02,.03-.03,.04h-.02s0,.01-.01,.02c-.02,0-.04,0-.06,0,0,0,0,.02-.01,.02-.04,0-.07,.02-.1,.03h-.05s-.03,.02-.04,.02h0s-.02,.01-.02,.01c0,.01-.02,.02-.02,.03-.02,0-.05,.02-.07,.02,0,.01-.02,.02-.02,.03h-.03s-.02,.01-.02,.01h0s-.02,.01-.02,.01h0s-.02,.01-.02,.01h0s-.05,.03-.07,.03h0s-.04,.01-.06,.01h0s-.03,.01-.05,.01c-.02,0,0,0-.01,.01-.01-.01,0-.01-.01-.01h0s-.04,.01-.06,.01h0s-.03,.01-.04,.01h0s-.03,.01-.05,.01h0s-.03,.01-.05,.01h0s-.04,.01-.06,.01h0s-.07,.03-.1,.03h0s-.02,.01-.02,.01h0s-.04,.02-.07,.02h0s-.08,.02-.11,.02h0s-.02,.01-.02,.01h0s-.08,.02-.11,.02h0c-.06,.02-.12,.02-.18,.02h0s0,.01-.01,.01h0s0,0-.01,0h-.16c-.07,.02-.19,.01-.28,.01H16.88c-.17,0-.43,.01-.52-.01h-.12s0-.01-.01-.01h0s-.02,0-.02,0c-.01,0,0,.01-.01,.01h0s-.06-.01-.09-.01h0s-.05-.01-.07-.01h0s-.03-.01-.05-.01h0s-.05-.01-.08-.01c-.15-.05-.31-.1-.46-.15h-.04s0-.01-.01-.01c-.01,0,0,.01-.01,.01-.09-.03-.19-.05-.28-.08h0s-.02-.01-.02-.01v-.02h-.03s-.03-.04-.05-.06h-.02s0-.01-.01-.02h-.03s-.03-.02-.05-.02h0s-.04-.02-.06-.02h0s-.03-.01-.05-.01h0s-.05-.03-.07-.03h0s-.02-.01-.02-.01h0s-.02,0-.03,0h0s-.02-.01-.02-.01c0,0,0-.02-.01-.02h-.02s-.01-.02-.02-.03h-.02s0-.02-.01-.02h-.01s-.02-.03-.03-.05h-.02s0-.02-.01-.02h-.02s0-.02-.01-.02h-.03s-.02-.01-.02-.01h0s-.02-.01-.03-.01c0,0,0-.02-.01-.02h-.02s0-.01-.01-.02h-.02s0-.01-.01-.02c-.03-.02-.06-.07-.1-.08v-.02s-.04-.02-.06-.03h0s-.01-.01-.02-.01c0,0,0-.02-.01-.02h-.01s0-.01-.01-.02h-.02s-.07-.08-.1-.11c-.07-.07-.14-.14-.21-.2-.03-.03-.04-.08-.08-.1v-.02h-.02s-.03-.04-.05-.08h-.02s-.03-.04-.05-.08h-.02s-.01-.04-.02-.06h-.01v-.02s-.02,0-.02-.01c0-.02,0-.04-.01-.06h-.01s0-.03-.01-.05h-.01v-.02s-.02,0-.02-.01v-.02s-.03-.02-.05-.03h0s-.01-.02-.02-.02v-.02s-.02-.02-.03-.02v-.02s-.02,0-.02-.01v-.02h-.01v-.03h-.01v-.02h-.01v-.03s-.01,0-.02-.01c0-.02,0-.04-.01-.06h-.01v-.06h-.01v-.02h-.01s0-.04-.01-.06c0,0-.02,0-.02-.01v-.02s-.02-.02-.03-.02v-.02s-.02,0-.02-.01v-.02s-.02,0-.02,0c-.02-.05-.03-.11-.05-.16h-.01v-.02h-.01v-.04h-.01v-.07h-.01v-.09h-.01s0-.07-.01-.1h-.01v-.04h-.01v-.05h-.01v-.04h-.01v-.04h-.01v-.02h-.01v-.04h-.01v-.05h-.01v-.07c-.02-.05-.03-.13-.05-.18v-.07h-.01s0-.01,.01-.02c0,0,0-.01-.01-.02h.01s0-.01-.01-.01c0-.16,0-.31-.01-.46V26.55c0-.14-.01-.38,.01-.47v-.12h.01v-.06h.01v-.11c.02-.07,.04-.15,.06-.21v-.06h.01v-.03h.01v-.02h.01v-.05h.01v-.04h.01v-.06h.01c.02-.1,.03-.21,.05-.32h.01v-.03h.01s.02-.04,.02-.07h.01v-.02h.01s.02-.07,.03-.1c0,0,.02,0,.02-.01v-.02s.02,0,.02-.01v-.02s.02,0,.02-.01c0-.01,0-.03,.01-.04h.01v-.04h.01v-.02h.01s.02-.08,.02-.11h.01s0-.03,.01-.04h.01v-.02s.01,0,.02-.01v-.02s.02,0,.02-.01v-.02s.02,0,.02-.01v-.02s.05-.05,.08-.07v-.02s.01,0,.02-.01v-.02h.01v-.02h.01v-.04h.01s.01-.05,.02-.07h.01v-.02s.02,0,.02-.01v-.02h.01s.03-.03,.03-.06h.02v-.02s.03,0,.03-.03h.02c.02-.08,.11-.14,.15-.21h.02c.02-.06,.07-.07,.1-.1,.02-.02,.03-.04,.04-.07,.03-.03,.06-.05,.09-.08,0-.01,.02-.02,.02-.03h.02s.02-.02,.02-.04h.02s0-.01,.01-.02h.02s.01-.02,.02-.03h.02s.02-.03,.03-.05h.02s.03-.03,.04-.05c.02-.02,.03-.04,.05-.06h.02s0-.02,.01-.02c.01,0,.03,0,.05-.01h0s.01,0,.02,0h0s.01-.01,.02-.01h0s.02-.01,.02-.01h0s.01,0,.02,0c0,0,0-.02,.01-.02h.02s.05-.05,.07-.08h.02s.01-.02,.02-.03h.02s.01-.02,.02-.04c.02,0,.05-.01,.07-.02,0,0,0-.01,.01-.02,.01,0,.03,0,.05-.01,0,0,0-.02,.01-.02h.02s.02-.03,.03-.05h.02s0-.01,.01-.02h.02s.05-.06,.08-.09h.02s0-.02,.01-.02c.01,0,.02,0,.03-.01h0s.07-.03,.1-.05c0,0,0-.01,.01-.02,.01,0,.03,0,.04,0h0s.03-.04,.06-.05c0-.03,0-.03,.03-.04v-.02s.06-.04,.09-.06h.02s.02-.01,.02-.01h0s.02-.01,.02-.01h0s.02-.01,.02-.01c0,0,0-.02,.01-.02h.02s0-.02,.01-.02c.01,0,.02,0,.03-.01,.02-.02,.03-.04,.05-.06,.01,0,.02,0,.03-.01h0s.02-.01,.02-.01v-.02s.03,0,.05-.02h0s.01-.01,.02-.01c0,0,0-.02,.01-.02h.02s.01-.02,.02-.03h.02s.02-.01,.02-.01h0s.01-.01,.02-.01h0s.02-.01,.02-.01c0,0,0-.02,.01-.02h.02s.01-.01,.02-.01c0-.01,.02-.02,.02-.04h.02s.05-.06,.08-.09h.02s.01,0,.02,0h0s.02-.01,.02-.01c0,0,0-.02,.01-.02h.03s.01-.01,.02-.01h0s.02-.01,.02-.01h0s.04-.04,.07-.05v-.02s.03,0,.05-.02h0s.02-.01,.02-.01h0s.02-.03,.03-.03c0,0,0-.02,.01-.02h.02s.02-.03,.03-.05c.02,0,.03,0,.05-.01,0,0,0-.02,.01-.02,.01,0,.03,0,.05-.01,0,0,0-.01,.01-.02,.02,0,.03,0,.05-.01,0,0,0-.02,.01-.02h.02s.03-.04,.04-.06h.02s.02-.03,.03-.04c0-.01,.01-.02,.02-.03,.02,0,.03,0,.05-.01,0,0,0-.01,.01-.02h.02s.02,0,.03,0c0,0,0-.02,.01-.02h.04s0-.02,.01-.02h.02s.05-.05,.07-.08h.02s.01-.02,.02-.04h.02s.02-.03,.03-.05c.02,0,.03,0,.05,0,0,0,0-.02,.01-.02h.02s0-.02,.01-.02h.02s0-.02,.01-.02c.02,0,.03,0,.05-.01,.01-.02,.02-.03,.03-.04h.02s0-.02,.01-.02h.02s.03-.04,.05-.06h.02s.02-.03,.03-.03c0,0,0-.01,.01-.02,.06-.03,.12-.05,.18-.08,0-.01,.02-.02,.02-.04h.02s.05-.05,.07-.08h.02s0-.01,.01-.02c.01,0,.02,0,.03-.01h0s.01-.01,.02-.01c0,0,0-.01,.01-.02h.03s0-.01,.01-.02h.02s0-.01,.01-.02h.02s.02-.02,.02-.04c.04-.02,.07-.03,.09-.07h.02v-.02s.04-.02,.06-.03h0s.02-.02,.04-.02c0,0,0-.02,.01-.02h.02s.02-.01,.02-.01h0s.02-.01,.02-.01h0s.02,0,.02,0h0s.02-.01,.02-.01c0,0,0-.02,.01-.02h.04s0-.02,.01-.02h.02s.06-.07,.09-.1h.02s0-.02,.01-.02c.01,0,.03,0,.04-.01h0s.02-.01,.02-.01h0s.02,0,.02,0h0s.02-.01,.02-.01h0s.02-.01,.02-.01c0,0,0-.02,.01-.02h.02s.03-.04,.04-.06h.02s.02-.02,.02-.03c.01,0,.02,0,.03-.01v-.02s.03-.01,.05-.02h0s.01-.01,.02-.01c0,0,0-.02,.01-.02h.02s0-.01,.01-.02h.02s0-.01,.01-.02h.02s.01,0,.02,0h0s.02-.01,.02-.01h0s.01-.01,.02-.01c0,0,0-.02,.01-.02,.05-.03,.1-.06,.14-.11h.02v-.02h.03v-.02c.06,0,.09-.03,.12-.06h.02s0-.02,.01-.02h.02s.02-.03,.03-.05h.02s.03-.04,.05-.06h.02s.02-.03,.03-.04c.02,0,.03,0,.05-.01,0-.01,.02-.02,.02-.03,.02,0,.05-.02,.07-.02,0,0,0-.02,.01-.02h.02s0-.01,.01-.02h.02s.01-.02,.02-.03h.02s.02-.03,.03-.05c.01,0,.02,0,.03-.01v-.02h.02v-.02s.03,0,.05-.01h0s.02-.01,.02-.01h0s.01-.01,.02-.01h0s.02-.01,.03-.01c0,0,0-.02,.01-.02,.02,0,.04,0,.06-.01,0,0,.02-.02,.02-.03h.02s.04-.04,.06-.07h.02s.02-.02,.02-.03c.01,0,.02,0,.04-.01,0,0,0-.02,.01-.02h.02s0-.01,.01-.02c.02,0,.04-.01,.07-.02,0,0,0-.01,.01-.02h.02s.01-.02,.02-.03h.02s0-.02,.01-.02h.02s.03-.04,.05-.06h.02s.03-.04,.05-.06h.02s.01-.02,.02-.03h.02s0-.02,.01-.02h.03s.03-.02,.05-.02h0s.02-.01,.03-.01h0s.02-.03,.02-.04h.02s0-.01,.01-.02c.01,0,.02,0,.03-.01v-.02h.02v-.02s.02,0,.03-.01h0s.02-.02,.03-.02c0,0,0-.01,.01-.02h.02s.01-.01,.02-.01h0s.01-.01,.02-.01h0s.01-.01,.02-.01c0,0,0-.02,.01-.02h.02s.02-.01,.02-.01c.01-.02,.02-.03,.03-.05h.02s.02-.03,.04-.05h.02s.02-.03,.03-.05h.02s.03-.04,.05-.06h.02s0-.02,.01-.02h.02s.02-.01,.02-.01h0s.02-.01,.02-.01h0s.02-.01,.02-.01c0,0,0-.01,.01-.02h.03s0-.01,.01-.02h.02s.03-.04,.04-.06c.03-.03,.03,0,.05-.05,.02,0,.03,0,.05-.01,0,0,0-.02,.01-.02,.02,0,.03,0,.04-.01,0,0,0-.01,.01-.02h.03s.03-.02,.05-.02c0-.01,.02-.02,.02-.03h.02s0-.02,.01-.02h.02s.03-.04,.05-.06h.02s.03-.04,.05-.06h.02s.02-.02,.02-.03h.02s0-.02,.01-.02c.01,0,.03,0,.04-.01,0,0,0-.02,.01-.02,.01,0,.02,0,.03-.01h0s.03-.02,.05-.02c0,0,0-.01,.01-.02h.02s.02-.03,.03-.05h.02s.03-.03,.05-.04c0-.01,.01-.02,.02-.04,.01,0,.03,0,.04-.01h0c.08-.06,.17-.07,.21-.15h.02v-.02s.04-.02,.06-.04h0s.01-.01,.02-.01c0,0,0-.02,.01-.02h.02s0-.02,.01-.02c.01,0,.03,0,.04-.01,0,0,0-.01,.01-.02,.02,0,.03,0,.05-.01h0s.02-.02,.03-.02c0,0,0-.02,.01-.02h.02s.01-.02,.02-.03c.01,0,.02,0,.03-.01,.03-.03,.05-.06,.08-.09h.02s0-.01,.01-.02c.02,0,.04,0,.06-.01h0s.05-.03,.07-.03h0s.03-.02,.05-.02c.02-.03,.05-.05,.07-.08h.02s.01-.02,.02-.03h.02s.01-.02,.02-.03h.02s0-.01,.01-.02c.01,0,.03,0,.05-.01,0,0,0-.01,.01-.02,.02,0,.03,0,.05-.01,0,0,0-.02,.01-.02h.02s.04-.04,.07-.04v-.02s.02,0,.04-.01c.01-.02,.03-.04,.04-.06h.02s.02-.02,.02-.03c.08-.04,.16-.08,.24-.12v-.02s.06-.03,.08-.06c0,0,0-.02,.01-.02,.02,0,.03,0,.05-.01,0,0,0-.02,.01-.02h.02s.01-.01,.02-.01h0s.02-.01,.04-.01c0,0,0-.02,.01-.02h.02s0-.02,.01-.02h.02s.01-.02,.02-.03h.02s.04-.05,.06-.07h.02s.03-.04,.04-.06h.02s.01-.02,.02-.03c.02,0,.04-.02,.07-.02,0,0,0-.02,.01-.02h.02s.02-.01,.03-.01c0,0,0-.02,.01-.02h.02s.01-.02,.02-.03h.02s.05-.06,.08-.09h.02s0-.01,.01-.02c.02,0,.03,0,.05-.01h0s.02-.01,.02-.01c0,0,0-.01,.01-.02h.03s.02-.01,.03-.01c0,0,0-.01,.01-.02,.01,0,.02,0,.03-.01,.02-.02,.03-.04,.05-.06h.02s.03-.04,.05-.06h.02s.02-.03,.03-.05h.03v-.02s.02,0,.03-.01h0s.02-.01,.02-.01h0s.02-.01,.02-.01c0,0,0-.02,.01-.02,.02,0,.04-.02,.07-.02,0,0,0-.02,.01-.02,.02-.02,.05-.04,.08-.05v-.02h.01s.02,0,.03-.04c.03,0,.05-.03,.08-.05h.03s.02-.01,.02-.01h0s.01-.01,.02-.01h0c.06-.04,.1-.06,.14-.11h.02v-.02s.03,0,.05-.02h0s.02-.01,.02-.01c0,0,0-.01,.01-.02,.02,0,.03,0,.05-.01,0,0,0-.02,.01-.02h.02s0-.01,.01-.02h.02s0-.02,.01-.02h.02s0-.01,.01-.02c.01,0,.03,0,.05-.01,0-.01,.01-.02,.02-.03h.01s0-.01,.01-.02h.02s.05-.05,.07-.08c.02,0,.03,0,.04-.01,.08-.05,.19-.09,.24-.17h.02v-.02s.05-.02,.07-.03h0s.02-.01,.02-.01h0s.01-.01,.02-.01h0s.01-.01,.02-.01h0s.01-.01,.02-.01h0s.01-.01,.02-.01c0-.01,.01-.02,.02-.03h.02s.01-.02,.02-.03h.02s.02-.03,.03-.05h.02s.03-.04,.05-.06h.02s.02-.03,.03-.05c.02,0,.03,0,.05-.01,.08-.05,.19-.1,.24-.18h.02v-.02s.03,0,.04-.01h0s.01-.01,.02-.01h0s.02-.01,.02-.01h0s.04-.03,.07-.03c0,0,0-.01,.01-.02h.03s.03-.04,.05-.06c.03-.02,.05-.02,.07-.06h.02v-.02s.03,0,.05-.02h0s.01-.01,.02-.01c0,0,0-.02,.01-.02h.02s0-.01,.01-.02h.02s0-.01,.01-.02h.02s.01-.01,.02-.01h0s.02-.01,.02-.01h0s.01-.01,.02-.01c0-.01,.02-.02,.02-.03h.02s.01-.02,.02-.03h.02s.01-.02,.02-.05c.03,0,.03,0,.04-.02h0s.02-.01,.02-.01c0,0,0-.02,.01-.02,.02,0,.04,0,.06-.01,0,0,0-.01,.01-.02,.02,0,.05,0,.07-.01,.02-.02,.03-.04,.04-.06,.03-.02,.05-.02,.07-.06h.02v-.02s.02,0,.03-.01h0s.02-.02,.03-.02c0,0,0-.01,.01-.02,.02,0,.03,0,.05-.01,0,0,0-.01,.01-.02h.02s.01-.01,.02-.01c0-.01,.01-.02,.02-.03,.02,0,.03,0,.05-.01,0-.01,.02-.02,.02-.03h.02s.03-.04,.05-.06h.02s.03-.04,.05-.06h.02s0-.01,.01-.02c.01,0,.03,0,.04-.01h0s.02-.01,.02-.01h0s.02-.01,.02-.01h0s.02-.01,.02-.01h0s.02-.01,.03-.01c0,0,0-.02,.01-.02h.02s.03-.04,.05-.06h.02s.04-.04,.06-.07h.02s0-.02,.01-.02c.02,0,.03,0,.05-.01,0,0,0-.01,.01-.02,.02,0,.05-.01,.07-.02h0s.04-.04,.07-.05v-.02s.03-.01,.04-.02h0s.02-.01,.02-.01c0,0,0-.01,.01-.02h.01s0-.01,.01-.02h.02s.02-.03,.03-.04h.02s0-.01,.01-.02h.02s0-.01,.01-.02h.05s.05-.03,.07-.03h0s.03-.02,.05-.02c0,0,0-.02,.01-.02,.01,0,.02,0,.03-.01h0s.03-.04,.06-.05v-.02s.02,0,.03-.01Zm2.89,7.72s.04,.04,.07,.06h.02s0,.02,.01,.02h.02s0,.02,.01,.02c.02,0,.05,.02,.07,.02,0,.01,.02,.02,.02,.04,.02,0,.03,0,.05,0,0,0,0,.02,.01,.02h.02s.03,.04,.04,.06h.02s.02,.03,.03,.04h.02s.01,.02,.02,.04c.01,0,.02,0,.03,.01v.02s.07,.02,.1,.03c0,0,0,.02,.01,.02,.02,0,.04,0,.06,.01,0,.01,.02,.02,.02,.03,.03,.02,.05,.01,.06,.06,.03,0,.03,.01,.06,.02v.02s.05,.02,.08,.03c0,0,0,.02,.01,.02h.03s.03,.02,.04,.02c0,.01,.01,.02,.02,.03h.02s.01,.02,.02,.04h.02s0,.01,.01,.02h.01s0,.02,.01,.02h.02s.03,.04,.06,.04v.02s.02,0,.03,.01h0s.01,0,.02,0c0,0,0,.02,.01,.02,.02,0,.05,.02,.07,.02,0,0,0,.02,.01,.02,.02,0,.03,0,.05,.01h0s.02,.02,.03,.02c0,0,0,.01,.01,.02h.02s0,.02,.01,.02c.03,.03,.05,.06,.09,.07v.02s.03,0,.05,.01h0s.02,.01,.03,.01h0s.01,.01,.02,.01h0s.02,.01,.02,.01h0s.02,.01,.02,.01h0s.02,.01,.02,.01c0,0,0,.02,.01,.02h.02s.02,.03,.05,.03v.02s.04,.03,.07,.04v.02s.05,.04,.09,.04v.02s.03,0,.05,.01c0,0,0,.02,.01,.02,.01,0,.03,0,.04,0,0,0,0,.02,.01,.02,.02,0,.03,0,.05,.01,0,0,0,.01,.01,.02h.02s.03,.04,.06,.05v.02s.02,0,.03,.01c.02,.02,.03,.04,.05,.06h.02s.03,.02,.04,.02h0s.04,.02,.06,.02c.03,.01,.04,.04,.08,.04v.02s.04,.04,.07,.06h.02s0,.02,.01,.02h.01s0,.02,.01,.02h.02s0,.02,.01,.02h.02s0,.02,.01,.02c.02,0,.03,0,.05,.01,0,0,0,.01,.01,.02h.02s0,.01,.01,.02h.02s.02,.02,.03,.02c0,0,0,.02,.01,.02h.02s.04,.04,.06,.07h.02s.02,.03,.03,.04c0,.01,.01,.02,.02,.03,.02,0,.03,0,.05,.01h0s.02,.01,.02,.01h0s.02,.01,.02,.01h0s.02,.01,.02,.01h0s.02,0,.03,0c0,0,0,.02,.01,.02,.02,0,.03,0,.05,.01,0,0,0,.01,.01,.02,.03,.02,.05,.06,.09,.07v.02s.05,.03,.08,.04c.02,0,.03,0,.04,.01h0s.03,.02,.05,.02c.01,.01,.02,.03,.03,.04h.02s0,.01,.01,.02h.02s0,.01,.01,.02h.01s0,.01,.01,.02h.02s.03,.04,.06,.05v.02s.03,.01,.05,.02h0s.03,.02,.05,.02c0,0,0,.02,.01,.02h.02s.02,.01,.02,.01h0s.01,.01,.02,.01h0s.01,.01,.02,.01h0s.01,.01,.02,.01c0,.01,.01,.02,.02,.04h.02s.04,.05,.07,.08h.02s0,.01,.01,.02h.02s.01,.02,.02,.03h.02s.07,.04,.1,.04c0,0,0,.02,.01,.02h.02s.02,.03,.03,.04h.02s.05,.05,.07,.08h.02s.02,.02,.02,.03h.02s.02,.02,.02,.03h.02s0,.02,.01,.02h.03s0,.01,.01,.02c.03,.02,.06,.04,.1,.04v.02c.07,.02,.1,.09,.16,.12h.02s.02,.01,.02,.01h0s.02,.01,.03,.01h0s.03,.02,.04,.02h0s.02,.01,.02,.01c0,.01,.02,.02,.02,.04h.02s.05,.05,.07,.08h.02s.02,.02,.02,.03h.02s0,.02,.01,.02c.01,0,.02,0,.03,.01h0s.01,.01,.02,.01c0,0,0,.02,.01,.02h.02s0,.02,.01,.02h.02s0,.02,.01,.02h.02s.02,.02,.03,.02c0,0,0,.01,.01,.02h.02s.02,.02,.02,.03h.02s.04,.06,.08,.07v.02s.05,.02,.07,.02c0,0,0,.02,.01,.02h.03s.02,0,.03,0c0,0,0,.02,.01,.02,.01,0,.03,0,.05,.01,.01,.01,.02,.03,.03,.05h.02s.08,.09,.12,.13c.01,0,.02,0,.03,.01,0,0,0,.01,.01,.02,.04,.04,.07,.07,.07,.15h-.01v.03s-.02,0-.02,.01v.02h-.01v.02s-.02,.01-.04,.02c0,.02-.01,.04-.02,.07,0,0-.01,0-.02,.01v.03h-.01v.02h-.01v.05h-.01v.04h-.01v.03h-.01v.04s-.02,0-.02,.01v.02s-.03,.02-.05,.04v.02s-.01,0-.02,.01c0,.02,0,.03-.01,.04h-.01s0,.03-.01,.05h-.01v.03h-.01s0,.03-.01,.05h-.01v.03h-.01v.02h-.01s0,.06-.01,.09c-.03,.09-.06,.18-.09,.27h-.01v.02h-.01v.04s-.02,0-.02,.01v.02s-.02,0-.02,.01v.02s-.01,0-.02,.01v.03h-.01v.02h-.01v.04h-.01v.04h-.01s0,.07-.01,.1h-.01v.04h-.01s0,.1-.01,.15h-.01v.03h-.01v.03h-.01v.03h-.01s-.02,.1-.03,.15h-.01v.02s-.01,0-.02,.01v.03h-.01v.02h-.01s0,.05-.01,.08h-.01v.05h-.01v.04h-.01v.05h-.01v.04h-.01c-.03,.22-.05,.44-.08,.67h-.01v.04h-.01v.07h-.01v.09h-.01v.05h-.01c-.01,.08-.02,.15-.03,.23,0,.01,0,0,.01,.01h-.01c0,.06,0,.12-.01,.18h-.01v.11h-.01v.1s-.01,0-.01,.02h.01s0,.08-.01,.11c0,.19,0,.38-.01,.58h.01s0,.02-.01,.02c0,.03,.01,.03,.01,.04v.15h.01s0,.01-.01,.01c0,.02,.01,.03,.01,.04,0,0,0,.01-.01,.02h.01v.14s.01,0,.01,.01h-.01s0,.01,.01,.01v.2c.04,.12,.04,.27,.08,.38,.01,.12,.02,.23,.03,.35h.01v.03h.01c0,.05,0,.11,.01,.16h.01v.1h.01v.11h.01v.08h.01v.05h.01v.06h.01s0,.02-.01,.02h.01v.06h.01v.06h.01s0,.03,.01,.05h.01v.04h.01s0,.03,.01,.04h.01v.06h.01s0,.03,.01,.05h.01v.03h.01v.02h.01v.03s.02,0,.02,.01c0,0,0,.01-.01,.02h.01v.02h.01c.02,.12,.04,.25,.06,.37h.01v.04s.01,0,.02,.01v.02h.01s0,.05,.01,.07c0,0,.01,0,.02,.01v.02h.01s0,.04,.01,.07c0,0,.01,0,.02,.01v.02s.02,0,.02,.01v.02s.02,0,.02,.01v.04h.01v.03h.01v.06h.01s0,.06,.01,.09h.01v.02h.01v.06h.01v.03h.01v.04h.01v.03h.01v.02h.01v.02s.01,0,.02,0v.02s.02,.02,.03,.02v.02s.01,0,.02,.01v.02s.01,0,.02,.01v.02h.01v.02h.01v.03h.01v.02h.01v.05h.01v.02h.01s.02,.1,.03,.15c0,.02,.03,.05,.03,.08h.02v.02c.05,.03,.06,.08,.09,.13,0,0,.02,0,.02,.01v.03h.01v.02h.01v.02h.01v.02h.01v.03h.01v.02h.01v.03h.01v.02h.01s0,.04,.01,.06h.01v.02s.04,.03,.06,.05v.02s.03,.02,.05,.03v.02s.02,0,.02,.01v.02h.01v.02h.01v.03h.01s0,.03,.01,.05h.01s0,.03,.01,.05c0,0,.01,0,.02,.01v.03s.02,.01,.03,.02v.02s.02,.01,.03,.02v.02s.04,.03,.06,.04v.02s.04,.03,.06,.04c0,.02,0,.03,.01,.05h.01v.02h.01v.02h.01s.03,.08,.05,.12h.02v.02s.07,.06,.1,.09v.02s.02,.01,.03,.02c0,.02,.02,.05,.02,.07h.01s0,.02,.01,.03c0,0,.02,0,.02,.01v.02s.04,.03,.06,.05c.04,.04,.07,.09,.1,.14,.01,.01,.03,.02,.05,.04v.02s.02,.02,.03,.02v.02s.02,.02,.03,.02v.02s.07,.06,.1,.09h0s.01,.01,.02,.01v.02s.03,.02,.05,.04v.02s.04,.04,.07,.06v.02c.06,.06,.13,.12,.19,.18v.02h.01s.05,.04,.06,.08c.05,.01,.06,.05,.09,.08,.06,.06,.13,.13,.2,.18h0s.04,.06,.08,.07v.02s.04,.02,.06,.04v.02h.01s0,.01,.01,.02h.02s.03,.04,.05,.06h.02s.03,.04,.06,.05v.02s.1,.08,.12,.1c0,0,0,.02,.01,.02h.02s0,.02,.01,.02h.02s.02,.03,.04,.05c.01,0,.02,0,.03,0,0,0,0,.02,.01,.02h.02s.08,.08,.11,.12h.02s.03,.04,.05,.06c.01,0,.03,0,.05,0,0,0,0,.02,.01,.02h.04s0,.02,.01,.02c.02,0,.05,.02,.07,.02,.03,.03,.06,.07,.09,.1h.02s0,.02,.01,.02c.01,0,.02,0,.03,.01h0s.01,0,.02,0h0s.02,.01,.02,.01h0s.01,.01,.02,.01h0s.02,0,.02,0h0s.01,.01,.02,.01h0s.02,.01,.02,.01c0,.01,.02,.02,.02,.03h.02s.02,.02,.02,.03h.02s.02,.03,.03,.05h.02s0,.02,.01,.02h.02s.01,.02,.02,.04c.02,0,.03,0,.05,.01,0,.01,.01,.02,.02,.03,.02,0,.03,0,.05,.01h0s.02,.01,.03,.01h0s.05,.02,.07,.02c0,0,0,.02,.01,.02h.02s.07,.03,.08,.08c.03,0,.03,0,.04,.02h0s.03,.02,.05,.02c0,0,0,.02,.01,.02h.03s.03,.02,.05,.02h0s.04,.02,.06,.02c0,0,0,.02,.01,.02,.02,0,.05,0,.07,.01h0s.01,.01,.02,.01h0s.02,.01,.03,.01c0,0,0,.01,.01,.02h.03s0,.02,.01,.02h.02s.02,.02,.04,.02v.02s.02,0,.03,.01c0,0,0,.02,.01,.02,.05,.02,.09,.03,.14,.05h0s.03,0,.05,0h0s.02,.01,.02,.01h0s.07,.03,.1,.03h0s.02,.01,.02,.01h0s.02,.01,.03,.01h0s.01,.01,.02,.01h0s.01,.01,.02,.01c0,0,0,.02,.01,.02h.02s.02,.02,.02,.03h.02s0,.02,.01,.02h.02s.02,.01,.02,.01h0s.02,0,.03,0h0s.02,.01,.03,.01h0s.02,.01,.03,.01h0s.02,0,.02,0h0s.02,.01,.03,.01h0s.03,.01,.04,.01h0s.07,.02,.1,.02c.06,.02,.15,.07,.17,.13h.01v.04h.01v.04h.01v.1s.01,.15,.01,.24v5.45c0,.11,.02,.3-.01,.38h-.01s0,.03-.01,.05h-.01v.03s-.02,.02-.03,.02c0,0,0,.02-.01,.03h-.02s-.02,.02-.03,.03h-.16c-.53-.01-1.06-.01-1.58-.01H19.98c-.05,0-.1,.02-.16,.02h0s-.07-.02-.1-.02h0s-.02-.01-.02-.01h0s-.02-.02-.03-.02c0-.03,0-.03-.02-.05h-.01v-.02s-.02,0-.02-.01v-.03s-.02,0-.02-.01v-.04h-.01v-.05h-.01c0-.16,0-.32,.01-.49v-15.07c0-.1,0-.2-.01-.29h.01s0-.05,.01-.07h.01s0-.03,.01-.05h.01v-.02s.02,0,.02-.01c0-.02,0-.03,.01-.04h.01s.03-.03,.03-.06h.02s.06-.07,.09-.09c.02,0,.03,0,.05-.01,0,0,0-.01,.01-.02,.03-.01,.07-.02,.1-.03,.01-.02,.02-.03,.03-.05h.02v-.02s.03-.02,.05-.02h0s.01-.01,.02-.01h0s.02-.03,.05-.03v-.02s.02,0,.03-.01h0s.02-.01,.02-.01h0s.02-.01,.02-.01c0,0,0-.02,.01-.02h.02s0-.02,.01-.02h.02s0-.02,.01-.02c.02,0,.03,0,.04-.01,0,0,0-.01,.01-.02h.02s.02-.03,.03-.04h.02s.05-.06,.08-.09h.02s.02-.01,.02-.01h0s.02,0,.03,0c0,0,0-.02,.01-.02h.03s0-.02,.01-.02c.02,0,.05-.02,.07-.02,.02-.03,.05-.05,.07-.08h.02s.02-.02,.02-.03h.02s.02-.02,.02-.03h.02s0-.02,.01-.02c.01,0,.03,0,.05,0,0,0,0-.02,.01-.02h.02s0-.02,.01-.02h.02s0-.02,.01-.02c.02,0,.03,0,.05-.01,0-.01,.01-.02,.02-.04,.01,0,.02-.02,.03-.02h0s.02-.01,.02-.01c.02-.02,.04-.04,.06-.07h.02s0-.02,.01-.02c.01,0,.03,0,.05-.01,0,0,0-.01,.01-.02h.04s.02-.01,.03-.01h0s.02-.01,.02-.01h0s.02,0,.02,0c0-.01,.02-.02,.02-.03h.02s.05-.06,.08-.09h.02s.02-.02,.02-.03c.02,0,.03,0,.05-.01,0,0,0-.02,.01-.02h.03s.01-.01,.02-.01c0,0,.02-.02,.02-.03h.02s.02-.02,.03-.02c0,0,0-.01,.01-.02h.02s.04-.05,.07-.08h.02s.03-.04,.05-.06h.02s0-.02,.01-.02h.02s.01-.01,.02-.01h0s.02-.01,.02-.01c0,0,0-.02,.01-.02h.03s.02-.01,.02-.01c0,0,0-.01,.01-.02,.04-.02,.03,.02,.05-.03h.02s.05-.05,.07-.08h.02s0-.02,.01-.02c.02,0,.05-.02,.07-.02,0,0,0-.02,.01-.02,.02,0,.04,0,.06-.01h0s.02-.02,.03-.02c0,0,0-.01,.01-.02h.02s.02-.03,.03-.04c.01,0,.02,0,.03-.01v-.02h.02s.05-.04,.07-.06c0,0,0-.02,.01-.02,.02,0,.03,0,.05-.01,0-.01,.02-.02,.02-.03h.02s.01-.01,.02-.01h0s.02-.01,.02-.01h0s.01,0,.02,0c0,0,0-.02,.01-.02h.02s0-.01,.01-.02h.02s.04-.06,.08-.07v-.02s.04-.03,.07-.04c.02,0,.04,0,.06-.01,0,0,0-.01,.01-.02h.03s.02-.01,.02-.01c0,0,0-.01,.01-.02h.02s.02-.03,.03-.05h.02s.03-.04,.05-.06h.02s.03-.04,.05-.06h.02s0-.02,.01-.02h.03s.02-.02,.02-.04c.01,0,.02,0,.03-.01h0s.03-.02,.05-.02h0s.02-.02,.03-.02c0,0,0-.02,.01-.02h.02s.03-.04,.05-.06c.01,0,.02,0,.03-.01,0-.01,0-.02,.01-.03h.02s0-.02,.01-.02h.02s0-.02,.01-.02h.02s.02-.01,.03-.01h0s.02,0,.02,0h0s.02-.01,.03-.01c0,0,0-.01,.01-.02h.02s.02-.02,.02-.03h.02s.03-.04,.05-.06h.02s.02-.03,.03-.05h.02s0-.02,.01-.02h.02s0-.02,.01-.02h.03s0-.02,.01-.02h.02s.01-.02,.02-.03h.02s.02-.02,.03-.02c0,0,0-.02,.01-.02h.02s.02-.03,.03-.05h.02s.03-.04,.05-.06h.02s.02-.03,.03-.04h.02s.02-.01,.02-.01h0s.02-.01,.02-.01c0,0,0-.02,.01-.02h.03s.01-.01,.02-.01h0s.01-.01,.02-.01c0,0,0-.02,.01-.02h.02s.05-.06,.08-.09h.02s.02-.02,.02-.03c.02,0,.03,0,.05-.01,0,0,0-.01,.01-.02h.02s.02-.01,.03-.01c0,0,0-.02,.01-.02h.02s.02-.01,.02-.01c0,0,.01-.02,.02-.03,.01,0,.02,0,.04,0,0,0,0-.02,.01-.02,.02-.02,.06-.05,.09-.06v-.02h.02v-.02s.05-.02,.07-.03h0s.03-.02,.04-.02c0,0,0-.02,.01-.02h.02s.05-.04,.09-.04v-.02s.02-.01,.06-.02c.01-.04,.03-.03,.06-.06,0-.01,.02-.02,.02-.03h.02s.02-.01,.02-.01h0s.02-.01,.02-.01h0s.02-.01,.02-.01h0s.02-.01,.02-.01h0s.02-.01,.02-.01h0s.03-.02,.05-.02c0,0,0-.01,.01-.02h.01s0-.01,.01-.02h.02s.03-.04,.06-.04v-.03s.06-.03,.08-.04c0,0,0-.02,.01-.02h.02s0-.02,.01-.02c.02,0,.05-.02,.07-.02,0,0,0-.02,.01-.02h.02s0-.02,.01-.02h.02s.01-.01,.02-.01h0s.03-.04,.06-.04v-.02s.02,0,.03-.04c.03,0,.03,0,.05-.02h0s.03-.02,.05-.02c0,0,0-.01,.01-.02h.03s.03-.02,.05-.02h0s.03-.02,.04-.02c0,0,0-.02,.01-.02h.02s.05-.05,.07-.08c.01,0,.02,0,.03-.01,0-.01,.02-.02,.02-.03h.02s0-.01,.01-.02c.02,0,.05-.01,.07-.02,0,0,0-.01,.01-.02h.02s.01-.02,.02-.04c.01,0,.03,0,.05-.01,0,0,0-.02,.01-.02,.01,0,.02,0,.03-.01h0s.02-.03,.04-.03v-.02h.02s.06-.07,.11-.09h0s.02-.01,.03-.01h0s.01-.01,.02-.01h0s.02-.01,.02-.01c0,0,0-.02,.01-.02h.02s.02-.01,.03-.01c.02-.03,.05-.05,.07-.08h.02s.02-.03,.03-.05h.02s0-.01,.01-.02h.02s0-.02,.01-.02h.02s.02-.01,.02-.01h0s.02-.01,.02-.01h0s.01-.01,.02-.01c0,0,0-.02,.01-.02h.02s0-.02,.01-.02h.02s.03-.04,.06-.04v-.02c.05-.01,.06-.06,.12-.08v-.02s.03,0,.05-.01c0,0,0-.01,.01-.02h.02s.01-.01,.02-.01h0s.02-.01,.03-.01c0,0,0-.01,.01-.02h.02s0-.02,.01-.02h.02s0-.02,.01-.02h.02s.05-.06,.08-.09h.02s0-.02,.01-.02h.02s.01-.01,.02-.01h0s.02-.01,.02-.01h0s.01,0,.02,0h0s.03-.02,.05-.02c0,0,0-.02,.01-.02h.02s.02-.02,.03-.02v-.02h.02s.02-.03,.04-.05h.02s.02-.03,.03-.04h.02s.02-.03,.03-.05c.02,0,.03,0,.04-.01,0-.01,.02-.02,.02-.04h.02s.02,0,.02,0h0s.02-.01,.02-.01h0s.01-.01,.02-.01c0,0,0-.02,.01-.02h.02s.02-.02,.02-.04h.02s.05-.05,.07-.08h.02s0-.01,.01-.02h.02s0-.01,.01-.02h.03s.02,0,.02,0h0s.02-.01,.02-.01h0s.02-.01,.02-.01h0s.03-.02,.05-.02c.02-.03,.05-.05,.07-.08h.02s.01-.02,.02-.04h.02s.01-.02,.02-.03h.02s.01-.02,.02-.03c.01,0,.03,0,.05-.01h0s.02-.02,.03-.02c0,0,0-.02,.01-.02,.02,0,.03,0,.05-.01,0,0,0-.02,.01-.02,.01,0,.02,0,.03-.01h0s.02-.02,.03-.02v-.02h.02s.04-.03,.07-.06c.01-.02,.02-.03,.03-.05h.03s0-.02,.01-.02h.03s0-.01,.01-.02c.02,0,.04,0,.06-.01,0,0,0-.02,.01-.02h.02s.02-.03,.03-.05h.02s.03-.04,.05-.06h.02s0-.01,.01-.02c.01,0,.02,0,.03-.01h0s.02-.01,.02-.01c0-.01,.02-.02,.02-.03h.03s.02-.02,.03-.02c0,0,0-.01,.01-.02h.02s.02-.02,.03-.02c0,0,0-.01,.01-.02h.02s.05-.05,.07-.08h.02s.02-.03,.03-.04h.02s.02-.02,.02-.03h.02s.02-.01,.02-.01h0s.02-.01,.03-.01c0,0,0-.01,.01-.02h.03s0-.02,.01-.02h.02s.01-.02,.02-.03h.02s.05-.05,.07-.08h.02s0-.01,.01-.02h.02s0-.02,.01-.02h.02s.02-.01,.03-.01c0,0,0-.02,.01-.02,.02,0,.03,0,.05-.01,0-.01,.02-.02,.02-.03h.02s.01-.02,.02-.03h.02s.03-.04,.05-.06h.02s.03-.04,.05-.06h.02s.01-.02,.02-.03c.01,0,.03,0,.04-.01,0,0,0-.01,.01-.02h.02s.01,0,.02,0h0s.01-.01,.02-.01h0s.01-.01,.02-.01c0,0,0-.02,.01-.02h.02s.01-.02,.02-.03h.02s.04-.06,.08-.07v-.02s.07-.04,.1-.06h.04s.01-.01,.02-.01h0s.02-.01,.02-.01c0,0,0-.01,.01-.02h.02s.02-.02,.03-.02v-.02h.02s.04-.05,.06-.07h.02s.02-.03,.03-.04c.02,0,.03,0,.05-.01,0-.01,.01-.02,.02-.03,.02,0,.04,0,.06-.01h0s.03-.02,.05-.02h0s.02-.01,.03-.01h0s.05-.02,.07-.02h0s.02,0,.02,0h0s0,0,.01,0h0s.05,0,.07,0h0s.04,.02,.06,.02h0s.02,.01,.02,.01h0s.01,.01,.02,.01c0,0,0,.02,.01,.02,.02,0,.03,0,.05,.01,0,0,0,.01,.01,.02h.02s.03,.04,.05,.06h.02s.04,.05,.06,.07h.02s.01,.02,.02,.03c.02,0,.03,0,.05,.01,0,.01,.01,.02,.02,.03h.02s0,.02,.01,.02c.01,0,.03,0,.05,0h0s.02,.02,.03,.02c0,0,0,.02,.01,.02h.02s.01,.02,.02,.04c.01,0,.02,0,.03,0,.02,.02,.04,.05,.06,.07h.02s0,.01,.01,.02c.01,0,.02,0,.03,.01h0s.02,.01,.02,.01h0s.02,0,.02,0h0s.02,.01,.03,.01h0s.04,.03,.07,.03c0,.01,.02,.02,.02,.04,.01,0,.02,0,.03,0v.02Zm17.06,5.27v.02s.03,0,.05,.02h0s.02,.02,.03,.02c0,0,0,.02,.01,.02h.02s.02,.04,.07,.06v.02c.06,.02,.11,.1,.15,.14,.03,.03,.04,0,.06,.06h.02v.02s.07,.07,.1,.1c.06,.06,.15,.11,.17,.2h.02s.03,.04,.05,.08h.02v.02s.09,.08,.11,.11v.02s.02,0,.02,.01v.02s.02,0,.02,.01c0,.02,0,.04,.01,.06,0,0,.01,0,.02,.01,0,.02,.01,.04,.02,.07,0,0,.01,0,.02,.01v.02s.04,.04,.07,.06v.02s.02,.02,.03,.02v.02s.01,0,.02,.01c0,.02,0,.04,.01,.07h.01v.04h.01v.02h.01v.04s.01,0,.02,.01v.03h.01s0,.03,.01,.05h.01v.03s.02,0,.02,.01v.04s.02,0,.02,.01v.02s.01,0,.02,.01v.02s.03,.02,.05,.03v.02h.01s0,.03,.01,.04h.01s.02,.1,.02,.15h.01v.03h.01s0,.07,.01,.1h.01v.07h.01v.04h.01v.02h.01v.04h.01v.02h.01v.05h.01v.03h.01s0,.06,.01,.09h.01s0,.03,.01,.04h.01s0,.05,.01,.08h.01v.08h.01v.04h.01v.06h.01s0,.01-.01,.01h0s0,.01,.01,.01v.06h.01v.14h.01c.02,.06,0,.2,0,.24h.01s0,.01-.01,.01c0,.03,.01,.03,.01,.03v.29h-.01v.28h-.01s0,.02,.01,.02h-.01v.09h-.01v.07h-.01c0,.05,0,.11-.01,.16h-.01v.04h-.01v.02h-.01v.04h-.01v.02h-.01s-.01,.09-.02,.13c0,0-.02,0-.02,.01v.03s-.01,0-.02,.01v.05h-.01v.04h-.01v.06h-.01v.06h-.01v.03h-.01v.05h-.01v.07h-.01s0,.06-.01,.09h-.01s-.01,.05-.02,.07h-.01s0,.03-.01,.04c0,0-.01,0-.02,.01v.04s-.01,0-.02,0c0,.02,0,.03-.01,.05,0,0-.02,0-.02,.01,0,.01,0,.03-.01,.04h-.01s0,.02-.01,.04c0,0-.02,0-.02,.01v.04h-.01v.02h-.01v.06h-.01v.02h-.01v.04s-.06,.07-.07,.11h-.02s-.03,.06-.05,.08c0,0-.02,0-.02,.01v.02s-.01,0-.02,.01v.02s-.02,0-.02,.01v.02s-.01,0-.02,.01v.02h-.01v.04s-.02,0-.02,.01c0,.02,0,.03-.01,.04,0,0-.01,0-.02,.01v.02h-.01s0,.02-.01,.03h-.02s-.05,.08-.08,.1c0,0-.01,0-.02,.01v.02s-.01,0-.02,0c0,.02-.02,.05-.02,.07-.01,0-.02,.02-.03,.02v.02s-.02,.02-.03,.02c-.04,.05-.08,.09-.12,.13-.02,.02-.04,.03-.06,.04v.02h-.02c-.02,.05-.1,.13-.16,.15v.02h-.02s-.08,.07-.11,.1c0,.01-.01,.02-.02,.03h-.02c-.02,.05-.04,.04-.08,.07,0,0,0,.01-.01,.02h-.03s0,.01-.01,.02h-.02s-.01,0-.02,0h0s-.02,.01-.02,.01c0,0,0,.01-.01,.02h-.02s-.04,.04-.06,.07h-.02s0,.02-.01,.02h-.02s-.02,.03-.03,.05h-.02s0,.02-.01,.02c-.02,0-.03,0-.05,.01,0,0,0,.01-.01,.02h-.03s0,.02-.01,.02h-.02s-.07,.03-.1,.03c0,0,0,.01-.01,.02h-.03s0,.02-.01,.02h-.02s-.04,.04-.06,.07c-.02,0-.03,0-.05,.01,0,0,0,.02-.01,.02-.02,0-.05,0-.07,.01h0s-.01,.01-.02,.01h0s-.03,0-.04,0h0s-.02,.01-.02,.01h0s-.05,.02-.08,.02h0s-.07,.02-.1,.02h0s-.02,0-.03,0h0s-.02,.01-.02,.01c0,0,0,.01-.01,.02-.02,0-.04,.01-.07,.02h0s-.02,.01-.03,.01h0s-.04,.02-.06,.02h0s-.02,.01-.02,.01h0s-.02,.01-.03,.01h0s-.01,.01-.02,.01h0s-.02,.01-.02,.01c0,0,0,.01-.01,.02-.04,0-.08,0-.11,.01-.13,.04-.33,.03-.44,.07h-.15s-.1,.02-.15,.02h-.11s0,.01-.01,.01c-.03-.02-.14,.02-.21,0h0s-.05-.01-.07-.01c-.02,0,0,.01-.01,.01h0s0-.01-.01-.01h0s0,.01-.01,.01h0s-.01,0-.02,0h0c-.06-.01-.13-.01-.19-.01h0s-.08-.01-.12-.01c-.12-.04-.28-.02-.39-.06-.06,0-.11,0-.17-.01h0s-.02-.01-.02-.01h0s-.03-.01-.05-.01h0s-.02-.01-.02-.01h0s-.07-.02-.1-.02h0s-.03-.02-.05-.02h0s-.02-.01-.02-.01c0,0,0-.02-.01-.02h-.02s-.02-.01-.02-.01h0s-.01-.01-.02-.01h0s-.02-.01-.02-.01h0s-.02-.01-.02-.01h0s-.06-.02-.09-.02h0s-.02,0-.03,0h0s-.02-.01-.02-.01h0s-.06-.02-.09-.02h0s-.03-.01-.05-.01h0s-.03-.01-.05-.01h0s-.01,0-.02,0h0s-.02-.01-.02-.01c0-.01-.01-.02-.02-.03h-.02s0-.02-.01-.02h-.02v-.02s-.04,0-.06-.01c0,0,0-.02-.01-.02h-.02s-.05-.03-.07-.04c0,0,0-.01-.01-.02-.07-.03-.14-.05-.2-.08h0s-.01-.01-.02-.01h0s-.04-.06-.08-.07v-.02s-.03,0-.05-.02h0s-.04-.03-.07-.03c0,0,0-.02-.01-.02-.02,0-.05-.02-.07-.02-.01-.02-.02-.03-.03-.05h-.02s0-.02-.01-.02c-.03-.02-.05-.06-.09-.07v-.02s-.04-.04-.07-.06h-.02s-.03-.04-.05-.06h-.02s-.02-.02-.02-.03c-.03-.03-.06-.05-.09-.08v-.02s-.07-.06-.1-.09c-.03-.03-.06-.05-.09-.08v-.02s-.03-.02-.05-.04c0,0,0-.02-.01-.03-.02-.02-.05-.04-.07-.06-.02-.03-.04-.05-.06-.08h-.02s-.02-.05-.03-.07h-.01v-.02s-.02,0-.02-.01c0-.02-.02-.05-.02-.07,0,0-.01,0-.02-.01v-.02s-.02-.02-.03-.02h0s-.02-.02-.02-.02v-.02s-.05-.04-.07-.06v-.02s-.02,0-.02-.01c0-.02,0-.04-.01-.06h-.01v-.02h-.01v-.03h-.01v-.04h-.01v-.02h-.01v-.02s-.02,0-.02-.01v-.02s-.01,0-.02-.01v-.03s-.02-.02-.03-.02c0-.02,0-.03-.01-.05-.01,0-.02-.02-.03-.02v-.02s-.02,0-.02-.01c0-.02,0-.03-.01-.05,0,0-.01,0-.02-.01v-.03h-.01s0-.03-.01-.05h-.01c0-.05-.01-.11-.02-.16h-.01s0-.04-.01-.06h-.01s0-.03-.01-.05h-.01s-.02-.07-.02-.1c-.01,0-.02-.02-.03-.02,0-.02,0-.03-.01-.05,0,0-.01,0-.02-.01v-.02h-.01s0-.06-.01-.09h-.01v-.03h-.01v-.07h-.01v-.04h-.01v-.07h-.01v-.09h-.01v-.07h-.01v-.1h-.01s0-.01,.01-.01h0s0-.08-.01-.11h-.01v-.06h-.01s0,0,.01,0h0s0-.01-.01-.01v-.1h-.01v-.1h-.01v-.14h-.01s0-.01,.01-.02h-.01v-.05s0-.02,.01-.03h-.01s0-.01,.01-.01c0-.03-.01-.03-.01-.03v-.15h.01s-.01-.03-.01-.03c0-.02,.01-.02,.01-.02v-.16h.01v-.08h.01v-.07h.01v-.11h.01v-.09h.01v-.07s0,0,.01-.01c0,0-.02,0-.01-.02,0-.02,0,0,.01-.01v-.1h.01v-.04h.01v-.08h.01v-.06h.01v-.06h.01v-.02h.01v-.03h.01v-.02h.01s0-.04,.01-.06h.01s.02-.07,.02-.1c.01,0,.02-.02,.03-.02,0-.02,0-.03,.01-.05,0,0,.01,0,.02-.01v-.05h.01v-.02h.01v-.06h.01s0-.05,.01-.08h.01v-.03h.01v-.03h.01v-.03h.01v-.05s.04-.07,.07-.1c.01,0,.02-.02,.03-.02v-.02s.02-.02,.03-.02v-.02h.01v-.02h.01v-.04h.01s.01-.04,.02-.07h.01v-.02h.01v-.02h.01v-.02h.01v-.02h.01v-.02h.01v-.02s.01,0,.02-.01v-.02s.02-.01,.03-.02v-.02s.05-.04,.07-.06v-.02s.03-.02,.05-.03v-.02h.01v-.02h.01v-.02h.01v-.02s.01,0,.02-.01v-.04s.03-.02,.05-.03v-.02h.01s0-.02,.03-.02c0-.03,.01-.04,.05-.05,0-.03,.02-.04,.03-.06h.01s0-.02,.01-.04c0,0,.01,0,.02,0v-.02s.02-.02,.03-.02v-.02s.04-.03,.06-.05c.03-.03,.06-.07,.09-.1h.02c.06-.07,.13-.14,.19-.21h.02s0-.01,.01-.02h.02s.02-.02,.03-.02c0,0,0-.02,.01-.02h.02s.02-.02,.02-.03h.02s.02-.04,.07-.06c.02-.06,.06-.05,.1-.08,0,0,0-.02,.01-.02h.02s.04-.02,.06-.02c.05-.03,.08-.08,.14-.09v-.02s.05-.04,.09-.04v-.02s.02,0,.03,0h0s.02-.01,.02-.01h0s.02-.01,.02-.01c0,0,0-.02,.01-.02h.02c.06-.02,.11-.04,.17-.05,0,0,0-.02,.01-.02,.01,0,.02,0,.03-.01h0s.02-.01,.02-.01h0s.02-.01,.02-.01h0s.02-.01,.02-.01c0,0,0-.02,.01-.02h.03s.01,0,.02,0h0s.01-.01,.02-.01c0,0,0-.01,.01-.02h.02s0-.01,.01-.02h.02s.02-.01,.02-.01h0s.02-.01,.03-.01h0s.02,0,.03,0h0s.04-.01,.06-.01h0s.07-.02,.1-.02h0s.02-.01,.03-.01h0s.08-.02,.11-.02h0s.02,0,.02,0h0s.02-.01,.02-.01h0s.02-.01,.03-.01h0s.02-.01,.03-.01h0s.03-.02,.04-.02h0s.08-.03,.12-.04h0s.02-.01,.03-.01h0s.02-.01,.04-.01h0s.02-.01,.03-.01h0s.03-.01,.05-.01h0s.07,0,.1,0h0s.03-.01,.05-.01h0s0-.01,.01-.01h0s0,.01,.01,.01h0s.04-.01,.06-.01h0c.06,0,.12,0,.18,0,.11-.03,.34-.03,.42-.01h.23c.09,0,.21,.02,.24,.02h.09s.02,.01,.02,.01h0c.09,.03,.18,.04,.27,.06h0s.01,.01,.02,.01h0s.1,.04,.15,.04h0s.02,.01,.03,.01h0s.02,.01,.02,.01h0s.05,.02,.07,.02h0s.04,.01,.06,.01h0s.04,.01,.06,.01h0s.03,.01,.05,.01h0s.03,0,.04,0h0s.03,.01,.05,.01h0s.03,.01,.05,.01h0s.02,0,.03,0h0s.03,.01,.04,.01h0s.02,.01,.02,.01c0,0,0,.02,.01,.02h.02s0,.02,.01,.02h.02s.02,.02,.02,.04h.02s0,.01,.01,.02h.03s.01,.01,.02,.01h0s.03,.02,.05,.02h0c.07,.03,.14,.06,.2,.08h0s.05,.03,.07,.04h0s.02,0,.02,0c.02,.03,.05,.05,.07,.08h.02s0,.01,.01,.02h.02s0,.02,.01,.02c.04,.02,.08,.03,.12,.05,0,0,0,.02,.01,.02h.02s0,.02,.01,.02h.02s.02,.03,.03,.05h.02s.05,.07,.09,.08Z"/>
  <g>
    <path class="cls-2" d="M97.67,46.75h-7.2s0-.01,0-.02v-6.56c0-1.29-1.04-2.33-2.33-2.33s-2.33,1.04-2.33,2.33v6.56s0,.01,0,.02h-7.19c-1.28,0-2.31,1.03-2.31,2.31s1.03,2.31,2.31,2.31h19.04c1.28,0,2.31-1.03,2.31-2.31s-1.03-2.31-2.31-2.31Z"/>
    <path class="cls-2" d="M124.47,46.75h-7.2s0-.01,0-.02v-6.56c0-1.29-1.04-2.33-2.33-2.33s-2.33,1.04-2.33,2.33v6.56s0,.01,0,.02h-7.19c-1.28,0-2.31,1.03-2.31,2.31s1.03,2.31,2.31,2.31h19.04c1.28,0,2.31-1.03,2.31-2.31s-1.03-2.31-2.31-2.31Z"/>
    <path class="cls-2" d="M105.63,32.1h.01c.06,1.22,1.07,2.19,2.3,2.19h14.18c1.23,0,2.36-.88,2.46-2.11,.12-1.37-.96-2.52-2.31-2.52h-11.97s-.04-.02-.04-.04V14.7c0-1.24-.89-2.38-2.12-2.49-1.38-.12-2.54,.97-2.54,2.32V31.14s0,.02,0,.03v.92Z"/>
    <path class="cls-2" d="M183.95,9.74c-1.28,0-2.31,1.04-2.31,2.31V29.64c0,1.28,1.03,2.31,2.31,2.31s2.31-1.03,2.31-2.31V12.05c0-1.28-1.03-2.31-2.31-2.31Z"/>
    <path class="cls-2" d="M139.99,34.77c4.75,0,7.99-5.43,7.99-12.13s-3.24-12.13-7.99-12.13-7.99,5.43-7.99,12.13,3.24,12.13,7.99,12.13Zm.03-19.68c1.99,0,3.38,3.37,3.38,7.52s-1.39,7.52-3.38,7.52-3.38-3.37-3.38-7.52,1.39-7.52,3.38-7.52Z"/>
    <path class="cls-2" d="M88.28,35.83c6.03,0,9.35-5.66,9.35-12.63s-3.32-12.63-9.35-12.63-9.73,5.66-9.73,12.63,3.7,12.63,9.73,12.63Zm-.11-20.87c3.25,0,4.92,3.64,4.92,8.12s-1.67,8.12-4.92,8.12-4.99-3.64-4.99-8.12,1.74-8.12,4.99-8.12Z"/>
    <path class="cls-2" d="M155.7,12.05c0-1.28-1.03-2.31-2.31-2.31-1.11,0-2.03,.78-2.26,1.83h0c-.03,.06-.03,.24-.04,.26v.18s0,.03,0,.04v26.51s-2.85,.62-5.6,1.07c0,0-.01,0-.02,0h0s0,0-.01,0h0s0,0-.01,0h0s-.03,0-.04,.01h-.05s0,0-.01,0h-.03s-.03,0-.05,.01h0c-1.57,.25-3.07,.44-3.96,.42l-3.99,.19-4.27,.02s-.1-.02-.15-.02c-.06,0-.12,0-.19,0-.11-.01-.22-.03-.33-.03-.23,0-.45,.04-.67,.1,0,0-.02,0-.03,0h0s-.01,.01-.02,.01h-.02s0,0-.01,.01h-.05s-.03,.01-.04,.01h0s-.02,.01-.03,.01c-.02,0-.03,.02-.05,.03-.87,.35-1.49,1.17-1.49,2.12s.59,1.73,1.42,2.09t0,0h0s.02,.01,.03,.01c0,0,0,0,0,0h.01s0,0,.01,0h0s.03,0,.04,.01c.28,.11,.58,.17,.89,.17,0,0,.01,0,.02,0h3.89c.14,0,.27-.01,.41-.02h0c.07-.01,.14-.01,.21-.01h0s.02,0,.02,0h0s0-.01,.01-.01h0s.05,.01,.07,.01h0s.02,0,.02,0h.23c.16,0,.32-.02,.49-.02h0s.02,0,.04,0h.03c.06-.01,.13-.01,.19-.01h0c.06-.01,.11-.01,.17-.01,.1-.03,.25,0,.36-.01,.03,0,.08-.01,.14-.01h.19c.1-.01,.2-.01,.31-.01,.08-.02,.21-.02,.34-.02,3.18-.21,10.33-1.18,11.36-1.32,0,0,0,0,0,0,.02,0,.04,0,.06-.01h0s.04,0,.07,0h0s.05,.1,.06,.16v6.88s0,.03,0,.04h0c0,.09,0,.2,.01,.26,0,.07,0,.14,.01,.21h.01v.03s.01,0,.02,.01c0,.01,0,.03,.01,.05,0,0,.01,0,.02,.01,0,0,0,0,0,0v.02s0,0,0,0c.04,.13,.08,.25,.14,.37,0,0,0,0,0,.01h0s.01,.02,.02,.03c0,.01,0,.03,.01,.04h0s0,0,0,0v.02s0,0,.01,0c.39,.72,1.14,1.21,2.02,1.21,1.06,0,1.95-.73,2.22-1.71,0,0,0,0,0,0,.02-.05,.03-.1,.04-.15,0-.04,0-.08,0-.12,.02-.11,.04-.23,.04-.34v-2.98s0-.06,0-.09V12.05Z"/>
    <polygon class="cls-2" points="171.04 26.08 171.05 26.09 171.05 26.08 171.04 26.08"/>
    <path class="cls-2" d="M170,25s.03,.03,.05,.04c0,0,0,0,0-.01-.01,0-.03-.02-.04-.03Z"/>
    <polygon class="cls-2" points="169.77 24.79 169.78 24.8 169.78 24.79 169.77 24.79"/>
    <path class="cls-2" d="M170.22,25.21s.04,.04,.06,.07h.02s-.05-.05-.08-.07h0Z"/>
    <path class="cls-2" d="M170.05,25.05s0,0,0,0c0,0,0,0-.01-.01,0,0,0,0,0,0Z"/>
    <polygon class="cls-2" points="170 25 170 25 170 25 170 25"/>
    <path class="cls-2" d="M169.39,24.45s.01,0,.02,.01c.01,.01,.02,.03,.03,.04v.02s.04,.02,.06,.03h0s.02,.01,.03,.01h0s.02,.01,.03,.02c-.08-.07-.14-.12-.17-.16v.02Z"/>
    <polygon class="cls-2" points="169.78 24.8 169.79 24.8 169.78 24.8 169.78 24.8"/>
    <path class="cls-2" d="M169.75,24.78s.02,0,.03,0c-.01-.01-.02-.02-.03-.03,0,0,0,.01,0,.02Z"/>
    <polygon class="cls-2" points="171.17 26.24 171.18 26.24 171.17 26.23 171.17 26.24"/>
    <path class="cls-2" d="M171.18,26.27h.01s0,.03,.01,.05h0v.02s.05,.04,.07,.06h.02s.03,.04,.05,.06c0,0,0,0,0,0-.06-.07-.12-.14-.17-.21v.03Z"/>
    <path class="cls-2" d="M174.11,30.4h.02s0,.02,0,.02h.02s.02,.03,.03,.05h.02s.02,.02,.02,.03c.02,0,.05,.02,.07,.02h0s.02,.01,.02,.01h0s.08,.02,.12,.02h0s.02,0,.02,0h0s.08,.02,.13,.01c-.2-.01-.44-.15-.52-.19,0,0,0,.01,.01,.02Z"/>
    <path class="cls-2" d="M174.08,30.38h.02s-.02,0-.02-.01h0Z"/>
    <path class="cls-2" d="M171.06,26.1h0s0-.01-.01-.02c0,0,0,.01,0,.02Z"/>
    <path class="cls-2" d="M174.73,30.58h.07s-.05,0-.07,0h0Z"/>
    <path class="cls-2" d="M170.94,25.98h.01v.02h.01v.02s.01,0,.02,.01c0,.02,.02,.03,.03,.05h.02s-.07-.08-.1-.12v.02Z"/>
    <polygon class="cls-2" points="177.56 14.94 177.56 14.93 177.55 14.94 177.56 14.94"/>
    <path class="cls-2" d="M168.97,24.43s0-.01,.03-.03c.04-.02,.09-.02,.11-.06,.08,0,.13,0,.18,.04,.02,0,.03,0,.05,.01,0,0,0,.02,.01,.02,0,0,.01,0,.02,0,0,0,0,0,.01,.01,.04,.03,.1,.09,.21,.17,0,0,0,.01,.03,.02h-.02s0-.01-.01-.02h-.02s-.01-.01-.02-.02c.04,.04,.09,.08,.14,.13h0s0,0,0,0c.01,.01,.02,.02,.04,.03,.01,0,.02,.02,.07,.04h-.02c.07,.06,.14,.12,.21,.19h0s-.01-.02-.02-.02h0s.07,.05,.1,.09c0,0-.01,0-.02,0,.06,.05,.11,.1,.16,.15h0s.05,.05,.08,.07h0s0,0,0,0c0,0,0,.01,0,.02h0s.1,.1,.14,.15c0,0,0,.01,0,.02,0,0,.02,0,.02,.01v.02s.02,0,.03,.01c0,0,0,.01,.01,.02h.01s0,0,.01,.01c0,0,0,0,.01,.02,0,0,0,0,0,0h0s.08,.08,.12,.12c0,0,0,.01,0,.02,0,0,.02,0,.02,.01v.02h.01s.02,.03,.03,.05h.02s0,0,0,0c0,0,0,.01,0,.02h0s.04,.04,.06,.06c.02,.03,.04,.05,.07,.08h0s.09,.09,.13,.14h0s.07,.08,.11,.13h0s0,0,0,0h0s0,0,0,0h0c.06,.07,.12,.14,.17,.21,0,0,0,0,0,0,0,.01,.02,.02,.03,.03,.33,.41,.68,.87,.87,1.21,.24,.43,.48,.86,.72,1.3,.29,.53,.59,1.07,1.13,1.39h0s0,0,0,0c.19,.11,.4,.16,.61,.19-.01,0-.05,0-.09,0,0,0,0,0,0,0,.03,0,.07,0,.11,0h0s.04,0,.07,0h0c.06,0,.12,.02,.17,.02,.2,0,.4,0,.6-.03h0c.1,0,.17-.02,.2-.03h-.05c.19-.05,.38-.12,.54-.26,.43-.36,.86-.69,1-1.28,.18-.8-.06-1.47-.42-2.17-.39-.76-.83-1.49-1.3-2.2-.26-.39-.54-.78-.81-1.17-.23-.33-.47-.63-.74-.92-.14-.15-.29-.29-.43-.43-.12-.12-.28-.34-.44-.42,0,0,0,0,0,0-.01-.01-.03-.03-.04-.04-.06-.06-.11-.1-.17-.16,0,0,0,0,.01,0-.04-.04-.08-.08-.12-.11-.05-.05-.1-.1-.15-.13-.26-.24-.45-.42-.45-.42,0,0,.1-.11,.1-.12l.03-.03s.02-.02,.04-.05c0,0,.97-1.08,1-1.12,.01,0,.02-.02,.05-.03l.02-.02s.14-.15,.16-.2c.02-.01,.03-.02,.09-.07,0,0,.12-.13,.14-.18,.01,0,.02-.02,.03-.02,0-.01,0-.02,.06-.06,0,0,.11-.12,.15-.2,.03-.02,.06-.05,.09-.07l.11-.12s0-.02,.01-.04c0,0,.01,0,.02-.03,.04-.03,.08-.07,.12-.1l.08-.09s.01-.03,.02-.05c.01,0,.02-.02,.03-.02,.02-.03,.05-.05,.08-.08,0,0,.12-.13,.16-.18,0,0,2.52-2.78,2.52-2.81,.01,0,.02,0,.03,0l.02-.03s.02-.02,.03-.03c0,0,.06-.07,.06-.08,.01,0,.02-.02,.03-.02l.04-.04c.07-.07,.13-.14,.2-.22,.22-.27,.38-.58,.47-.98,0-.02,0-.04,.01-.06v-.09c.01-.1,.04-.19,.04-.29,0-.99-.64-1.83-1.56-2.17-.01,0-.02,0-.06-.02-.01,0-.02,0-.03-.01-.03,0-.06,0-.09,0-.17-.04-.34-.07-.53-.07h-13.71c-.19,0-.37,.03-.54,.07-.02,0-.03,0-.07,.02-.96,.27-1.66,1.14-1.66,2.18,0,.89,.57,1.75,1.4,2.08,.3,.12,.61,.18,.91,.27h6.18c.49,0,.99,0,1.48,.01h.67s0,.01,.01,.04c0,0-.74,.83-.75,.83l-.22,.24s-.02,.02-.03,.04l-.19,.21s-.03,.02-.03,.02c0,0,0,.02-.01,.02,0,0-.22,.24-.22,.25,0,0-.7,.78-.72,.81,0,0-.21,.23-.21,.23-.02,.02-.04,.05-.06,.07l-.21,.24s-.01,.01-.02,.03c0,0-.05,.06-.06,.06,0,0-.24,.27-.26,.29,0,0-.19,.21-.2,.21,0,.02,0,.03-.04,.06,0,0-.17,.19-.19,.21-.01,0-.03,.02-.05,.05l-.2,.22s-.02,.01-.03,.03c0,0-.2,.22-.21,.23,0,0-.46,.51-.46,.51,0,0-.01,.01-.02,.02,0,0-.03,.04-.04,.05,0,0-.18,.2-.19,.2-.01,.01-.02,.03-.07,.08l-.17,.19s-.03,.03-.06,.06c0,0-.06,.06-.07,.08,0,0-.13,.14-.15,.16,0,0-.03,.04-.05,.05,0,0-.02,.02-.06,.07,0,0-.13,.15-.14,.16,0,0-.03,.03-.05,.03,0,0,0,.02-.06,.08,0,0-.14,.16-.15,.16-.01,.02-.03,.04-.04,.06,0,0-.02,0-.02,.01,0,0,0,.02,0,.03,0,0-.16,.18-.16,.18,0,0-.02,.02-.03,.02,0,0,0,.02-.03,.05,0,0-.19,.21-.19,.21,0,.01-.02,.03-.03,.04,0,0-.45,.5-.47,.5,0,.02-.01,.03-.04,.07,0,0-.16,.17-.17,.18-.02,.02-.03,.04-.04,.06,0,0-.02,0-.03,.03,0,0-.16,.18-.18,.18,0,0,0,.02-.01,.02-.01,.01-.03,.02-.07,.08,0,0-.04,.04-.06,.07,0,0-.07,.08-.08,.08-.04,.04-.07,.08-.1,.11-.01,.01-.03,.02-.07,.08,0,0-.02,.02-.02,.03,0,0-.1,.11-.14,.13,0,0,0,.02-.01,.02-.02,.02-.04,.03-.08,.1,0,0-.13,.14-.17,.17-.02,.03-.04,.05-.06,.09l-.15,.17s-.05,.04-.08,.1l-.18,.2s-.02,.02-.04,.04c0,0-.2,.22-.24,.27l-.18,.21s-.03,.02-.08,.09c0,0-.14,.16-.15,.16,0,0-.01,.02-.05,.03,0,0,0,.01-.04,.07,0,0-.07,.08-.08,.09,0,0-.06,.06-.07,.06-.01,.02-.02,.03-.03,.04-.01,0-.02,0-.06,.07-.01,.01-.03,.02-.04,.05l-.02,.02s-.02,.01-.03,.03c0,0-.02,.02-.03,.03,0,0-.05,.06-.07,.07,0,0-.02,0-.02,.03-.03,.03-.07,.06-.1,.11,0,0-.02,0-.02,.03l-.11,.12s-.04,.03-.08,.05c0,.01,0,.02-.04,.09l-.12,.13s-.01,.02-.04,.03c0,0,0,.01-.03,.05,0,.01,0,.02-.02,.05-.08,.1-.15,.2-.25,.39-.44,.89-.27,1.99,.5,2.69,.65,.59,1.54,.72,2.33,.44,.02,0,.04,0,.08-.01,0,0,0-.01,.04-.03,.11-.05,.22-.11,.32-.18l5.38-5.83s.04-.03,.06-.05Zm6.75,6.12h-.02s.01,0,.02,0h0Zm-4.8-4.62h0s0,0,0,0c0,0,0,0,0,0Zm-1.05-1.06h0Zm.03,.02h0Z"/>
    <path class="cls-2" d="M172.69,21.26s0,0,0,0c.03,.03,.08,.08,.13,.13-.02-.03-.04-.06-.07-.09-.01,0-.03,0-.06-.03Z"/>
    <path class="cls-2" d="M173.04,21.58c-.02-.06-.06-.07-.11-.09,.05,.05,.1,.1,.16,.15,0-.02-.02-.04-.05-.06Z"/>
    <path class="cls-2" d="M186.23,45.76v-8.46c0-.17,0-.37-.01-.5-.01-.13,.01-.27-.02-.4-.08-.29-.23-.5-.39-.73-.02-.04-.05-.07-.12-.15,0-.01,0-.03-.06-.07,0-.01-.01-.02-.03-.03-.07-.08-.14-.15-.22-.21-.4-.35-.92-.57-1.5-.57-1.28,0-2.31,1.03-2.31,2.31v3.31s-.09,.06-.14,.04c-.13-.04-.34-.02-.51-.02h-11.03c-.24,0-.48,0-.72,0h-.04s-.05-.03-.08-.05v-3.28c0-1.28-1.03-2.31-2.31-2.31-.82,0-1.54,.43-1.98,1.14-.01,.02-.02,.04-.04,.07-.16,.29-.24,.55-.27,.89,0,0,0,.02,0,.03,0,.02,0,.05-.01,.09v.11c-.02,.08-.01,.3-.01,.44v10.02c0,.16,0,.33,.01,.49v.05c0,.29,.03,.58,.07,.86,0,.02,0,.05,0,.07,0,.02,0,.05,0,.07,0,.02,0,.05,.01,.07,.49,2.47,2.66,4.33,5.26,4.33h11.07c2.63,0,4.81-1.9,5.28-4.41,0-.02,0-.03,.02-.04,0-.02,0-.03,.01-.05,0-.01,0-.03,.01-.05,0-.02,0-.04,.01-.07v-.08c.02-.1,.02-.31,.02-.46v-.08c0-.05,0-.1,0-.16v-.05c.01-.16,0-.45,0-.65v-1.5Zm-4.66,.16h-.01v1.95c0,.49-.4,.89-.89,.89h-.25c-.1,0-.21,0-.3,0h-9.57s-.03,0-.04,0h-.56c-.49,0-.89-.4-.89-.89v-1.95h0v-.96s0,0,0,0v-.02s.06-.07,.1-.09h12.4s.01,.01,.02,.02v1.05Z"/>
  </g>
</svg>